G04*
G04 #@! TF.GenerationSoftware,Altium Limited,Altium Designer,24.10.1 (45)*
G04*
G04 Layer_Color=16711935*
%FSLAX25Y25*%
%MOIN*%
G70*
G04*
G04 #@! TF.SameCoordinates,82B40839-DE60-4B9F-80D9-4B01C0AB2508*
G04*
G04*
G04 #@! TF.FilePolarity,Positive*
G04*
G01*
G75*
%ADD10C,0.00787*%
G36*
X77858Y83498D02*
X77885D01*
X77920Y83495D01*
X77960Y83493D01*
X78005Y83487D01*
X78054Y83482D01*
X78105Y83473D01*
X78160Y83464D01*
X78218Y83451D01*
X78276Y83436D01*
X78334Y83420D01*
X78393Y83400D01*
X78449Y83376D01*
X78506Y83351D01*
X78509Y83349D01*
X78518Y83343D01*
X78533Y83334D01*
X78555Y83324D01*
X78578Y83307D01*
X78606Y83289D01*
X78638Y83265D01*
X78671Y83240D01*
X78706Y83213D01*
X78744Y83180D01*
X78780Y83145D01*
X78817Y83107D01*
X78853Y83065D01*
X78888Y83021D01*
X78921Y82974D01*
X78952Y82923D01*
X78953Y82919D01*
X78959Y82910D01*
X78966Y82896D01*
X78975Y82874D01*
X78988Y82849D01*
X79001Y82818D01*
X79013Y82781D01*
X79028Y82743D01*
X79043Y82699D01*
X79055Y82652D01*
X79070Y82601D01*
X79081Y82548D01*
X79090Y82492D01*
X79097Y82433D01*
X79102Y82373D01*
X79104Y82312D01*
Y82286D01*
X79102Y82275D01*
X79101Y82248D01*
X79099Y82215D01*
X79093Y82179D01*
X79088Y82137D01*
X79081Y82090D01*
X79070Y82040D01*
X79057Y81989D01*
X79043Y81937D01*
X79023Y81884D01*
X79001Y81831D01*
X78975Y81776D01*
X78946Y81726D01*
X78912Y81676D01*
X78910Y81673D01*
X78902Y81665D01*
X78891Y81651D01*
X78875Y81634D01*
X78857Y81613D01*
X78831Y81589D01*
X78804Y81564D01*
X78771Y81534D01*
X78735Y81505D01*
X78695Y81474D01*
X78649Y81445D01*
X78602Y81416D01*
X78549Y81387D01*
X78493Y81362D01*
X78433Y81336D01*
X78369Y81316D01*
X78293Y81644D01*
X78296Y81646D01*
X78305Y81647D01*
X78318Y81653D01*
X78338Y81660D01*
X78360Y81669D01*
X78386Y81680D01*
X78415Y81695D01*
X78446Y81709D01*
X78478Y81726D01*
X78511Y81746D01*
X78544Y81766D01*
X78578Y81789D01*
X78609Y81815D01*
X78640Y81840D01*
X78668Y81869D01*
X78693Y81900D01*
X78695Y81902D01*
X78698Y81907D01*
X78704Y81917D01*
X78713Y81929D01*
X78722Y81946D01*
X78733Y81966D01*
X78744Y81989D01*
X78757Y82015D01*
X78768Y82044D01*
X78779Y82075D01*
X78790Y82110D01*
X78799Y82146D01*
X78808Y82186D01*
X78813Y82228D01*
X78817Y82271D01*
X78819Y82319D01*
Y82346D01*
X78817Y82366D01*
X78815Y82392D01*
X78811Y82421D01*
X78808Y82454D01*
X78800Y82488D01*
X78793Y82526D01*
X78784Y82565D01*
X78773Y82605D01*
X78760Y82647D01*
X78744Y82687D01*
X78724Y82727D01*
X78704Y82767D01*
X78679Y82805D01*
X78677Y82807D01*
X78673Y82814D01*
X78664Y82823D01*
X78653Y82836D01*
X78638Y82852D01*
X78622Y82870D01*
X78602Y82890D01*
X78580Y82912D01*
X78555Y82934D01*
X78527Y82958D01*
X78496Y82980D01*
X78462Y83001D01*
X78427Y83023D01*
X78389Y83043D01*
X78349Y83061D01*
X78305Y83078D01*
X78304D01*
X78294Y83081D01*
X78282Y83085D01*
X78265Y83091D01*
X78243Y83096D01*
X78218Y83103D01*
X78189Y83109D01*
X78156Y83116D01*
X78122Y83123D01*
X78083Y83131D01*
X78043Y83138D01*
X78001Y83143D01*
X77914Y83152D01*
X77869Y83154D01*
X77821Y83156D01*
X77818D01*
X77807D01*
X77790D01*
X77767Y83154D01*
X77739Y83152D01*
X77707Y83151D01*
X77670Y83149D01*
X77632Y83145D01*
X77588Y83140D01*
X77543Y83134D01*
X77450Y83116D01*
X77401Y83107D01*
X77354Y83094D01*
X77306Y83080D01*
X77261Y83063D01*
X77259Y83061D01*
X77250Y83060D01*
X77239Y83054D01*
X77223Y83045D01*
X77202Y83036D01*
X77179Y83023D01*
X77153Y83009D01*
X77126Y82992D01*
X77099Y82972D01*
X77070Y82950D01*
X77039Y82927D01*
X77010Y82901D01*
X76980Y82872D01*
X76953Y82841D01*
X76928Y82808D01*
X76904Y82772D01*
X76902Y82770D01*
X76898Y82763D01*
X76893Y82752D01*
X76886Y82737D01*
X76877Y82719D01*
X76866Y82697D01*
X76857Y82672D01*
X76846Y82645D01*
X76833Y82614D01*
X76824Y82581D01*
X76813Y82544D01*
X76804Y82508D01*
X76797Y82468D01*
X76791Y82428D01*
X76788Y82386D01*
X76786Y82344D01*
Y82332D01*
X76788Y82317D01*
Y82297D01*
X76791Y82273D01*
X76795Y82246D01*
X76798Y82213D01*
X76806Y82181D01*
X76815Y82144D01*
X76826Y82106D01*
X76838Y82066D01*
X76853Y82026D01*
X76871Y81986D01*
X76893Y81946D01*
X76919Y81907D01*
X76946Y81869D01*
X76948Y81867D01*
X76953Y81860D01*
X76962Y81851D01*
X76977Y81838D01*
X76993Y81822D01*
X77013Y81804D01*
X77039Y81784D01*
X77066Y81764D01*
X77099Y81742D01*
X77133Y81720D01*
X77173Y81696D01*
X77217Y81676D01*
X77263Y81655D01*
X77314Y81636D01*
X77366Y81620D01*
X77425Y81605D01*
X77341Y81272D01*
X77339D01*
X77335Y81274D01*
X77330Y81276D01*
X77323Y81278D01*
X77314Y81280D01*
X77301Y81283D01*
X77273Y81292D01*
X77239Y81305D01*
X77201Y81320D01*
X77157Y81338D01*
X77110Y81360D01*
X77059Y81383D01*
X77008Y81411D01*
X76957Y81442D01*
X76904Y81476D01*
X76853Y81514D01*
X76804Y81556D01*
X76758Y81602D01*
X76715Y81651D01*
X76713Y81655D01*
X76706Y81664D01*
X76695Y81678D01*
X76682Y81700D01*
X76666Y81726D01*
X76647Y81758D01*
X76627Y81795D01*
X76607Y81836D01*
X76587Y81882D01*
X76567Y81933D01*
X76549Y81988D01*
X76533Y82046D01*
X76520Y82110D01*
X76509Y82175D01*
X76502Y82244D01*
X76500Y82317D01*
Y82344D01*
X76502Y82357D01*
Y82384D01*
X76505Y82419D01*
X76509Y82459D01*
X76515Y82504D01*
X76520Y82552D01*
X76529Y82605D01*
X76540Y82657D01*
X76555Y82714D01*
X76569Y82768D01*
X76589Y82823D01*
X76611Y82878D01*
X76636Y82930D01*
X76666Y82980D01*
X76667Y82983D01*
X76673Y82990D01*
X76684Y83003D01*
X76696Y83021D01*
X76713Y83043D01*
X76735Y83067D01*
X76758Y83094D01*
X76788Y83123D01*
X76820Y83154D01*
X76855Y83185D01*
X76895Y83218D01*
X76937Y83251D01*
X76984Y83282D01*
X77033Y83313D01*
X77088Y83342D01*
X77144Y83367D01*
X77146D01*
X77148Y83369D01*
X77159Y83373D01*
X77175Y83380D01*
X77199Y83387D01*
X77228Y83398D01*
X77263Y83409D01*
X77303Y83422D01*
X77346Y83433D01*
X77395Y83445D01*
X77448Y83458D01*
X77503Y83469D01*
X77563Y83480D01*
X77623Y83487D01*
X77687Y83495D01*
X77752Y83498D01*
X77819Y83500D01*
X77821D01*
X77825D01*
X77830D01*
X77838D01*
X77847D01*
X77858Y83498D01*
D02*
G37*
G36*
X78438Y80748D02*
X78442Y80741D01*
X78449Y80726D01*
X78458Y80708D01*
X78469Y80686D01*
X78484Y80659D01*
X78500Y80630D01*
X78518Y80599D01*
X78540Y80564D01*
X78562Y80528D01*
X78613Y80452D01*
X78669Y80373D01*
X78731Y80299D01*
X78733Y80297D01*
X78738Y80290D01*
X78748Y80280D01*
X78760Y80268D01*
X78777Y80251D01*
X78795Y80233D01*
X78817Y80213D01*
X78839Y80191D01*
X78864Y80169D01*
X78891Y80146D01*
X78948Y80100D01*
X79008Y80058D01*
X79039Y80040D01*
X79070Y80024D01*
Y79824D01*
X76542D01*
Y80133D01*
X78511D01*
X78509Y80135D01*
X78506Y80138D01*
X78500Y80144D01*
X78493Y80153D01*
X78484Y80164D01*
X78471Y80178D01*
X78458Y80195D01*
X78444Y80211D01*
X78429Y80233D01*
X78411Y80255D01*
X78395Y80279D01*
X78374Y80304D01*
X78356Y80333D01*
X78336Y80362D01*
X78296Y80428D01*
X78294Y80430D01*
X78291Y80435D01*
X78285Y80446D01*
X78280Y80459D01*
X78271Y80473D01*
X78260Y80492D01*
X78249Y80513D01*
X78236Y80535D01*
X78211Y80586D01*
X78185Y80641D01*
X78160Y80697D01*
X78138Y80752D01*
X78436D01*
X78438Y80748D01*
D02*
G37*
G36*
X60858Y83998D02*
X60885D01*
X60920Y83995D01*
X60960Y83993D01*
X61005Y83987D01*
X61054Y83982D01*
X61105Y83973D01*
X61160Y83964D01*
X61218Y83951D01*
X61276Y83936D01*
X61335Y83920D01*
X61393Y83900D01*
X61449Y83876D01*
X61506Y83851D01*
X61509Y83849D01*
X61518Y83843D01*
X61533Y83834D01*
X61555Y83824D01*
X61578Y83807D01*
X61606Y83789D01*
X61638Y83765D01*
X61671Y83740D01*
X61706Y83713D01*
X61744Y83680D01*
X61780Y83645D01*
X61817Y83607D01*
X61853Y83565D01*
X61888Y83521D01*
X61921Y83474D01*
X61952Y83423D01*
X61953Y83419D01*
X61959Y83410D01*
X61966Y83396D01*
X61975Y83374D01*
X61988Y83349D01*
X62001Y83318D01*
X62013Y83281D01*
X62028Y83243D01*
X62042Y83199D01*
X62055Y83152D01*
X62070Y83101D01*
X62081Y83048D01*
X62090Y82992D01*
X62097Y82933D01*
X62103Y82873D01*
X62104Y82812D01*
Y82786D01*
X62103Y82775D01*
X62101Y82748D01*
X62099Y82715D01*
X62093Y82679D01*
X62088Y82637D01*
X62081Y82590D01*
X62070Y82540D01*
X62057Y82489D01*
X62042Y82437D01*
X62023Y82384D01*
X62001Y82331D01*
X61975Y82276D01*
X61946Y82226D01*
X61911Y82176D01*
X61910Y82173D01*
X61902Y82165D01*
X61891Y82151D01*
X61875Y82134D01*
X61857Y82113D01*
X61831Y82089D01*
X61804Y82064D01*
X61771Y82034D01*
X61735Y82005D01*
X61695Y81974D01*
X61649Y81945D01*
X61602Y81916D01*
X61549Y81887D01*
X61493Y81862D01*
X61433Y81836D01*
X61369Y81816D01*
X61293Y82144D01*
X61296Y82146D01*
X61305Y82147D01*
X61318Y82153D01*
X61338Y82160D01*
X61360Y82169D01*
X61386Y82180D01*
X61415Y82195D01*
X61445Y82209D01*
X61478Y82226D01*
X61511Y82246D01*
X61544Y82266D01*
X61578Y82289D01*
X61609Y82315D01*
X61640Y82340D01*
X61668Y82369D01*
X61693Y82400D01*
X61695Y82402D01*
X61699Y82407D01*
X61704Y82417D01*
X61713Y82429D01*
X61722Y82446D01*
X61733Y82466D01*
X61744Y82489D01*
X61757Y82515D01*
X61768Y82544D01*
X61779Y82575D01*
X61790Y82610D01*
X61799Y82646D01*
X61808Y82686D01*
X61813Y82728D01*
X61817Y82771D01*
X61819Y82819D01*
Y82846D01*
X61817Y82866D01*
X61815Y82892D01*
X61811Y82921D01*
X61808Y82954D01*
X61800Y82988D01*
X61793Y83026D01*
X61784Y83065D01*
X61773Y83105D01*
X61760Y83147D01*
X61744Y83187D01*
X61724Y83227D01*
X61704Y83267D01*
X61678Y83305D01*
X61677Y83307D01*
X61673Y83314D01*
X61664Y83323D01*
X61653Y83336D01*
X61638Y83352D01*
X61622Y83370D01*
X61602Y83390D01*
X61580Y83412D01*
X61555Y83434D01*
X61527Y83458D01*
X61497Y83479D01*
X61462Y83501D01*
X61427Y83523D01*
X61389Y83543D01*
X61349Y83561D01*
X61305Y83578D01*
X61304D01*
X61295Y83581D01*
X61282Y83585D01*
X61265Y83591D01*
X61243Y83596D01*
X61218Y83603D01*
X61189Y83609D01*
X61156Y83616D01*
X61122Y83623D01*
X61083Y83631D01*
X61043Y83638D01*
X61001Y83643D01*
X60914Y83652D01*
X60869Y83654D01*
X60821Y83656D01*
X60818D01*
X60807D01*
X60790D01*
X60767Y83654D01*
X60739Y83652D01*
X60707Y83651D01*
X60670Y83649D01*
X60632Y83645D01*
X60588Y83640D01*
X60543Y83634D01*
X60450Y83616D01*
X60401Y83607D01*
X60353Y83594D01*
X60306Y83580D01*
X60261Y83563D01*
X60259Y83561D01*
X60250Y83560D01*
X60239Y83554D01*
X60223Y83545D01*
X60202Y83536D01*
X60179Y83523D01*
X60153Y83509D01*
X60126Y83492D01*
X60099Y83472D01*
X60070Y83450D01*
X60039Y83427D01*
X60010Y83401D01*
X59980Y83372D01*
X59953Y83341D01*
X59928Y83308D01*
X59904Y83272D01*
X59902Y83270D01*
X59899Y83263D01*
X59893Y83252D01*
X59886Y83237D01*
X59877Y83219D01*
X59866Y83197D01*
X59857Y83172D01*
X59846Y83145D01*
X59833Y83114D01*
X59824Y83081D01*
X59813Y83044D01*
X59804Y83008D01*
X59797Y82968D01*
X59791Y82928D01*
X59787Y82886D01*
X59786Y82844D01*
Y82832D01*
X59787Y82817D01*
Y82797D01*
X59791Y82773D01*
X59795Y82746D01*
X59798Y82713D01*
X59806Y82680D01*
X59815Y82644D01*
X59826Y82606D01*
X59838Y82566D01*
X59853Y82526D01*
X59871Y82486D01*
X59893Y82446D01*
X59919Y82407D01*
X59946Y82369D01*
X59948Y82367D01*
X59953Y82360D01*
X59962Y82351D01*
X59977Y82338D01*
X59993Y82322D01*
X60013Y82304D01*
X60039Y82284D01*
X60066Y82264D01*
X60099Y82242D01*
X60133Y82220D01*
X60173Y82196D01*
X60217Y82176D01*
X60263Y82155D01*
X60313Y82136D01*
X60366Y82120D01*
X60425Y82105D01*
X60341Y81772D01*
X60339D01*
X60335Y81774D01*
X60330Y81776D01*
X60323Y81778D01*
X60313Y81780D01*
X60301Y81783D01*
X60273Y81792D01*
X60239Y81805D01*
X60201Y81820D01*
X60157Y81838D01*
X60110Y81860D01*
X60059Y81883D01*
X60008Y81911D01*
X59957Y81942D01*
X59904Y81976D01*
X59853Y82014D01*
X59804Y82056D01*
X59758Y82102D01*
X59715Y82151D01*
X59713Y82155D01*
X59706Y82164D01*
X59695Y82178D01*
X59682Y82200D01*
X59666Y82226D01*
X59647Y82258D01*
X59627Y82295D01*
X59607Y82336D01*
X59587Y82382D01*
X59567Y82433D01*
X59549Y82488D01*
X59533Y82546D01*
X59520Y82610D01*
X59509Y82675D01*
X59502Y82744D01*
X59500Y82817D01*
Y82844D01*
X59502Y82857D01*
Y82884D01*
X59505Y82919D01*
X59509Y82959D01*
X59514Y83004D01*
X59520Y83052D01*
X59529Y83105D01*
X59540Y83157D01*
X59554Y83214D01*
X59569Y83268D01*
X59589Y83323D01*
X59611Y83378D01*
X59636Y83430D01*
X59666Y83479D01*
X59667Y83483D01*
X59673Y83490D01*
X59684Y83503D01*
X59697Y83521D01*
X59713Y83543D01*
X59735Y83567D01*
X59758Y83594D01*
X59787Y83623D01*
X59820Y83654D01*
X59855Y83685D01*
X59895Y83718D01*
X59937Y83751D01*
X59984Y83782D01*
X60033Y83813D01*
X60088Y83842D01*
X60144Y83867D01*
X60146D01*
X60148Y83869D01*
X60159Y83873D01*
X60175Y83880D01*
X60199Y83887D01*
X60228Y83898D01*
X60263Y83909D01*
X60303Y83922D01*
X60346Y83933D01*
X60395Y83945D01*
X60448Y83958D01*
X60503Y83969D01*
X60563Y83980D01*
X60623Y83987D01*
X60687Y83995D01*
X60752Y83998D01*
X60819Y84000D01*
X60821D01*
X60825D01*
X60830D01*
X60838D01*
X60847D01*
X60858Y83998D01*
D02*
G37*
G36*
X59582Y81525D02*
X59611Y81523D01*
X59642Y81519D01*
X59678Y81514D01*
X59716Y81505D01*
X59755Y81492D01*
X59757D01*
X59762Y81488D01*
X59771Y81485D01*
X59784Y81479D01*
X59800Y81474D01*
X59818Y81465D01*
X59838Y81454D01*
X59860Y81443D01*
X59886Y81430D01*
X59911Y81414D01*
X59968Y81379D01*
X60028Y81337D01*
X60090Y81288D01*
X60091Y81286D01*
X60097Y81281D01*
X60106Y81274D01*
X60119Y81263D01*
X60135Y81248D01*
X60153Y81230D01*
X60175Y81210D01*
X60199Y81185D01*
X60226Y81157D01*
X60255Y81128D01*
X60286Y81095D01*
X60321Y81059D01*
X60355Y81019D01*
X60392Y80977D01*
X60430Y80932D01*
X60470Y80884D01*
X60472Y80882D01*
X60474Y80879D01*
X60479Y80873D01*
X60485Y80866D01*
X60494Y80857D01*
X60503Y80846D01*
X60526Y80819D01*
X60554Y80784D01*
X60588Y80748D01*
X60625Y80706D01*
X60665Y80662D01*
X60707Y80615D01*
X60750Y80569D01*
X60794Y80522D01*
X60839Y80478D01*
X60883Y80435D01*
X60925Y80396D01*
X60967Y80360D01*
X61005Y80331D01*
X61007Y80329D01*
X61014Y80326D01*
X61025Y80318D01*
X61038Y80307D01*
X61056Y80296D01*
X61076Y80285D01*
X61100Y80271D01*
X61125Y80258D01*
X61152Y80245D01*
X61182Y80231D01*
X61245Y80207D01*
X61278Y80198D01*
X61311Y80191D01*
X61344Y80187D01*
X61376Y80185D01*
X61378D01*
X61386D01*
X61395D01*
X61407Y80187D01*
X61424Y80189D01*
X61442Y80193D01*
X61462Y80196D01*
X61484Y80202D01*
X61507Y80209D01*
X61533Y80218D01*
X61558Y80229D01*
X61584Y80242D01*
X61611Y80256D01*
X61637Y80274D01*
X61662Y80295D01*
X61686Y80318D01*
X61688Y80320D01*
X61691Y80324D01*
X61697Y80331D01*
X61706Y80342D01*
X61715Y80355D01*
X61726Y80371D01*
X61739Y80389D01*
X61750Y80409D01*
X61762Y80433D01*
X61773Y80458D01*
X61784Y80487D01*
X61793Y80516D01*
X61802Y80549D01*
X61808Y80584D01*
X61811Y80620D01*
X61813Y80659D01*
Y80680D01*
X61811Y80695D01*
X61809Y80715D01*
X61806Y80737D01*
X61802Y80760D01*
X61797Y80788D01*
X61790Y80815D01*
X61780Y80844D01*
X61769Y80873D01*
X61757Y80904D01*
X61740Y80933D01*
X61722Y80963D01*
X61702Y80992D01*
X61678Y81017D01*
X61677Y81019D01*
X61673Y81023D01*
X61664Y81030D01*
X61655Y81037D01*
X61640Y81048D01*
X61624Y81059D01*
X61604Y81072D01*
X61582Y81083D01*
X61558Y81095D01*
X61529Y81108D01*
X61500Y81119D01*
X61467Y81130D01*
X61431Y81137D01*
X61393Y81144D01*
X61353Y81148D01*
X61309Y81150D01*
X61342Y81468D01*
X61344D01*
X61345D01*
X61351Y81467D01*
X61358D01*
X61376Y81465D01*
X61400Y81459D01*
X61429Y81454D01*
X61464Y81447D01*
X61502Y81437D01*
X61542Y81427D01*
X61586Y81412D01*
X61629Y81396D01*
X61675Y81376D01*
X61720Y81352D01*
X61764Y81326D01*
X61806Y81296D01*
X61846Y81263D01*
X61882Y81225D01*
X61884Y81223D01*
X61890Y81215D01*
X61901Y81203D01*
X61911Y81186D01*
X61926Y81164D01*
X61942Y81139D01*
X61959Y81108D01*
X61977Y81073D01*
X61993Y81033D01*
X62010Y80992D01*
X62026Y80944D01*
X62041Y80893D01*
X62053Y80839D01*
X62063Y80780D01*
X62068Y80719D01*
X62070Y80653D01*
Y80637D01*
X62068Y80619D01*
X62066Y80593D01*
X62064Y80562D01*
X62059Y80528D01*
X62053Y80487D01*
X62044Y80446D01*
X62033Y80400D01*
X62021Y80355D01*
X62004Y80305D01*
X61984Y80258D01*
X61961Y80211D01*
X61935Y80165D01*
X61904Y80122D01*
X61868Y80080D01*
X61866Y80078D01*
X61859Y80071D01*
X61848Y80060D01*
X61831Y80047D01*
X61813Y80031D01*
X61790Y80012D01*
X61762Y79992D01*
X61731Y79972D01*
X61697Y79954D01*
X61659Y79934D01*
X61617Y79916D01*
X61573Y79900D01*
X61526Y79887D01*
X61476Y79876D01*
X61424Y79869D01*
X61369Y79867D01*
X61367D01*
X61362D01*
X61355D01*
X61344D01*
X61329Y79869D01*
X61314Y79870D01*
X61296Y79872D01*
X61276Y79874D01*
X61231Y79881D01*
X61180Y79892D01*
X61127Y79909D01*
X61072Y79929D01*
X61071D01*
X61065Y79932D01*
X61058Y79936D01*
X61047Y79941D01*
X61034Y79947D01*
X61018Y79956D01*
X61000Y79965D01*
X60980Y79978D01*
X60958Y79991D01*
X60934Y80005D01*
X60881Y80041D01*
X60854Y80062D01*
X60825Y80083D01*
X60796Y80109D01*
X60765Y80134D01*
X60763Y80136D01*
X60758Y80142D01*
X60748Y80149D01*
X60736Y80162D01*
X60719Y80178D01*
X60699Y80198D01*
X60676Y80220D01*
X60648Y80247D01*
X60619Y80278D01*
X60587Y80314D01*
X60550Y80353D01*
X60510Y80396D01*
X60468Y80444D01*
X60423Y80495D01*
X60374Y80551D01*
X60323Y80611D01*
X60321Y80615D01*
X60312Y80624D01*
X60301Y80637D01*
X60284Y80655D01*
X60266Y80678D01*
X60244Y80702D01*
X60221Y80730D01*
X60195Y80759D01*
X60142Y80821D01*
X60115Y80850D01*
X60090Y80879D01*
X60064Y80906D01*
X60042Y80930D01*
X60022Y80951D01*
X60004Y80968D01*
X60000Y80972D01*
X59990Y80981D01*
X59973Y80995D01*
X59953Y81013D01*
X59928Y81033D01*
X59900Y81055D01*
X59869Y81077D01*
X59838Y81097D01*
Y79863D01*
X59542D01*
Y81527D01*
X59544D01*
X59547D01*
X59553D01*
X59560D01*
X59571D01*
X59582Y81525D01*
D02*
G37*
G36*
X33973Y86149D02*
X33622D01*
Y86500D01*
X33973D01*
Y86149D01*
D02*
G37*
G36*
X37000Y83981D02*
X36085D01*
X36061Y83983D01*
X36032D01*
X36001Y83985D01*
X35966D01*
X35893Y83990D01*
X35819Y83996D01*
X35783Y84001D01*
X35748Y84005D01*
X35715Y84010D01*
X35684Y84018D01*
X35682D01*
X35675Y84019D01*
X35664Y84023D01*
X35648Y84027D01*
X35630Y84034D01*
X35608Y84041D01*
X35584Y84048D01*
X35557Y84059D01*
X35500Y84083D01*
X35438Y84116D01*
X35377Y84152D01*
X35346Y84174D01*
X35317Y84198D01*
X35315Y84200D01*
X35307Y84205D01*
X35296Y84216D01*
X35284Y84229D01*
X35267Y84245D01*
X35247Y84265D01*
X35227Y84289D01*
X35204Y84314D01*
X35180Y84345D01*
X35156Y84378D01*
X35131Y84412D01*
X35105Y84451D01*
X35082Y84493D01*
X35060Y84534D01*
X35038Y84582D01*
X35018Y84629D01*
X35016Y84633D01*
X35014Y84642D01*
X35009Y84654D01*
X35002Y84675D01*
X34994Y84700D01*
X34987Y84729D01*
X34978Y84764D01*
X34967Y84802D01*
X34958Y84844D01*
X34949Y84891D01*
X34942Y84940D01*
X34934Y84993D01*
X34927Y85048D01*
X34922Y85106D01*
X34920Y85166D01*
X34918Y85228D01*
Y85232D01*
Y85241D01*
Y85255D01*
X34920Y85277D01*
Y85301D01*
X34922Y85330D01*
X34923Y85362D01*
X34927Y85399D01*
X34931Y85437D01*
X34934Y85479D01*
X34947Y85565D01*
X34964Y85652D01*
X34985Y85738D01*
Y85739D01*
X34989Y85747D01*
X34993Y85759D01*
X34998Y85774D01*
X35004Y85792D01*
X35013Y85814D01*
X35022Y85839D01*
X35033Y85865D01*
X35056Y85923D01*
X35087Y85985D01*
X35120Y86045D01*
X35158Y86103D01*
X35160Y86105D01*
X35164Y86109D01*
X35169Y86118D01*
X35176Y86127D01*
X35186Y86140D01*
X35198Y86154D01*
X35225Y86187D01*
X35260Y86223D01*
X35298Y86262D01*
X35342Y86298D01*
X35388Y86333D01*
X35389D01*
X35393Y86336D01*
X35400Y86340D01*
X35409Y86345D01*
X35422Y86353D01*
X35437Y86360D01*
X35453Y86369D01*
X35471Y86378D01*
X35493Y86389D01*
X35515Y86400D01*
X35540Y86409D01*
X35566Y86420D01*
X35624Y86440D01*
X35688Y86458D01*
X35690D01*
X35695Y86460D01*
X35706Y86462D01*
X35719Y86465D01*
X35735Y86467D01*
X35755Y86471D01*
X35779Y86475D01*
X35804Y86478D01*
X35833Y86484D01*
X35864Y86487D01*
X35897Y86491D01*
X35934Y86493D01*
X35970Y86496D01*
X36010Y86498D01*
X36092Y86500D01*
X37000D01*
Y83981D01*
D02*
G37*
G36*
X33919Y85879D02*
Y85872D01*
Y85861D01*
Y85847D01*
X33921Y85817D01*
Y85803D01*
Y85790D01*
Y85788D01*
Y85783D01*
Y85772D01*
Y85759D01*
X33919Y85745D01*
X33917Y85725D01*
Y85705D01*
X33913Y85683D01*
X33908Y85634D01*
X33899Y85581D01*
X33886Y85526D01*
X33870Y85475D01*
Y85474D01*
X33868Y85470D01*
X33866Y85466D01*
X33862Y85459D01*
X33853Y85439D01*
X33841Y85413D01*
X33822Y85383D01*
X33802Y85348D01*
X33777Y85312D01*
X33748Y85275D01*
X33744Y85272D01*
X33735Y85261D01*
X33720Y85244D01*
X33709Y85233D01*
X33697Y85221D01*
X33682Y85206D01*
X33666Y85190D01*
X33648Y85171D01*
X33628Y85151D01*
X33606Y85131D01*
X33580Y85108D01*
X33555Y85084D01*
X33526Y85059D01*
X33524Y85057D01*
X33518Y85053D01*
X33511Y85044D01*
X33500Y85035D01*
X33487Y85022D01*
X33473Y85009D01*
X33440Y84977D01*
X33404Y84940D01*
X33371Y84904D01*
X33355Y84884D01*
X33340Y84868D01*
X33329Y84849D01*
X33318Y84833D01*
Y84831D01*
X33316Y84829D01*
X33311Y84818D01*
X33302Y84802D01*
X33293Y84778D01*
X33285Y84751D01*
X33276Y84720D01*
X33271Y84685D01*
X33269Y84649D01*
Y84647D01*
Y84642D01*
Y84631D01*
X33271Y84618D01*
X33273Y84604D01*
X33276Y84585D01*
X33282Y84563D01*
X33287Y84542D01*
X33294Y84518D01*
X33304Y84493D01*
X33314Y84467D01*
X33329Y84440D01*
X33345Y84412D01*
X33364Y84385D01*
X33386Y84358D01*
X33411Y84332D01*
X33413Y84331D01*
X33416Y84327D01*
X33426Y84320D01*
X33437Y84311D01*
X33449Y84300D01*
X33466Y84289D01*
X33486Y84276D01*
X33506Y84263D01*
X33531Y84250D01*
X33557Y84238D01*
X33586Y84227D01*
X33615Y84216D01*
X33648Y84207D01*
X33682Y84200D01*
X33717Y84196D01*
X33755Y84194D01*
X33775D01*
X33788Y84196D01*
X33804Y84198D01*
X33824Y84201D01*
X33846Y84205D01*
X33871Y84210D01*
X33897Y84216D01*
X33922Y84225D01*
X33950Y84234D01*
X33979Y84247D01*
X34006Y84261D01*
X34033Y84278D01*
X34061Y84298D01*
X34086Y84320D01*
X34088Y84321D01*
X34092Y84325D01*
X34099Y84332D01*
X34108Y84343D01*
X34117Y84356D01*
X34130Y84373D01*
X34143Y84392D01*
X34157Y84414D01*
X34172Y84440D01*
X34186Y84469D01*
X34199Y84500D01*
X34214Y84534D01*
X34226Y84573D01*
X34239Y84614D01*
X34248Y84658D01*
X34257Y84706D01*
X34576Y84666D01*
Y84664D01*
Y84662D01*
X34574Y84656D01*
Y84649D01*
X34570Y84631D01*
X34567Y84607D01*
X34559Y84578D01*
X34552Y84544D01*
X34541Y84507D01*
X34528Y84467D01*
X34514Y84423D01*
X34496Y84380D01*
X34476Y84334D01*
X34452Y84290D01*
X34425Y84247D01*
X34394Y84203D01*
X34361Y84163D01*
X34323Y84127D01*
X34321Y84125D01*
X34314Y84119D01*
X34301Y84109D01*
X34285Y84098D01*
X34263Y84083D01*
X34237Y84067D01*
X34206Y84050D01*
X34172Y84032D01*
X34133Y84016D01*
X34092Y83999D01*
X34046Y83983D01*
X33995Y83968D01*
X33942Y83956D01*
X33884Y83947D01*
X33824Y83941D01*
X33760Y83939D01*
X33744D01*
X33724Y83941D01*
X33699Y83943D01*
X33668Y83945D01*
X33631Y83950D01*
X33591Y83956D01*
X33547Y83965D01*
X33502Y83976D01*
X33455Y83988D01*
X33406Y84005D01*
X33356Y84025D01*
X33307Y84048D01*
X33260Y84074D01*
X33214Y84105D01*
X33171Y84141D01*
X33169Y84143D01*
X33162Y84150D01*
X33151Y84161D01*
X33136Y84178D01*
X33120Y84198D01*
X33102Y84220D01*
X33082Y84247D01*
X33060Y84278D01*
X33040Y84312D01*
X33020Y84349D01*
X33002Y84389D01*
X32985Y84433D01*
X32970Y84478D01*
X32960Y84525D01*
X32952Y84576D01*
X32950Y84629D01*
Y84631D01*
Y84636D01*
Y84645D01*
X32952Y84656D01*
Y84671D01*
X32954Y84689D01*
X32958Y84707D01*
X32960Y84729D01*
X32969Y84775D01*
X32983Y84826D01*
X33003Y84880D01*
X33014Y84906D01*
X33029Y84933D01*
Y84935D01*
X33032Y84939D01*
X33038Y84948D01*
X33043Y84958D01*
X33052Y84971D01*
X33065Y84988D01*
X33078Y85006D01*
X33094Y85028D01*
X33114Y85051D01*
X33136Y85077D01*
X33162Y85104D01*
X33189Y85133D01*
X33220Y85166D01*
X33253Y85199D01*
X33291Y85235D01*
X33331Y85272D01*
X33333Y85273D01*
X33338Y85277D01*
X33345Y85284D01*
X33355Y85293D01*
X33367Y85304D01*
X33382Y85317D01*
X33413Y85346D01*
X33446Y85377D01*
X33478Y85410D01*
X33507Y85441D01*
X33518Y85455D01*
X33529Y85468D01*
X33531Y85472D01*
X33537Y85479D01*
X33546Y85492D01*
X33555Y85510D01*
X33566Y85532D01*
X33578Y85557D01*
X33589Y85585D01*
X33599Y85615D01*
Y85619D01*
X33600Y85625D01*
X33602Y85632D01*
X33604Y85639D01*
X33606Y85652D01*
X33608Y85665D01*
X33609Y85679D01*
X33611Y85697D01*
X33613Y85716D01*
X33617Y85738D01*
X33619Y85763D01*
Y85788D01*
X33620Y85817D01*
X33622Y85848D01*
Y85881D01*
X33919D01*
Y85879D01*
D02*
G37*
G36*
X101567Y50603D02*
X101595Y50601D01*
X101627Y50599D01*
X101664Y50594D01*
X101706Y50588D01*
X101753Y50581D01*
X101802Y50570D01*
X101853Y50557D01*
X101906Y50542D01*
X101959Y50523D01*
X102011Y50501D01*
X102066Y50475D01*
X102117Y50446D01*
X102166Y50411D01*
X102170Y50410D01*
X102177Y50402D01*
X102192Y50391D01*
X102208Y50375D01*
X102230Y50357D01*
X102253Y50331D01*
X102279Y50304D01*
X102308Y50271D01*
X102337Y50235D01*
X102368Y50195D01*
X102397Y50149D01*
X102426Y50102D01*
X102455Y50049D01*
X102481Y49993D01*
X102506Y49933D01*
X102526Y49869D01*
X102199Y49793D01*
X102197Y49796D01*
X102195Y49805D01*
X102190Y49818D01*
X102182Y49838D01*
X102173Y49860D01*
X102163Y49885D01*
X102148Y49915D01*
X102133Y49946D01*
X102117Y49978D01*
X102097Y50011D01*
X102077Y50044D01*
X102053Y50078D01*
X102028Y50109D01*
X102002Y50140D01*
X101973Y50168D01*
X101942Y50193D01*
X101940Y50195D01*
X101935Y50199D01*
X101926Y50204D01*
X101913Y50213D01*
X101897Y50222D01*
X101877Y50233D01*
X101853Y50244D01*
X101828Y50257D01*
X101798Y50268D01*
X101768Y50279D01*
X101733Y50289D01*
X101697Y50299D01*
X101656Y50308D01*
X101615Y50313D01*
X101571Y50317D01*
X101524Y50319D01*
X101496D01*
X101476Y50317D01*
X101451Y50315D01*
X101422Y50311D01*
X101389Y50308D01*
X101354Y50300D01*
X101316Y50293D01*
X101278Y50284D01*
X101238Y50273D01*
X101196Y50260D01*
X101156Y50244D01*
X101116Y50224D01*
X101076Y50204D01*
X101038Y50178D01*
X101036Y50177D01*
X101029Y50173D01*
X101020Y50164D01*
X101007Y50153D01*
X100990Y50138D01*
X100972Y50122D01*
X100952Y50102D01*
X100930Y50080D01*
X100909Y50055D01*
X100885Y50027D01*
X100863Y49997D01*
X100841Y49962D01*
X100819Y49927D01*
X100799Y49889D01*
X100781Y49849D01*
X100765Y49805D01*
Y49804D01*
X100761Y49795D01*
X100757Y49782D01*
X100752Y49765D01*
X100747Y49744D01*
X100739Y49718D01*
X100734Y49689D01*
X100726Y49656D01*
X100719Y49622D01*
X100712Y49583D01*
X100705Y49543D01*
X100699Y49501D01*
X100690Y49414D01*
X100688Y49369D01*
X100687Y49321D01*
Y49318D01*
Y49307D01*
Y49290D01*
X100688Y49267D01*
X100690Y49239D01*
X100692Y49207D01*
X100694Y49170D01*
X100697Y49132D01*
X100703Y49088D01*
X100708Y49043D01*
X100726Y48950D01*
X100736Y48901D01*
X100748Y48853D01*
X100763Y48806D01*
X100779Y48761D01*
X100781Y48759D01*
X100783Y48750D01*
X100788Y48739D01*
X100797Y48722D01*
X100807Y48702D01*
X100819Y48679D01*
X100834Y48653D01*
X100850Y48626D01*
X100870Y48599D01*
X100892Y48570D01*
X100916Y48539D01*
X100941Y48510D01*
X100970Y48480D01*
X101001Y48453D01*
X101034Y48428D01*
X101070Y48404D01*
X101072Y48402D01*
X101080Y48399D01*
X101091Y48393D01*
X101105Y48386D01*
X101123Y48377D01*
X101145Y48366D01*
X101171Y48357D01*
X101198Y48346D01*
X101229Y48333D01*
X101262Y48324D01*
X101298Y48313D01*
X101334Y48304D01*
X101374Y48297D01*
X101414Y48291D01*
X101456Y48287D01*
X101498Y48286D01*
X101511D01*
X101525Y48287D01*
X101546D01*
X101569Y48291D01*
X101596Y48295D01*
X101629Y48298D01*
X101662Y48306D01*
X101698Y48315D01*
X101737Y48326D01*
X101777Y48338D01*
X101817Y48353D01*
X101857Y48371D01*
X101897Y48393D01*
X101935Y48419D01*
X101973Y48446D01*
X101975Y48448D01*
X101982Y48453D01*
X101991Y48462D01*
X102004Y48477D01*
X102021Y48493D01*
X102039Y48513D01*
X102059Y48539D01*
X102079Y48566D01*
X102101Y48599D01*
X102122Y48633D01*
X102146Y48673D01*
X102166Y48717D01*
X102188Y48763D01*
X102206Y48814D01*
X102223Y48866D01*
X102237Y48924D01*
X102570Y48841D01*
Y48839D01*
X102568Y48835D01*
X102567Y48830D01*
X102565Y48823D01*
X102563Y48814D01*
X102559Y48801D01*
X102550Y48774D01*
X102537Y48739D01*
X102523Y48701D01*
X102505Y48657D01*
X102483Y48610D01*
X102459Y48559D01*
X102432Y48508D01*
X102401Y48457D01*
X102366Y48404D01*
X102328Y48353D01*
X102286Y48304D01*
X102241Y48258D01*
X102192Y48215D01*
X102188Y48213D01*
X102179Y48206D01*
X102164Y48195D01*
X102142Y48182D01*
X102117Y48166D01*
X102084Y48147D01*
X102048Y48127D01*
X102006Y48107D01*
X101961Y48087D01*
X101909Y48067D01*
X101855Y48049D01*
X101797Y48033D01*
X101733Y48020D01*
X101667Y48009D01*
X101598Y48002D01*
X101525Y48000D01*
X101498D01*
X101485Y48002D01*
X101458D01*
X101424Y48005D01*
X101383Y48009D01*
X101338Y48015D01*
X101291Y48020D01*
X101238Y48029D01*
X101185Y48040D01*
X101129Y48055D01*
X101074Y48069D01*
X101020Y48089D01*
X100965Y48111D01*
X100912Y48136D01*
X100863Y48166D01*
X100859Y48167D01*
X100852Y48173D01*
X100839Y48184D01*
X100821Y48197D01*
X100799Y48213D01*
X100776Y48235D01*
X100748Y48258D01*
X100719Y48287D01*
X100688Y48320D01*
X100657Y48355D01*
X100625Y48395D01*
X100592Y48437D01*
X100561Y48484D01*
X100530Y48533D01*
X100501Y48588D01*
X100475Y48644D01*
Y48646D01*
X100473Y48648D01*
X100470Y48659D01*
X100463Y48675D01*
X100455Y48699D01*
X100444Y48728D01*
X100434Y48763D01*
X100421Y48803D01*
X100410Y48846D01*
X100397Y48895D01*
X100384Y48948D01*
X100373Y49003D01*
X100363Y49063D01*
X100355Y49123D01*
X100348Y49187D01*
X100344Y49252D01*
X100343Y49319D01*
Y49321D01*
Y49325D01*
Y49330D01*
Y49338D01*
Y49347D01*
X100344Y49358D01*
Y49385D01*
X100348Y49420D01*
X100350Y49460D01*
X100355Y49505D01*
X100361Y49554D01*
X100370Y49605D01*
X100379Y49660D01*
X100392Y49718D01*
X100406Y49776D01*
X100423Y49834D01*
X100443Y49893D01*
X100466Y49949D01*
X100492Y50006D01*
X100494Y50009D01*
X100499Y50018D01*
X100508Y50033D01*
X100519Y50055D01*
X100535Y50078D01*
X100554Y50106D01*
X100577Y50138D01*
X100603Y50171D01*
X100630Y50206D01*
X100663Y50244D01*
X100697Y50280D01*
X100736Y50317D01*
X100777Y50353D01*
X100821Y50388D01*
X100868Y50420D01*
X100919Y50451D01*
X100923Y50453D01*
X100932Y50459D01*
X100947Y50466D01*
X100969Y50475D01*
X100994Y50488D01*
X101025Y50501D01*
X101061Y50513D01*
X101100Y50528D01*
X101143Y50542D01*
X101191Y50555D01*
X101242Y50570D01*
X101294Y50581D01*
X101351Y50590D01*
X101409Y50597D01*
X101469Y50603D01*
X101531Y50604D01*
X101556D01*
X101567Y50603D01*
D02*
G37*
G36*
X104406Y50233D02*
X103398D01*
X103264Y49554D01*
X103265Y49556D01*
X103275Y49562D01*
X103285Y49569D01*
X103304Y49580D01*
X103324Y49591D01*
X103347Y49605D01*
X103376Y49618D01*
X103407Y49634D01*
X103442Y49649D01*
X103478Y49663D01*
X103518Y49676D01*
X103558Y49687D01*
X103602Y49698D01*
X103646Y49705D01*
X103693Y49711D01*
X103739Y49713D01*
X103753D01*
X103771Y49711D01*
X103793Y49709D01*
X103822Y49705D01*
X103855Y49700D01*
X103893Y49692D01*
X103933Y49683D01*
X103975Y49672D01*
X104021Y49656D01*
X104066Y49638D01*
X104113Y49616D01*
X104161Y49589D01*
X104208Y49560D01*
X104254Y49523D01*
X104297Y49483D01*
X104299Y49481D01*
X104306Y49472D01*
X104319Y49460D01*
X104334Y49441D01*
X104350Y49420D01*
X104370Y49392D01*
X104390Y49360D01*
X104412Y49323D01*
X104432Y49283D01*
X104452Y49239D01*
X104472Y49190D01*
X104490Y49139D01*
X104503Y49083D01*
X104516Y49023D01*
X104523Y48961D01*
X104525Y48895D01*
Y48894D01*
Y48892D01*
Y48886D01*
Y48881D01*
X104523Y48863D01*
X104521Y48839D01*
X104519Y48808D01*
X104514Y48774D01*
X104508Y48735D01*
X104499Y48693D01*
X104488Y48648D01*
X104476Y48601D01*
X104459Y48551D01*
X104441Y48502D01*
X104418Y48451D01*
X104390Y48402D01*
X104359Y48353D01*
X104325Y48306D01*
X104321Y48302D01*
X104314Y48293D01*
X104299Y48278D01*
X104281Y48258D01*
X104255Y48235D01*
X104226Y48209D01*
X104192Y48182D01*
X104152Y48153D01*
X104106Y48124D01*
X104057Y48096D01*
X104002Y48071D01*
X103942Y48047D01*
X103879Y48029D01*
X103811Y48013D01*
X103739Y48004D01*
X103662Y48000D01*
X103648D01*
X103629Y48002D01*
X103606Y48004D01*
X103577Y48005D01*
X103542Y48011D01*
X103504Y48016D01*
X103464Y48024D01*
X103420Y48035D01*
X103375Y48047D01*
X103327Y48062D01*
X103280Y48080D01*
X103234Y48102D01*
X103187Y48127D01*
X103144Y48158D01*
X103102Y48191D01*
X103100Y48193D01*
X103093Y48200D01*
X103082Y48211D01*
X103067Y48226D01*
X103051Y48246D01*
X103031Y48269D01*
X103011Y48297D01*
X102989Y48328D01*
X102967Y48362D01*
X102947Y48400D01*
X102925Y48442D01*
X102905Y48488D01*
X102889Y48537D01*
X102874Y48590D01*
X102861Y48644D01*
X102854Y48702D01*
X103178Y48730D01*
Y48728D01*
X103180Y48719D01*
X103182Y48708D01*
X103185Y48692D01*
X103191Y48671D01*
X103196Y48648D01*
X103203Y48622D01*
X103213Y48595D01*
X103234Y48539D01*
X103247Y48508D01*
X103262Y48479D01*
X103280Y48450D01*
X103298Y48422D01*
X103320Y48397D01*
X103344Y48373D01*
X103346Y48371D01*
X103349Y48368D01*
X103356Y48362D01*
X103367Y48355D01*
X103380Y48346D01*
X103396Y48335D01*
X103413Y48326D01*
X103433Y48315D01*
X103455Y48302D01*
X103480Y48293D01*
X103506Y48282D01*
X103535Y48273D01*
X103564Y48266D01*
X103595Y48260D01*
X103628Y48257D01*
X103662Y48255D01*
X103673D01*
X103684Y48257D01*
X103700D01*
X103719Y48260D01*
X103742Y48264D01*
X103768Y48269D01*
X103795Y48277D01*
X103824Y48284D01*
X103855Y48295D01*
X103886Y48309D01*
X103919Y48326D01*
X103950Y48344D01*
X103982Y48368D01*
X104013Y48393D01*
X104042Y48422D01*
X104044Y48424D01*
X104050Y48430D01*
X104057Y48440D01*
X104066Y48453D01*
X104079Y48469D01*
X104092Y48489D01*
X104106Y48513D01*
X104121Y48540D01*
X104133Y48571D01*
X104148Y48604D01*
X104161Y48641D01*
X104174Y48681D01*
X104183Y48724D01*
X104190Y48770D01*
X104195Y48817D01*
X104197Y48868D01*
Y48872D01*
Y48879D01*
X104195Y48894D01*
Y48912D01*
X104194Y48934D01*
X104190Y48961D01*
X104184Y48988D01*
X104179Y49021D01*
X104170Y49054D01*
X104161Y49086D01*
X104148Y49121D01*
X104133Y49158D01*
X104117Y49192D01*
X104097Y49225D01*
X104074Y49258D01*
X104048Y49287D01*
X104046Y49288D01*
X104041Y49294D01*
X104033Y49301D01*
X104021Y49310D01*
X104006Y49323D01*
X103988Y49336D01*
X103968Y49349D01*
X103944Y49363D01*
X103917Y49378D01*
X103888Y49390D01*
X103857Y49405D01*
X103822Y49416D01*
X103784Y49425D01*
X103744Y49432D01*
X103702Y49438D01*
X103658Y49440D01*
X103644D01*
X103633Y49438D01*
X103620D01*
X103604Y49436D01*
X103587Y49434D01*
X103568Y49431D01*
X103526Y49423D01*
X103480Y49410D01*
X103433Y49394D01*
X103387Y49370D01*
X103385D01*
X103382Y49367D01*
X103376Y49363D01*
X103367Y49358D01*
X103346Y49343D01*
X103318Y49323D01*
X103289Y49298D01*
X103258Y49268D01*
X103227Y49234D01*
X103200Y49196D01*
X102909Y49234D01*
X103153Y50528D01*
X104406D01*
Y50233D01*
D02*
G37*
G36*
X13958Y181159D02*
X11989D01*
X11991Y181157D01*
X11994Y181154D01*
X12000Y181148D01*
X12007Y181139D01*
X12016Y181128D01*
X12029Y181114D01*
X12042Y181097D01*
X12056Y181081D01*
X12071Y181059D01*
X12089Y181037D01*
X12105Y181013D01*
X12125Y180988D01*
X12144Y180959D01*
X12164Y180930D01*
X12204Y180864D01*
X12206Y180862D01*
X12209Y180857D01*
X12215Y180846D01*
X12220Y180833D01*
X12229Y180819D01*
X12240Y180800D01*
X12251Y180779D01*
X12264Y180757D01*
X12289Y180706D01*
X12315Y180651D01*
X12340Y180595D01*
X12362Y180540D01*
X12064D01*
X12062Y180544D01*
X12058Y180551D01*
X12051Y180566D01*
X12042Y180584D01*
X12031Y180606D01*
X12016Y180633D01*
X12000Y180662D01*
X11982Y180693D01*
X11960Y180728D01*
X11938Y180764D01*
X11887Y180841D01*
X11831Y180919D01*
X11769Y180993D01*
X11767Y180995D01*
X11761Y181002D01*
X11752Y181012D01*
X11740Y181024D01*
X11723Y181041D01*
X11705Y181059D01*
X11683Y181079D01*
X11661Y181101D01*
X11636Y181123D01*
X11609Y181146D01*
X11552Y181192D01*
X11492Y181234D01*
X11461Y181252D01*
X11430Y181268D01*
Y181468D01*
X13958D01*
Y181159D01*
D02*
G37*
G36*
X13208Y179883D02*
X13234D01*
X13265Y179881D01*
X13299Y179878D01*
X13336Y179876D01*
X13374Y179870D01*
X13414Y179867D01*
X13496Y179852D01*
X13536Y179843D01*
X13574Y179832D01*
X13611Y179821D01*
X13645Y179807D01*
X13647D01*
X13652Y179803D01*
X13661Y179799D01*
X13674Y179792D01*
X13689Y179785D01*
X13705Y179774D01*
X13723Y179761D01*
X13743Y179748D01*
X13763Y179732D01*
X13785Y179714D01*
X13807Y179694D01*
X13829Y179672D01*
X13851Y179648D01*
X13871Y179623D01*
X13891Y179596D01*
X13909Y179565D01*
X13911Y179563D01*
X13913Y179557D01*
X13918Y179548D01*
X13924Y179535D01*
X13931Y179519D01*
X13938Y179501D01*
X13945Y179479D01*
X13954Y179454D01*
X13964Y179426D01*
X13971Y179397D01*
X13978Y179365D01*
X13985Y179332D01*
X13991Y179295D01*
X13996Y179257D01*
X13998Y179219D01*
X14000Y179177D01*
Y179162D01*
X13998Y179146D01*
X13996Y179122D01*
X13995Y179095D01*
X13989Y179062D01*
X13984Y179026D01*
X13976Y178988D01*
X13965Y178948D01*
X13954Y178906D01*
X13938Y178864D01*
X13920Y178822D01*
X13898Y178780D01*
X13873Y178740D01*
X13844Y178702D01*
X13811Y178667D01*
X13809Y178666D01*
X13802Y178660D01*
X13791Y178651D01*
X13774Y178640D01*
X13754Y178627D01*
X13731Y178613D01*
X13702Y178596D01*
X13669Y178582D01*
X13631Y178566D01*
X13589Y178549D01*
X13541Y178536D01*
X13490Y178524D01*
X13436Y178513D01*
X13376Y178505D01*
X13312Y178500D01*
X13245D01*
X13203Y178800D01*
X13206D01*
X13216D01*
X13230Y178802D01*
X13250Y178804D01*
X13274Y178806D01*
X13299Y178809D01*
X13329Y178813D01*
X13361Y178819D01*
X13427Y178831D01*
X13492Y178849D01*
X13521Y178862D01*
X13551Y178875D01*
X13576Y178891D01*
X13598Y178908D01*
X13600Y178909D01*
X13601Y178911D01*
X13607Y178919D01*
X13614Y178926D01*
X13622Y178935D01*
X13631Y178948D01*
X13642Y178960D01*
X13651Y178977D01*
X13660Y178995D01*
X13671Y179015D01*
X13680Y179037D01*
X13687Y179060D01*
X13694Y179088D01*
X13698Y179115D01*
X13702Y179144D01*
X13703Y179175D01*
Y179188D01*
X13702Y179197D01*
Y179208D01*
X13700Y179221D01*
X13696Y179250D01*
X13689Y179282D01*
X13680Y179319D01*
X13665Y179357D01*
X13647Y179392D01*
Y179394D01*
X13643Y179395D01*
X13636Y179406D01*
X13623Y179423D01*
X13605Y179441D01*
X13583Y179463D01*
X13556Y179483D01*
X13525Y179503D01*
X13490Y179517D01*
X13489D01*
X13485Y179519D01*
X13479Y179521D01*
X13472Y179523D01*
X13461Y179525D01*
X13449Y179528D01*
X13432Y179532D01*
X13414Y179535D01*
X13394Y179537D01*
X13370Y179541D01*
X13345Y179545D01*
X13316Y179546D01*
X13285Y179548D01*
X13252Y179550D01*
X13216Y179552D01*
X13176D01*
X11439D01*
Y179885D01*
X13156D01*
X13159D01*
X13170D01*
X13186D01*
X13208Y179883D01*
D02*
G37*
G36*
X289526Y193603D02*
X289550D01*
X289579Y193599D01*
X289610Y193597D01*
X289647Y193594D01*
X289683Y193588D01*
X289723Y193582D01*
X289805Y193566D01*
X289849Y193555D01*
X289890Y193544D01*
X289932Y193530D01*
X289972Y193513D01*
X289974Y193512D01*
X289981Y193510D01*
X289992Y193504D01*
X290007Y193497D01*
X290025Y193488D01*
X290045Y193475D01*
X290069Y193462D01*
X290092Y193446D01*
X290120Y193430D01*
X290145Y193410D01*
X290173Y193388D01*
X290200Y193364D01*
X290227Y193339D01*
X290253Y193309D01*
X290278Y193280D01*
X290300Y193248D01*
X290302Y193246D01*
X290305Y193240D01*
X290311Y193229D01*
X290318Y193217D01*
X290327Y193200D01*
X290338Y193180D01*
X290347Y193158D01*
X290360Y193133D01*
X290371Y193106D01*
X290382Y193075D01*
X290393Y193042D01*
X290402Y193007D01*
X290411Y192971D01*
X290418Y192933D01*
X290422Y192893D01*
X290425Y192853D01*
X290105Y192829D01*
Y192833D01*
X290103Y192840D01*
X290102Y192853D01*
X290098Y192869D01*
X290094Y192887D01*
X290089Y192911D01*
X290082Y192936D01*
X290072Y192964D01*
X290063Y192993D01*
X290051Y193022D01*
X290036Y193051D01*
X290020Y193082D01*
X290002Y193111D01*
X289980Y193138D01*
X289956Y193166D01*
X289931Y193189D01*
X289929Y193191D01*
X289923Y193195D01*
X289916Y193200D01*
X289903Y193209D01*
X289887Y193219D01*
X289869Y193228D01*
X289847Y193239D01*
X289821Y193251D01*
X289792Y193262D01*
X289759Y193273D01*
X289723Y193282D01*
X289685Y193293D01*
X289641Y193300D01*
X289596Y193306D01*
X289546Y193309D01*
X289494Y193311D01*
X289465D01*
X289444Y193309D01*
X289419Y193308D01*
X289392Y193306D01*
X289359Y193302D01*
X289326Y193297D01*
X289253Y193284D01*
X289217Y193275D01*
X289181Y193264D01*
X289146Y193251D01*
X289111Y193237D01*
X289081Y193220D01*
X289053Y193200D01*
X289051Y193199D01*
X289048Y193195D01*
X289040Y193189D01*
X289031Y193180D01*
X289022Y193169D01*
X289009Y193157D01*
X288999Y193142D01*
X288986Y193126D01*
X288973Y193107D01*
X288960Y193086D01*
X288939Y193040D01*
X288930Y193017D01*
X288922Y192989D01*
X288919Y192962D01*
X288917Y192933D01*
Y192931D01*
Y192927D01*
Y192920D01*
X288919Y192911D01*
X288920Y192898D01*
X288922Y192885D01*
X288930Y192854D01*
X288940Y192818D01*
X288957Y192782D01*
X288968Y192762D01*
X288982Y192744D01*
X288997Y192725D01*
X289013Y192709D01*
X289015Y192707D01*
X289019Y192705D01*
X289024Y192700D01*
X289035Y192694D01*
X289048Y192685D01*
X289066Y192676D01*
X289086Y192665D01*
X289111Y192652D01*
X289142Y192640D01*
X289177Y192625D01*
X289219Y192611D01*
X289264Y192594D01*
X289317Y192578D01*
X289375Y192561D01*
X289441Y192545D01*
X289514Y192527D01*
X289515D01*
X289519Y192525D01*
X289525D01*
X289532Y192523D01*
X289541Y192522D01*
X289552Y192518D01*
X289579Y192512D01*
X289612Y192503D01*
X289650Y192494D01*
X289692Y192485D01*
X289736Y192472D01*
X289828Y192449D01*
X289874Y192436D01*
X289919Y192421D01*
X289963Y192409D01*
X290003Y192394D01*
X290040Y192381D01*
X290071Y192369D01*
X290072Y192367D01*
X290080Y192363D01*
X290092Y192358D01*
X290107Y192350D01*
X290125Y192340D01*
X290145Y192329D01*
X290169Y192314D01*
X290194Y192298D01*
X290220Y192281D01*
X290247Y192261D01*
X290302Y192218D01*
X290353Y192167D01*
X290374Y192139D01*
X290396Y192110D01*
X290398Y192108D01*
X290402Y192103D01*
X290406Y192094D01*
X290413Y192083D01*
X290420Y192068D01*
X290429Y192050D01*
X290440Y192030D01*
X290449Y192008D01*
X290458Y191983D01*
X290469Y191955D01*
X290478Y191926D01*
X290486Y191894D01*
X290493Y191861D01*
X290498Y191826D01*
X290500Y191792D01*
X290502Y191753D01*
Y191752D01*
Y191744D01*
Y191733D01*
X290500Y191719D01*
X290498Y191701D01*
X290496Y191681D01*
X290493Y191657D01*
X290487Y191630D01*
X290482Y191602D01*
X290473Y191571D01*
X290464Y191541D01*
X290453Y191508D01*
X290440Y191475D01*
X290424Y191440D01*
X290406Y191408D01*
X290386Y191373D01*
X290384Y191371D01*
X290380Y191366D01*
X290373Y191357D01*
X290364Y191344D01*
X290353Y191329D01*
X290338Y191311D01*
X290322Y191293D01*
X290302Y191273D01*
X290280Y191251D01*
X290254Y191229D01*
X290227Y191206D01*
X290198Y191182D01*
X290167Y191160D01*
X290132Y191138D01*
X290096Y191118D01*
X290056Y191098D01*
X290054Y191096D01*
X290047Y191095D01*
X290034Y191089D01*
X290018Y191084D01*
X289998Y191076D01*
X289974Y191067D01*
X289947Y191058D01*
X289916Y191049D01*
X289881Y191040D01*
X289843Y191031D01*
X289803Y191024D01*
X289761Y191015D01*
X289718Y191009D01*
X289670Y191004D01*
X289621Y191002D01*
X289572Y191000D01*
X289539D01*
X289515Y191002D01*
X289486Y191004D01*
X289452Y191005D01*
X289414Y191009D01*
X289372Y191013D01*
X289328Y191018D01*
X289282Y191024D01*
X289186Y191042D01*
X289137Y191053D01*
X289090Y191066D01*
X289042Y191082D01*
X288999Y191098D01*
X288997Y191100D01*
X288988Y191104D01*
X288977Y191109D01*
X288960Y191116D01*
X288940Y191127D01*
X288919Y191140D01*
X288893Y191156D01*
X288868Y191173D01*
X288839Y191193D01*
X288809Y191215D01*
X288778Y191240D01*
X288749Y191268D01*
X288718Y191297D01*
X288689Y191328D01*
X288662Y191362D01*
X288636Y191399D01*
X288635Y191400D01*
X288631Y191408D01*
X288624Y191419D01*
X288616Y191433D01*
X288605Y191453D01*
X288595Y191475D01*
X288582Y191500D01*
X288571Y191530D01*
X288558Y191562D01*
X288545Y191597D01*
X288534Y191635D01*
X288524Y191673D01*
X288514Y191715D01*
X288507Y191759D01*
X288502Y191804D01*
X288500Y191852D01*
X288815Y191879D01*
Y191877D01*
X288817Y191870D01*
Y191861D01*
X288820Y191848D01*
X288822Y191832D01*
X288826Y191812D01*
X288831Y191792D01*
X288837Y191768D01*
X288849Y191719D01*
X288868Y191666D01*
X288889Y191615D01*
X288917Y191566D01*
X288919Y191564D01*
X288920Y191560D01*
X288926Y191555D01*
X288933Y191546D01*
X288940Y191535D01*
X288951Y191524D01*
X288964Y191511D01*
X288979Y191497D01*
X288995Y191482D01*
X289015Y191466D01*
X289035Y191449D01*
X289059Y191433D01*
X289082Y191417D01*
X289110Y191400D01*
X289139Y191386D01*
X289170Y191371D01*
X289172D01*
X289177Y191368D01*
X289188Y191364D01*
X289201Y191360D01*
X289217Y191355D01*
X289235Y191348D01*
X289259Y191340D01*
X289282Y191335D01*
X289310Y191328D01*
X289341Y191320D01*
X289372Y191315D01*
X289406Y191307D01*
X289479Y191300D01*
X289557Y191297D01*
X289576D01*
X289590Y191298D01*
X289606D01*
X289625Y191300D01*
X289647Y191302D01*
X289670Y191304D01*
X289723Y191311D01*
X289779Y191320D01*
X289836Y191335D01*
X289892Y191353D01*
X289894D01*
X289899Y191355D01*
X289907Y191358D01*
X289916Y191364D01*
X289929Y191369D01*
X289941Y191377D01*
X289974Y191393D01*
X290009Y191415D01*
X290045Y191442D01*
X290080Y191473D01*
X290109Y191508D01*
Y191509D01*
X290112Y191513D01*
X290116Y191519D01*
X290120Y191526D01*
X290125Y191535D01*
X290132Y191546D01*
X290145Y191573D01*
X290158Y191604D01*
X290171Y191641D01*
X290178Y191682D01*
X290182Y191724D01*
Y191726D01*
Y191730D01*
Y191735D01*
X290180Y191744D01*
Y191755D01*
X290178Y191766D01*
X290173Y191795D01*
X290165Y191826D01*
X290153Y191861D01*
X290134Y191895D01*
X290111Y191930D01*
Y191932D01*
X290107Y191934D01*
X290098Y191945D01*
X290080Y191961D01*
X290069Y191972D01*
X290056Y191983D01*
X290041Y191994D01*
X290025Y192006D01*
X290007Y192019D01*
X289985Y192032D01*
X289963Y192045D01*
X289938Y192057D01*
X289912Y192068D01*
X289883Y192081D01*
X289881D01*
X289878Y192083D01*
X289872Y192085D01*
X289861Y192088D01*
X289849Y192092D01*
X289834Y192097D01*
X289814Y192103D01*
X289790Y192110D01*
X289761Y192119D01*
X289730Y192128D01*
X289694Y192137D01*
X289652Y192148D01*
X289606Y192161D01*
X289554Y192174D01*
X289497Y192188D01*
X289435Y192203D01*
X289434D01*
X289432Y192205D01*
X289426D01*
X289421Y192207D01*
X289403Y192212D01*
X289379Y192218D01*
X289352Y192225D01*
X289319Y192234D01*
X289282Y192243D01*
X289246Y192254D01*
X289166Y192278D01*
X289086Y192305D01*
X289048Y192320D01*
X289011Y192334D01*
X288980Y192347D01*
X288951Y192361D01*
X288949Y192363D01*
X288944Y192365D01*
X288935Y192370D01*
X288922Y192378D01*
X288908Y192387D01*
X288889Y192400D01*
X288871Y192412D01*
X288849Y192427D01*
X288806Y192460D01*
X288762Y192500D01*
X288718Y192545D01*
X288700Y192571D01*
X288682Y192596D01*
X288680Y192598D01*
X288678Y192603D01*
X288675Y192611D01*
X288669Y192622D01*
X288662Y192634D01*
X288655Y192649D01*
X288647Y192667D01*
X288638Y192687D01*
X288631Y192711D01*
X288622Y192734D01*
X288609Y192787D01*
X288598Y192845D01*
X288596Y192876D01*
X288595Y192909D01*
Y192911D01*
Y192918D01*
Y192927D01*
X288596Y192942D01*
X288598Y192958D01*
X288600Y192978D01*
X288604Y193000D01*
X288607Y193026D01*
X288615Y193053D01*
X288620Y193080D01*
X288629Y193109D01*
X288640Y193140D01*
X288653Y193171D01*
X288667Y193202D01*
X288684Y193235D01*
X288702Y193266D01*
X288704Y193268D01*
X288707Y193273D01*
X288713Y193282D01*
X288722Y193293D01*
X288733Y193308D01*
X288748Y193322D01*
X288764Y193341D01*
X288782Y193359D01*
X288802Y193379D01*
X288826Y193401D01*
X288851Y193421D01*
X288880Y193442D01*
X288911Y193462D01*
X288944Y193482D01*
X288979Y193501D01*
X289017Y193517D01*
X289019Y193519D01*
X289026Y193521D01*
X289037Y193524D01*
X289053Y193532D01*
X289073Y193537D01*
X289095Y193544D01*
X289122Y193553D01*
X289153Y193561D01*
X289186Y193570D01*
X289221Y193577D01*
X289259Y193584D01*
X289299Y193592D01*
X289343Y193597D01*
X289386Y193601D01*
X289432Y193603D01*
X289479Y193604D01*
X289506D01*
X289526Y193603D01*
D02*
G37*
G36*
X293276Y191042D02*
X292952D01*
X292426Y192960D01*
Y192964D01*
X292422Y192971D01*
X292418Y192982D01*
X292415Y192998D01*
X292409Y193018D01*
X292404Y193038D01*
X292397Y193062D01*
X292389Y193087D01*
X292375Y193138D01*
X292369Y193162D01*
X292362Y193186D01*
X292356Y193208D01*
X292351Y193226D01*
X292347Y193242D01*
X292344Y193255D01*
Y193253D01*
X292342Y193248D01*
X292340Y193239D01*
X292337Y193226D01*
X292333Y193211D01*
X292329Y193193D01*
X292324Y193175D01*
X292318Y193153D01*
X292307Y193107D01*
X292295Y193058D01*
X292282Y193007D01*
X292269Y192960D01*
X291740Y191042D01*
X291394D01*
X290729Y193561D01*
X291070D01*
X291452Y191908D01*
Y191904D01*
X291456Y191897D01*
X291458Y191883D01*
X291463Y191865D01*
X291468Y191841D01*
X291474Y191814D01*
X291481Y191781D01*
X291488Y191746D01*
X291497Y191710D01*
X291505Y191670D01*
X291514Y191626D01*
X291523Y191582D01*
X291541Y191490D01*
X291559Y191393D01*
Y191395D01*
X291561Y191399D01*
Y191404D01*
X291563Y191411D01*
X291567Y191420D01*
X291568Y191431D01*
X291574Y191457D01*
X291583Y191490D01*
X291590Y191524D01*
X291599Y191562D01*
X291610Y191602D01*
X291630Y191684D01*
X291639Y191724D01*
X291649Y191761D01*
X291658Y191794D01*
X291663Y191821D01*
X291670Y191844D01*
X291672Y191852D01*
X291674Y191859D01*
X292151Y193561D01*
X292553D01*
X292914Y192285D01*
Y192283D01*
X292915Y192279D01*
X292917Y192272D01*
X292919Y192263D01*
X292923Y192252D01*
X292926Y192238D01*
X292930Y192223D01*
X292935Y192205D01*
X292941Y192185D01*
X292946Y192163D01*
X292959Y192112D01*
X292973Y192057D01*
X292988Y191996D01*
X293004Y191928D01*
X293021Y191859D01*
X293037Y191784D01*
X293054Y191708D01*
X293085Y191551D01*
X293110Y191393D01*
Y191397D01*
X293112Y191404D01*
X293115Y191417D01*
X293119Y191435D01*
X293125Y191459D01*
X293130Y191484D01*
X293137Y191517D01*
X293145Y191551D01*
X293154Y191590D01*
X293163Y191631D01*
X293172Y191677D01*
X293185Y191724D01*
X293196Y191775D01*
X293208Y191828D01*
X293221Y191885D01*
X293236Y191941D01*
X293631Y193561D01*
X293967D01*
X293276Y191042D01*
D02*
G37*
G36*
X295316D02*
X295006D01*
Y193011D01*
X295005Y193009D01*
X295001Y193006D01*
X294995Y193000D01*
X294986Y192993D01*
X294975Y192984D01*
X294961Y192971D01*
X294945Y192958D01*
X294928Y192944D01*
X294906Y192929D01*
X294884Y192911D01*
X294861Y192895D01*
X294835Y192875D01*
X294806Y192856D01*
X294777Y192836D01*
X294712Y192796D01*
X294710Y192795D01*
X294704Y192791D01*
X294693Y192785D01*
X294681Y192780D01*
X294666Y192771D01*
X294648Y192760D01*
X294626Y192749D01*
X294604Y192736D01*
X294553Y192711D01*
X294499Y192685D01*
X294442Y192660D01*
X294388Y192638D01*
Y192936D01*
X294391Y192938D01*
X294399Y192942D01*
X294413Y192949D01*
X294431Y192958D01*
X294453Y192969D01*
X294480Y192984D01*
X294510Y193000D01*
X294541Y193018D01*
X294575Y193040D01*
X294612Y193062D01*
X294688Y193113D01*
X294766Y193169D01*
X294841Y193231D01*
X294843Y193233D01*
X294850Y193239D01*
X294859Y193248D01*
X294872Y193260D01*
X294888Y193277D01*
X294906Y193295D01*
X294926Y193317D01*
X294948Y193339D01*
X294970Y193364D01*
X294994Y193391D01*
X295039Y193448D01*
X295081Y193508D01*
X295099Y193539D01*
X295116Y193570D01*
X295316D01*
Y191042D01*
D02*
G37*
G36*
X13458Y141765D02*
X13456D01*
X13453D01*
X13447D01*
X13440D01*
X13429D01*
X13418Y141767D01*
X13389Y141769D01*
X13358Y141773D01*
X13322Y141778D01*
X13283Y141787D01*
X13245Y141800D01*
X13243D01*
X13238Y141804D01*
X13229Y141807D01*
X13216Y141813D01*
X13200Y141818D01*
X13182Y141827D01*
X13161Y141838D01*
X13140Y141849D01*
X13114Y141862D01*
X13089Y141878D01*
X13032Y141913D01*
X12972Y141955D01*
X12910Y142004D01*
X12909Y142006D01*
X12903Y142011D01*
X12894Y142018D01*
X12881Y142029D01*
X12865Y142044D01*
X12847Y142062D01*
X12825Y142082D01*
X12801Y142107D01*
X12774Y142135D01*
X12745Y142164D01*
X12714Y142197D01*
X12679Y142233D01*
X12645Y142273D01*
X12608Y142315D01*
X12570Y142360D01*
X12530Y142408D01*
X12528Y142410D01*
X12526Y142413D01*
X12521Y142419D01*
X12515Y142426D01*
X12506Y142435D01*
X12497Y142446D01*
X12474Y142473D01*
X12446Y142508D01*
X12412Y142544D01*
X12375Y142586D01*
X12335Y142630D01*
X12293Y142677D01*
X12250Y142723D01*
X12206Y142770D01*
X12161Y142814D01*
X12117Y142857D01*
X12075Y142896D01*
X12033Y142932D01*
X11995Y142961D01*
X11993Y142963D01*
X11986Y142967D01*
X11975Y142974D01*
X11962Y142985D01*
X11944Y142996D01*
X11924Y143007D01*
X11900Y143021D01*
X11875Y143034D01*
X11847Y143047D01*
X11818Y143061D01*
X11755Y143085D01*
X11722Y143094D01*
X11689Y143101D01*
X11656Y143105D01*
X11624Y143107D01*
X11622D01*
X11614D01*
X11605D01*
X11593Y143105D01*
X11576Y143103D01*
X11558Y143099D01*
X11538Y143096D01*
X11516Y143090D01*
X11493Y143083D01*
X11467Y143074D01*
X11442Y143063D01*
X11416Y143050D01*
X11389Y143036D01*
X11363Y143017D01*
X11338Y142998D01*
X11314Y142974D01*
X11312Y142972D01*
X11309Y142968D01*
X11303Y142961D01*
X11294Y142950D01*
X11285Y142937D01*
X11274Y142921D01*
X11261Y142903D01*
X11250Y142883D01*
X11238Y142859D01*
X11227Y142834D01*
X11216Y142805D01*
X11207Y142775D01*
X11198Y142743D01*
X11192Y142708D01*
X11189Y142672D01*
X11187Y142633D01*
Y142612D01*
X11189Y142597D01*
X11190Y142577D01*
X11194Y142555D01*
X11198Y142532D01*
X11203Y142504D01*
X11210Y142477D01*
X11220Y142448D01*
X11231Y142419D01*
X11243Y142388D01*
X11260Y142359D01*
X11278Y142330D01*
X11298Y142300D01*
X11321Y142275D01*
X11323Y142273D01*
X11327Y142270D01*
X11336Y142262D01*
X11345Y142255D01*
X11360Y142244D01*
X11376Y142233D01*
X11396Y142220D01*
X11418Y142209D01*
X11442Y142197D01*
X11471Y142184D01*
X11500Y142173D01*
X11533Y142162D01*
X11569Y142155D01*
X11607Y142148D01*
X11647Y142144D01*
X11691Y142142D01*
X11658Y141824D01*
X11656D01*
X11655D01*
X11649Y141825D01*
X11642D01*
X11624Y141827D01*
X11600Y141833D01*
X11571Y141838D01*
X11536Y141845D01*
X11498Y141855D01*
X11458Y141866D01*
X11414Y141880D01*
X11371Y141896D01*
X11325Y141916D01*
X11280Y141940D01*
X11236Y141966D01*
X11194Y141997D01*
X11154Y142029D01*
X11118Y142068D01*
X11116Y142069D01*
X11110Y142077D01*
X11100Y142089D01*
X11089Y142106D01*
X11074Y142128D01*
X11058Y142153D01*
X11041Y142184D01*
X11023Y142218D01*
X11007Y142259D01*
X10990Y142300D01*
X10974Y142348D01*
X10959Y142399D01*
X10947Y142453D01*
X10938Y142512D01*
X10932Y142573D01*
X10930Y142639D01*
Y142655D01*
X10932Y142674D01*
X10934Y142699D01*
X10936Y142730D01*
X10941Y142764D01*
X10947Y142805D01*
X10956Y142846D01*
X10967Y142892D01*
X10979Y142937D01*
X10996Y142987D01*
X11016Y143034D01*
X11039Y143081D01*
X11065Y143127D01*
X11096Y143170D01*
X11132Y143212D01*
X11134Y143214D01*
X11141Y143221D01*
X11152Y143232D01*
X11169Y143245D01*
X11187Y143261D01*
X11210Y143280D01*
X11238Y143300D01*
X11269Y143320D01*
X11303Y143338D01*
X11342Y143358D01*
X11383Y143376D01*
X11427Y143392D01*
X11474Y143405D01*
X11524Y143416D01*
X11576Y143423D01*
X11631Y143425D01*
X11633D01*
X11638D01*
X11645D01*
X11656D01*
X11671Y143423D01*
X11686Y143422D01*
X11704Y143420D01*
X11724Y143418D01*
X11769Y143411D01*
X11820Y143400D01*
X11873Y143383D01*
X11928Y143363D01*
X11929D01*
X11935Y143360D01*
X11942Y143356D01*
X11953Y143351D01*
X11966Y143345D01*
X11982Y143336D01*
X12000Y143327D01*
X12020Y143314D01*
X12042Y143301D01*
X12066Y143287D01*
X12119Y143251D01*
X12146Y143230D01*
X12175Y143209D01*
X12204Y143183D01*
X12235Y143158D01*
X12237Y143156D01*
X12242Y143150D01*
X12252Y143143D01*
X12264Y143130D01*
X12281Y143114D01*
X12301Y143094D01*
X12324Y143072D01*
X12352Y143045D01*
X12381Y143014D01*
X12414Y142977D01*
X12450Y142939D01*
X12490Y142896D01*
X12532Y142848D01*
X12577Y142797D01*
X12626Y142741D01*
X12677Y142681D01*
X12679Y142677D01*
X12688Y142668D01*
X12699Y142655D01*
X12716Y142637D01*
X12734Y142613D01*
X12756Y142590D01*
X12779Y142562D01*
X12805Y142533D01*
X12858Y142472D01*
X12885Y142442D01*
X12910Y142413D01*
X12936Y142386D01*
X12958Y142362D01*
X12978Y142341D01*
X12996Y142324D01*
X13000Y142321D01*
X13011Y142311D01*
X13027Y142297D01*
X13047Y142279D01*
X13072Y142259D01*
X13100Y142237D01*
X13131Y142215D01*
X13161Y142195D01*
Y143429D01*
X13458D01*
Y141765D01*
D02*
G37*
G36*
X12708Y141383D02*
X12734D01*
X12765Y141381D01*
X12799Y141378D01*
X12836Y141376D01*
X12874Y141370D01*
X12914Y141367D01*
X12996Y141352D01*
X13036Y141343D01*
X13074Y141332D01*
X13111Y141321D01*
X13145Y141307D01*
X13147D01*
X13152Y141303D01*
X13161Y141299D01*
X13174Y141292D01*
X13189Y141285D01*
X13205Y141274D01*
X13223Y141261D01*
X13243Y141249D01*
X13263Y141232D01*
X13285Y141214D01*
X13307Y141194D01*
X13329Y141172D01*
X13351Y141148D01*
X13371Y141123D01*
X13391Y141096D01*
X13409Y141065D01*
X13411Y141063D01*
X13413Y141057D01*
X13418Y141048D01*
X13424Y141035D01*
X13431Y141019D01*
X13438Y141001D01*
X13445Y140979D01*
X13454Y140954D01*
X13464Y140926D01*
X13471Y140897D01*
X13478Y140865D01*
X13486Y140832D01*
X13491Y140795D01*
X13496Y140757D01*
X13498Y140719D01*
X13500Y140677D01*
Y140662D01*
X13498Y140646D01*
X13496Y140622D01*
X13495Y140595D01*
X13489Y140562D01*
X13484Y140526D01*
X13476Y140488D01*
X13465Y140448D01*
X13454Y140406D01*
X13438Y140364D01*
X13420Y140322D01*
X13398Y140280D01*
X13373Y140240D01*
X13343Y140202D01*
X13311Y140167D01*
X13309Y140166D01*
X13302Y140160D01*
X13291Y140151D01*
X13274Y140140D01*
X13254Y140127D01*
X13231Y140113D01*
X13202Y140096D01*
X13169Y140082D01*
X13131Y140066D01*
X13089Y140049D01*
X13041Y140036D01*
X12990Y140024D01*
X12936Y140013D01*
X12876Y140005D01*
X12812Y140000D01*
X12745D01*
X12703Y140300D01*
X12707D01*
X12716D01*
X12730Y140302D01*
X12750Y140304D01*
X12774Y140306D01*
X12799Y140309D01*
X12829Y140313D01*
X12861Y140319D01*
X12927Y140331D01*
X12992Y140349D01*
X13021Y140362D01*
X13050Y140375D01*
X13076Y140391D01*
X13098Y140408D01*
X13100Y140409D01*
X13101Y140411D01*
X13107Y140419D01*
X13114Y140426D01*
X13122Y140435D01*
X13131Y140448D01*
X13141Y140460D01*
X13151Y140477D01*
X13160Y140495D01*
X13171Y140515D01*
X13180Y140537D01*
X13187Y140560D01*
X13194Y140588D01*
X13198Y140615D01*
X13202Y140644D01*
X13203Y140675D01*
Y140688D01*
X13202Y140697D01*
Y140708D01*
X13200Y140721D01*
X13196Y140750D01*
X13189Y140782D01*
X13180Y140819D01*
X13165Y140857D01*
X13147Y140892D01*
Y140894D01*
X13143Y140895D01*
X13136Y140906D01*
X13123Y140923D01*
X13105Y140941D01*
X13083Y140963D01*
X13056Y140983D01*
X13025Y141003D01*
X12990Y141017D01*
X12989D01*
X12985Y141019D01*
X12979Y141021D01*
X12972Y141023D01*
X12961Y141025D01*
X12949Y141028D01*
X12932Y141032D01*
X12914Y141035D01*
X12894Y141037D01*
X12870Y141041D01*
X12845Y141045D01*
X12816Y141047D01*
X12785Y141048D01*
X12752Y141050D01*
X12716Y141052D01*
X12676D01*
X10939D01*
Y141385D01*
X12655D01*
X12659D01*
X12670D01*
X12686D01*
X12708Y141383D01*
D02*
G37*
G36*
X12745Y101453D02*
X12767Y101451D01*
X12796Y101447D01*
X12829Y101442D01*
X12865Y101434D01*
X12905Y101423D01*
X12949Y101411D01*
X12992Y101396D01*
X13040Y101376D01*
X13087Y101352D01*
X13134Y101325D01*
X13182Y101292D01*
X13227Y101254D01*
X13271Y101212D01*
X13273Y101209D01*
X13280Y101201D01*
X13293Y101189D01*
X13307Y101169D01*
X13323Y101145D01*
X13343Y101118D01*
X13363Y101083D01*
X13385Y101047D01*
X13407Y101005D01*
X13427Y100957D01*
X13447Y100908D01*
X13464Y100854D01*
X13478Y100797D01*
X13491Y100735D01*
X13498Y100672D01*
X13500Y100604D01*
Y100590D01*
X13498Y100572D01*
X13496Y100550D01*
X13495Y100521D01*
X13489Y100488D01*
X13484Y100452D01*
X13475Y100411D01*
X13465Y100370D01*
X13453Y100324D01*
X13436Y100279D01*
X13416Y100231D01*
X13395Y100186D01*
X13369Y100140D01*
X13338Y100095D01*
X13304Y100053D01*
X13302Y100051D01*
X13294Y100044D01*
X13283Y100033D01*
X13267Y100018D01*
X13247Y100002D01*
X13223Y99982D01*
X13196Y99962D01*
X13165Y99940D01*
X13131Y99918D01*
X13091Y99896D01*
X13049Y99876D01*
X13003Y99856D01*
X12954Y99840D01*
X12903Y99824D01*
X12848Y99813D01*
X12790Y99805D01*
X12748Y100115D01*
X12752D01*
X12759Y100117D01*
X12774Y100120D01*
X12792Y100126D01*
X12814Y100131D01*
X12837Y100138D01*
X12865Y100148D01*
X12894Y100157D01*
X12958Y100182D01*
X13020Y100213D01*
X13050Y100231D01*
X13080Y100251D01*
X13105Y100271D01*
X13129Y100295D01*
X13131Y100297D01*
X13134Y100300D01*
X13140Y100308D01*
X13147Y100319D01*
X13156Y100329D01*
X13165Y100346D01*
X13176Y100362D01*
X13185Y100382D01*
X13196Y100404D01*
X13207Y100428D01*
X13216Y100453D01*
X13225Y100481D01*
X13232Y100510D01*
X13238Y100541D01*
X13242Y100572D01*
X13243Y100606D01*
Y100615D01*
X13242Y100628D01*
Y100643D01*
X13238Y100663D01*
X13236Y100684D01*
X13231Y100708D01*
X13225Y100735D01*
X13216Y100763D01*
X13207Y100794D01*
X13194Y100825D01*
X13180Y100856D01*
X13161Y100886D01*
X13141Y100917D01*
X13120Y100946D01*
X13092Y100976D01*
X13091Y100978D01*
X13085Y100983D01*
X13078Y100990D01*
X13065Y100999D01*
X13050Y101010D01*
X13032Y101023D01*
X13012Y101038D01*
X12989Y101052D01*
X12963Y101065D01*
X12934Y101079D01*
X12905Y101092D01*
X12870Y101103D01*
X12836Y101112D01*
X12799Y101119D01*
X12759Y101125D01*
X12719Y101127D01*
X12717D01*
X12710D01*
X12699D01*
X12683Y101125D01*
X12666Y101123D01*
X12645Y101119D01*
X12621Y101116D01*
X12596Y101109D01*
X12568Y101101D01*
X12539Y101092D01*
X12510Y101081D01*
X12481Y101068D01*
X12452Y101052D01*
X12423Y101032D01*
X12395Y101012D01*
X12368Y100987D01*
X12366Y100985D01*
X12363Y100981D01*
X12355Y100972D01*
X12346Y100961D01*
X12335Y100948D01*
X12324Y100932D01*
X12312Y100912D01*
X12299Y100890D01*
X12286Y100866D01*
X12273Y100839D01*
X12262Y100810D01*
X12252Y100779D01*
X12242Y100746D01*
X12235Y100710D01*
X12231Y100673D01*
X12230Y100634D01*
Y100617D01*
X12231Y100599D01*
X12233Y100573D01*
X12237Y100541D01*
X12244Y100504D01*
X12252Y100462D01*
X12262Y100415D01*
X11991Y100450D01*
Y100455D01*
X11993Y100461D01*
Y100468D01*
X11995Y100484D01*
Y100519D01*
X11993Y100532D01*
X11991Y100550D01*
X11989Y100570D01*
X11986Y100592D01*
X11982Y100617D01*
X11977Y100644D01*
X11969Y100672D01*
X11951Y100732D01*
X11940Y100763D01*
X11926Y100794D01*
X11911Y100825D01*
X11893Y100854D01*
X11891Y100856D01*
X11887Y100861D01*
X11882Y100868D01*
X11873Y100879D01*
X11862Y100890D01*
X11849Y100905D01*
X11833Y100917D01*
X11815Y100934D01*
X11793Y100948D01*
X11769Y100963D01*
X11744Y100976D01*
X11715Y100987D01*
X11684Y100997D01*
X11649Y101005D01*
X11613Y101010D01*
X11575Y101012D01*
X11573D01*
X11567D01*
X11558D01*
X11545Y101010D01*
X11533Y101008D01*
X11514Y101007D01*
X11496Y101003D01*
X11476Y100997D01*
X11433Y100983D01*
X11409Y100974D01*
X11385Y100963D01*
X11361Y100950D01*
X11338Y100934D01*
X11316Y100916D01*
X11294Y100896D01*
X11292Y100894D01*
X11289Y100890D01*
X11283Y100885D01*
X11276Y100875D01*
X11269Y100863D01*
X11258Y100850D01*
X11249Y100834D01*
X11238Y100815D01*
X11227Y100795D01*
X11218Y100774D01*
X11207Y100748D01*
X11200Y100723D01*
X11192Y100694D01*
X11187Y100664D01*
X11183Y100632D01*
X11181Y100599D01*
Y100581D01*
X11183Y100570D01*
X11185Y100553D01*
X11187Y100535D01*
X11190Y100515D01*
X11196Y100493D01*
X11209Y100446D01*
X11218Y100422D01*
X11231Y100397D01*
X11243Y100371D01*
X11258Y100346D01*
X11276Y100322D01*
X11296Y100299D01*
X11298Y100297D01*
X11302Y100293D01*
X11309Y100288D01*
X11318Y100279D01*
X11329Y100269D01*
X11343Y100259D01*
X11361Y100248D01*
X11380Y100235D01*
X11403Y100222D01*
X11429Y100209D01*
X11456Y100195D01*
X11487Y100184D01*
X11520Y100171D01*
X11554Y100162D01*
X11593Y100153D01*
X11635Y100146D01*
X11580Y99836D01*
X11578D01*
X11576D01*
X11565Y99840D01*
X11551Y99844D01*
X11529Y99849D01*
X11502Y99856D01*
X11473Y99865D01*
X11440Y99876D01*
X11403Y99889D01*
X11365Y99906D01*
X11325Y99924D01*
X11285Y99945D01*
X11245Y99969D01*
X11205Y99995D01*
X11167Y100024D01*
X11130Y100057D01*
X11098Y100093D01*
X11096Y100095D01*
X11090Y100102D01*
X11081Y100113D01*
X11070Y100129D01*
X11058Y100149D01*
X11043Y100173D01*
X11028Y100200D01*
X11012Y100231D01*
X10996Y100266D01*
X10981Y100304D01*
X10967Y100344D01*
X10954Y100388D01*
X10943Y100435D01*
X10934Y100486D01*
X10928Y100539D01*
X10927Y100593D01*
Y100613D01*
X10928Y100628D01*
Y100646D01*
X10932Y100668D01*
X10934Y100692D01*
X10938Y100717D01*
X10943Y100746D01*
X10948Y100776D01*
X10965Y100839D01*
X10974Y100874D01*
X10987Y100907D01*
X10999Y100939D01*
X11016Y100972D01*
X11017Y100974D01*
X11019Y100979D01*
X11025Y100988D01*
X11032Y101001D01*
X11041Y101016D01*
X11052Y101032D01*
X11065Y101050D01*
X11079Y101070D01*
X11114Y101114D01*
X11156Y101158D01*
X11203Y101199D01*
X11231Y101219D01*
X11258Y101238D01*
X11260Y101240D01*
X11265Y101241D01*
X11272Y101247D01*
X11285Y101252D01*
X11298Y101260D01*
X11316Y101267D01*
X11334Y101276D01*
X11356Y101285D01*
X11380Y101292D01*
X11403Y101301D01*
X11458Y101316D01*
X11518Y101327D01*
X11549Y101329D01*
X11582Y101331D01*
X11584D01*
X11589D01*
X11598D01*
X11609Y101329D01*
X11624D01*
X11640Y101325D01*
X11660Y101323D01*
X11680Y101320D01*
X11727Y101309D01*
X11777Y101292D01*
X11802Y101283D01*
X11829Y101270D01*
X11855Y101258D01*
X11880Y101241D01*
X11882Y101240D01*
X11886Y101238D01*
X11893Y101232D01*
X11902Y101225D01*
X11913Y101216D01*
X11926Y101205D01*
X11940Y101192D01*
X11957Y101176D01*
X11973Y101160D01*
X11989Y101139D01*
X12008Y101119D01*
X12026Y101096D01*
X12042Y101070D01*
X12060Y101043D01*
X12077Y101014D01*
X12091Y100983D01*
Y100985D01*
X12093Y100992D01*
X12097Y101005D01*
X12102Y101019D01*
X12108Y101039D01*
X12117Y101061D01*
X12126Y101085D01*
X12139Y101110D01*
X12151Y101138D01*
X12168Y101167D01*
X12184Y101196D01*
X12204Y101225D01*
X12226Y101252D01*
X12250Y101280D01*
X12277Y101307D01*
X12306Y101331D01*
X12308Y101332D01*
X12313Y101336D01*
X12323Y101341D01*
X12335Y101351D01*
X12352Y101360D01*
X12370Y101371D01*
X12392Y101382D01*
X12417Y101392D01*
X12446Y101403D01*
X12477Y101416D01*
X12510Y101425D01*
X12546Y101434D01*
X12585Y101443D01*
X12625Y101449D01*
X12666Y101453D01*
X12712Y101454D01*
X12716D01*
X12727D01*
X12745Y101453D01*
D02*
G37*
G36*
X12705Y99383D02*
X12730D01*
X12761Y99381D01*
X12796Y99378D01*
X12832Y99376D01*
X12870Y99370D01*
X12910Y99367D01*
X12992Y99352D01*
X13032Y99343D01*
X13070Y99332D01*
X13107Y99321D01*
X13141Y99307D01*
X13143D01*
X13149Y99303D01*
X13158Y99299D01*
X13171Y99292D01*
X13185Y99285D01*
X13202Y99274D01*
X13220Y99261D01*
X13240Y99248D01*
X13260Y99232D01*
X13282Y99214D01*
X13304Y99194D01*
X13325Y99172D01*
X13347Y99148D01*
X13367Y99123D01*
X13387Y99096D01*
X13405Y99065D01*
X13407Y99063D01*
X13409Y99057D01*
X13415Y99048D01*
X13420Y99036D01*
X13427Y99019D01*
X13434Y99001D01*
X13442Y98979D01*
X13451Y98954D01*
X13460Y98926D01*
X13467Y98897D01*
X13475Y98864D01*
X13482Y98832D01*
X13487Y98795D01*
X13493Y98757D01*
X13495Y98719D01*
X13496Y98677D01*
Y98662D01*
X13495Y98646D01*
X13493Y98622D01*
X13491Y98595D01*
X13486Y98562D01*
X13480Y98526D01*
X13473Y98488D01*
X13462Y98448D01*
X13451Y98406D01*
X13434Y98364D01*
X13416Y98322D01*
X13395Y98280D01*
X13369Y98240D01*
X13340Y98202D01*
X13307Y98167D01*
X13305Y98166D01*
X13298Y98160D01*
X13287Y98151D01*
X13271Y98140D01*
X13251Y98127D01*
X13227Y98113D01*
X13198Y98096D01*
X13165Y98082D01*
X13127Y98066D01*
X13085Y98049D01*
X13038Y98036D01*
X12987Y98024D01*
X12932Y98013D01*
X12872Y98005D01*
X12808Y98000D01*
X12741D01*
X12699Y98300D01*
X12703D01*
X12712D01*
X12727Y98302D01*
X12747Y98304D01*
X12770Y98306D01*
X12796Y98309D01*
X12825Y98313D01*
X12858Y98318D01*
X12923Y98331D01*
X12989Y98349D01*
X13018Y98362D01*
X13047Y98375D01*
X13072Y98391D01*
X13094Y98408D01*
X13096Y98409D01*
X13098Y98411D01*
X13103Y98419D01*
X13111Y98426D01*
X13118Y98435D01*
X13127Y98448D01*
X13138Y98460D01*
X13147Y98477D01*
X13156Y98495D01*
X13167Y98515D01*
X13176Y98537D01*
X13183Y98561D01*
X13191Y98588D01*
X13194Y98615D01*
X13198Y98644D01*
X13200Y98675D01*
Y98688D01*
X13198Y98697D01*
Y98708D01*
X13196Y98721D01*
X13192Y98750D01*
X13185Y98783D01*
X13176Y98819D01*
X13161Y98857D01*
X13143Y98892D01*
Y98894D01*
X13140Y98895D01*
X13132Y98906D01*
X13120Y98923D01*
X13101Y98941D01*
X13080Y98963D01*
X13052Y98983D01*
X13021Y99003D01*
X12987Y99017D01*
X12985D01*
X12981Y99019D01*
X12976Y99021D01*
X12969Y99023D01*
X12958Y99025D01*
X12945Y99028D01*
X12929Y99032D01*
X12910Y99036D01*
X12890Y99037D01*
X12867Y99041D01*
X12841Y99045D01*
X12812Y99046D01*
X12781Y99048D01*
X12748Y99050D01*
X12712Y99052D01*
X12672D01*
X10936D01*
Y99385D01*
X12652D01*
X12655D01*
X12666D01*
X12683D01*
X12705Y99383D01*
D02*
G37*
G36*
X12356Y61105D02*
X12958D01*
Y60795D01*
X12356D01*
Y59703D01*
X12072D01*
X10439Y60852D01*
Y61105D01*
X12072D01*
Y61445D01*
X12356D01*
Y61105D01*
D02*
G37*
G36*
X12208Y59383D02*
X12234D01*
X12265Y59381D01*
X12299Y59378D01*
X12336Y59376D01*
X12374Y59370D01*
X12414Y59367D01*
X12496Y59352D01*
X12536Y59343D01*
X12574Y59332D01*
X12611Y59321D01*
X12645Y59307D01*
X12647D01*
X12652Y59303D01*
X12662Y59299D01*
X12674Y59292D01*
X12689Y59285D01*
X12705Y59274D01*
X12723Y59261D01*
X12743Y59249D01*
X12763Y59232D01*
X12785Y59214D01*
X12807Y59194D01*
X12829Y59172D01*
X12851Y59148D01*
X12871Y59123D01*
X12891Y59096D01*
X12909Y59065D01*
X12911Y59063D01*
X12913Y59057D01*
X12918Y59048D01*
X12924Y59035D01*
X12931Y59019D01*
X12938Y59001D01*
X12945Y58979D01*
X12955Y58954D01*
X12964Y58926D01*
X12971Y58897D01*
X12978Y58864D01*
X12986Y58832D01*
X12991Y58795D01*
X12996Y58757D01*
X12998Y58719D01*
X13000Y58677D01*
Y58662D01*
X12998Y58646D01*
X12996Y58622D01*
X12995Y58595D01*
X12989Y58562D01*
X12984Y58526D01*
X12976Y58488D01*
X12966Y58448D01*
X12955Y58406D01*
X12938Y58364D01*
X12920Y58322D01*
X12898Y58280D01*
X12873Y58240D01*
X12844Y58202D01*
X12811Y58167D01*
X12809Y58166D01*
X12802Y58160D01*
X12791Y58151D01*
X12774Y58140D01*
X12754Y58127D01*
X12731Y58113D01*
X12702Y58096D01*
X12669Y58082D01*
X12631Y58065D01*
X12589Y58049D01*
X12541Y58036D01*
X12490Y58024D01*
X12436Y58013D01*
X12376Y58005D01*
X12312Y58000D01*
X12245D01*
X12203Y58300D01*
X12207D01*
X12216D01*
X12230Y58302D01*
X12250Y58304D01*
X12274Y58306D01*
X12299Y58309D01*
X12328Y58313D01*
X12361Y58318D01*
X12427Y58331D01*
X12492Y58349D01*
X12521Y58362D01*
X12551Y58375D01*
X12576Y58391D01*
X12598Y58408D01*
X12600Y58410D01*
X12601Y58411D01*
X12607Y58419D01*
X12614Y58426D01*
X12621Y58435D01*
X12631Y58448D01*
X12641Y58460D01*
X12651Y58477D01*
X12660Y58495D01*
X12671Y58515D01*
X12680Y58537D01*
X12687Y58561D01*
X12694Y58588D01*
X12698Y58615D01*
X12702Y58644D01*
X12703Y58675D01*
Y58688D01*
X12702Y58697D01*
Y58708D01*
X12700Y58721D01*
X12696Y58750D01*
X12689Y58783D01*
X12680Y58819D01*
X12665Y58857D01*
X12647Y58892D01*
Y58894D01*
X12643Y58895D01*
X12636Y58906D01*
X12623Y58923D01*
X12605Y58941D01*
X12583Y58963D01*
X12556Y58983D01*
X12525Y59003D01*
X12490Y59017D01*
X12489D01*
X12485Y59019D01*
X12479Y59021D01*
X12472Y59023D01*
X12461Y59025D01*
X12449Y59028D01*
X12432Y59032D01*
X12414Y59035D01*
X12394Y59037D01*
X12370Y59041D01*
X12345Y59045D01*
X12316Y59047D01*
X12285Y59048D01*
X12252Y59050D01*
X12216Y59052D01*
X12176D01*
X10439D01*
Y59385D01*
X12156D01*
X12159D01*
X12170D01*
X12186D01*
X12208Y59383D01*
D02*
G37*
G36*
X78854Y201998D02*
X78878Y201996D01*
X78905Y201995D01*
X78938Y201989D01*
X78974Y201984D01*
X79012Y201976D01*
X79052Y201965D01*
X79094Y201955D01*
X79136Y201938D01*
X79178Y201920D01*
X79220Y201898D01*
X79260Y201873D01*
X79298Y201844D01*
X79333Y201811D01*
X79334Y201809D01*
X79340Y201802D01*
X79349Y201791D01*
X79360Y201774D01*
X79373Y201754D01*
X79387Y201731D01*
X79404Y201701D01*
X79418Y201669D01*
X79435Y201631D01*
X79451Y201589D01*
X79464Y201541D01*
X79476Y201490D01*
X79487Y201436D01*
X79495Y201376D01*
X79500Y201312D01*
Y201245D01*
X79200Y201203D01*
Y201206D01*
Y201216D01*
X79198Y201230D01*
X79196Y201250D01*
X79194Y201274D01*
X79191Y201299D01*
X79187Y201328D01*
X79181Y201361D01*
X79169Y201427D01*
X79151Y201492D01*
X79138Y201521D01*
X79125Y201551D01*
X79109Y201576D01*
X79092Y201598D01*
X79090Y201600D01*
X79089Y201601D01*
X79081Y201607D01*
X79074Y201614D01*
X79065Y201622D01*
X79052Y201631D01*
X79040Y201642D01*
X79023Y201651D01*
X79005Y201660D01*
X78985Y201671D01*
X78963Y201680D01*
X78939Y201687D01*
X78912Y201694D01*
X78885Y201698D01*
X78856Y201701D01*
X78825Y201703D01*
X78812D01*
X78803Y201701D01*
X78792D01*
X78779Y201700D01*
X78750Y201696D01*
X78717Y201689D01*
X78681Y201680D01*
X78643Y201665D01*
X78608Y201647D01*
X78606D01*
X78605Y201643D01*
X78594Y201636D01*
X78577Y201623D01*
X78559Y201605D01*
X78537Y201583D01*
X78517Y201556D01*
X78497Y201525D01*
X78483Y201490D01*
Y201489D01*
X78481Y201485D01*
X78479Y201480D01*
X78477Y201472D01*
X78475Y201461D01*
X78472Y201449D01*
X78468Y201432D01*
X78464Y201414D01*
X78463Y201394D01*
X78459Y201370D01*
X78455Y201345D01*
X78453Y201316D01*
X78452Y201285D01*
X78450Y201252D01*
X78448Y201216D01*
Y201176D01*
Y199439D01*
X78115D01*
Y201155D01*
Y201159D01*
Y201170D01*
Y201186D01*
X78117Y201208D01*
Y201234D01*
X78119Y201265D01*
X78122Y201299D01*
X78124Y201336D01*
X78130Y201374D01*
X78133Y201414D01*
X78148Y201496D01*
X78157Y201536D01*
X78168Y201574D01*
X78179Y201610D01*
X78193Y201645D01*
Y201647D01*
X78197Y201652D01*
X78201Y201661D01*
X78208Y201674D01*
X78215Y201689D01*
X78226Y201705D01*
X78239Y201723D01*
X78251Y201743D01*
X78268Y201763D01*
X78286Y201785D01*
X78306Y201807D01*
X78328Y201829D01*
X78352Y201851D01*
X78377Y201871D01*
X78404Y201891D01*
X78435Y201909D01*
X78437Y201911D01*
X78443Y201913D01*
X78452Y201918D01*
X78464Y201924D01*
X78481Y201931D01*
X78499Y201938D01*
X78521Y201945D01*
X78546Y201955D01*
X78574Y201964D01*
X78603Y201971D01*
X78636Y201978D01*
X78668Y201986D01*
X78705Y201991D01*
X78743Y201996D01*
X78781Y201998D01*
X78823Y202000D01*
X78838D01*
X78854Y201998D01*
D02*
G37*
G36*
X76861D02*
X76872D01*
X76899Y201996D01*
X76932Y201991D01*
X76970Y201986D01*
X77012Y201976D01*
X77059Y201964D01*
X77109Y201949D01*
X77160Y201931D01*
X77210Y201907D01*
X77263Y201880D01*
X77316Y201847D01*
X77369Y201809D01*
X77418Y201765D01*
X77465Y201716D01*
X77467Y201712D01*
X77476Y201703D01*
X77487Y201685D01*
X77504Y201661D01*
X77522Y201631D01*
X77533Y201612D01*
X77542Y201592D01*
X77553Y201571D01*
X77564Y201547D01*
X77576Y201520D01*
X77587Y201492D01*
X77598Y201463D01*
X77609Y201432D01*
X77622Y201398D01*
X77633Y201363D01*
X77642Y201325D01*
X77653Y201287D01*
X77662Y201245D01*
X77671Y201201D01*
X77680Y201155D01*
X77687Y201108D01*
X77693Y201059D01*
X77698Y201008D01*
X77704Y200954D01*
X77706Y200899D01*
X77709Y200841D01*
Y200781D01*
Y200779D01*
Y200771D01*
Y200762D01*
Y200748D01*
X77707Y200731D01*
Y200711D01*
X77706Y200688D01*
Y200660D01*
X77704Y200633D01*
X77700Y200601D01*
X77698Y200568D01*
X77695Y200531D01*
X77687Y200457D01*
X77675Y200375D01*
X77662Y200289D01*
X77644Y200200D01*
X77622Y200113D01*
X77596Y200025D01*
X77565Y199940D01*
X77529Y199860D01*
X77509Y199821D01*
X77487Y199787D01*
X77464Y199752D01*
X77440Y199720D01*
X77436Y199716D01*
X77429Y199707D01*
X77416Y199692D01*
X77396Y199674D01*
X77372Y199652D01*
X77345Y199629D01*
X77311Y199601D01*
X77272Y199574D01*
X77229Y199548D01*
X77181Y199521D01*
X77130Y199497D01*
X77074Y199476D01*
X77012Y199458D01*
X76948Y199443D01*
X76879Y199434D01*
X76806Y199430D01*
X76794D01*
X76777Y199432D01*
X76757D01*
X76732Y199436D01*
X76703Y199439D01*
X76670Y199445D01*
X76634Y199450D01*
X76597Y199459D01*
X76557Y199470D01*
X76517Y199485D01*
X76477Y199501D01*
X76435Y199519D01*
X76395Y199543D01*
X76357Y199568D01*
X76320Y199598D01*
X76319Y199600D01*
X76311Y199605D01*
X76302Y199616D01*
X76289Y199629D01*
X76275Y199645D01*
X76259Y199667D01*
X76240Y199690D01*
X76220Y199718D01*
X76200Y199749D01*
X76180Y199783D01*
X76160Y199821D01*
X76144Y199863D01*
X76126Y199907D01*
X76111Y199954D01*
X76100Y200005D01*
X76091Y200058D01*
X76399Y200082D01*
Y200080D01*
X76401Y200075D01*
X76402Y200064D01*
X76406Y200053D01*
X76411Y200036D01*
X76415Y200020D01*
X76430Y199980D01*
X76446Y199938D01*
X76466Y199894D01*
X76490Y199852D01*
X76503Y199834D01*
X76517Y199818D01*
X76519Y199816D01*
X76522Y199812D01*
X76530Y199805D01*
X76539Y199798D01*
X76552Y199787D01*
X76566Y199776D01*
X76583Y199763D01*
X76603Y199750D01*
X76624Y199740D01*
X76648Y199727D01*
X76672Y199716D01*
X76699Y199705D01*
X76728Y199698D01*
X76759Y199690D01*
X76792Y199687D01*
X76825Y199685D01*
X76839D01*
X76850Y199687D01*
X76863D01*
X76877Y199689D01*
X76894Y199692D01*
X76914Y199696D01*
X76954Y199705D01*
X76998Y199720D01*
X77041Y199741D01*
X77063Y199754D01*
X77085Y199769D01*
X77087Y199770D01*
X77090Y199774D01*
X77100Y199780D01*
X77109Y199789D01*
X77121Y199800D01*
X77136Y199812D01*
X77150Y199829D01*
X77169Y199847D01*
X77187Y199867D01*
X77205Y199891D01*
X77225Y199916D01*
X77243Y199943D01*
X77263Y199974D01*
X77281Y200007D01*
X77300Y200042D01*
X77316Y200078D01*
Y200080D01*
X77320Y200087D01*
X77323Y200100D01*
X77329Y200116D01*
X77336Y200136D01*
X77343Y200162D01*
X77351Y200193D01*
X77358Y200227D01*
X77365Y200266D01*
X77374Y200309D01*
X77382Y200358D01*
X77387Y200409D01*
X77393Y200466D01*
X77398Y200526D01*
X77400Y200591D01*
X77402Y200660D01*
X77400Y200659D01*
X77396Y200653D01*
X77391Y200644D01*
X77382Y200633D01*
X77371Y200619D01*
X77358Y200602D01*
X77343Y200584D01*
X77325Y200564D01*
X77307Y200544D01*
X77287Y200524D01*
X77240Y200482D01*
X77189Y200442D01*
X77160Y200424D01*
X77130Y200408D01*
X77129Y200406D01*
X77123Y200404D01*
X77114Y200400D01*
X77103Y200395D01*
X77087Y200388D01*
X77070Y200380D01*
X77050Y200373D01*
X77027Y200366D01*
X77003Y200358D01*
X76976Y200351D01*
X76919Y200337D01*
X76856Y200327D01*
X76823Y200324D01*
X76775D01*
X76759Y200326D01*
X76739Y200327D01*
X76712Y200331D01*
X76681Y200337D01*
X76646Y200344D01*
X76608Y200353D01*
X76568Y200364D01*
X76526Y200380D01*
X76482Y200398D01*
X76437Y200420D01*
X76393Y200448D01*
X76350Y200477D01*
X76306Y200513D01*
X76264Y200553D01*
X76262Y200555D01*
X76255Y200564D01*
X76244Y200577D01*
X76230Y200595D01*
X76213Y200617D01*
X76195Y200644D01*
X76175Y200675D01*
X76155Y200711D01*
X76135Y200751D01*
X76115Y200797D01*
X76097Y200844D01*
X76080Y200897D01*
X76066Y200954D01*
X76055Y201012D01*
X76047Y201076D01*
X76046Y201141D01*
Y201143D01*
Y201152D01*
Y201165D01*
X76047Y201181D01*
X76049Y201203D01*
X76051Y201226D01*
X76055Y201254D01*
X76058Y201285D01*
X76064Y201318D01*
X76071Y201352D01*
X76078Y201389D01*
X76089Y201427D01*
X76102Y201465D01*
X76115Y201503D01*
X76131Y201543D01*
X76149Y201581D01*
X76151Y201583D01*
X76155Y201590D01*
X76160Y201601D01*
X76168Y201614D01*
X76178Y201632D01*
X76191Y201652D01*
X76206Y201672D01*
X76222Y201696D01*
X76242Y201722D01*
X76262Y201747D01*
X76286Y201772D01*
X76311Y201798D01*
X76337Y201823D01*
X76366Y201849D01*
X76397Y201871D01*
X76430Y201893D01*
X76432Y201894D01*
X76437Y201898D01*
X76448Y201902D01*
X76461Y201909D01*
X76479Y201918D01*
X76499Y201927D01*
X76521Y201936D01*
X76548Y201945D01*
X76575Y201956D01*
X76606Y201965D01*
X76641Y201975D01*
X76675Y201984D01*
X76714Y201991D01*
X76752Y201995D01*
X76794Y201998D01*
X76836Y202000D01*
X76852D01*
X76861Y201998D01*
D02*
G37*
G36*
X39921D02*
X39945Y201996D01*
X39974Y201995D01*
X40008Y201989D01*
X40047Y201984D01*
X40087Y201976D01*
X40130Y201965D01*
X40176Y201953D01*
X40223Y201938D01*
X40271Y201920D01*
X40316Y201898D01*
X40363Y201873D01*
X40407Y201842D01*
X40449Y201809D01*
X40451Y201807D01*
X40458Y201800D01*
X40469Y201789D01*
X40483Y201774D01*
X40500Y201754D01*
X40520Y201731D01*
X40540Y201703D01*
X40562Y201672D01*
X40584Y201638D01*
X40604Y201600D01*
X40625Y201558D01*
X40645Y201512D01*
X40662Y201463D01*
X40676Y201410D01*
X40689Y201356D01*
X40696Y201297D01*
X40372Y201270D01*
Y201272D01*
X40371Y201281D01*
X40369Y201292D01*
X40365Y201308D01*
X40360Y201328D01*
X40354Y201352D01*
X40347Y201378D01*
X40338Y201405D01*
X40316Y201461D01*
X40303Y201492D01*
X40289Y201521D01*
X40271Y201551D01*
X40252Y201578D01*
X40231Y201603D01*
X40207Y201627D01*
X40205Y201629D01*
X40201Y201632D01*
X40194Y201638D01*
X40183Y201645D01*
X40170Y201654D01*
X40154Y201665D01*
X40138Y201674D01*
X40118Y201685D01*
X40096Y201698D01*
X40070Y201707D01*
X40045Y201718D01*
X40016Y201727D01*
X39987Y201734D01*
X39956Y201740D01*
X39923Y201743D01*
X39888Y201745D01*
X39877D01*
X39867Y201743D01*
X39850D01*
X39832Y201740D01*
X39808Y201736D01*
X39783Y201731D01*
X39755Y201723D01*
X39726Y201716D01*
X39695Y201705D01*
X39665Y201691D01*
X39632Y201674D01*
X39601Y201656D01*
X39568Y201632D01*
X39537Y201607D01*
X39508Y201578D01*
X39506Y201576D01*
X39501Y201571D01*
X39493Y201560D01*
X39484Y201547D01*
X39472Y201531D01*
X39459Y201510D01*
X39444Y201487D01*
X39430Y201460D01*
X39417Y201429D01*
X39402Y201396D01*
X39390Y201359D01*
X39377Y201319D01*
X39368Y201276D01*
X39360Y201230D01*
X39355Y201183D01*
X39353Y201132D01*
Y201128D01*
Y201121D01*
X39355Y201106D01*
Y201088D01*
X39357Y201066D01*
X39360Y201039D01*
X39366Y201012D01*
X39371Y200979D01*
X39380Y200946D01*
X39390Y200914D01*
X39402Y200879D01*
X39417Y200842D01*
X39433Y200808D01*
X39453Y200775D01*
X39477Y200742D01*
X39503Y200713D01*
X39504Y200711D01*
X39510Y200706D01*
X39517Y200699D01*
X39530Y200690D01*
X39544Y200677D01*
X39562Y200664D01*
X39583Y200651D01*
X39606Y200637D01*
X39634Y200622D01*
X39663Y200609D01*
X39694Y200595D01*
X39728Y200584D01*
X39766Y200575D01*
X39806Y200568D01*
X39848Y200562D01*
X39892Y200560D01*
X39906D01*
X39917Y200562D01*
X39930D01*
X39947Y200564D01*
X39963Y200566D01*
X39983Y200570D01*
X40025Y200577D01*
X40070Y200589D01*
X40118Y200606D01*
X40163Y200630D01*
X40165D01*
X40169Y200633D01*
X40174Y200637D01*
X40183Y200642D01*
X40205Y200657D01*
X40232Y200677D01*
X40261Y200702D01*
X40292Y200731D01*
X40323Y200766D01*
X40351Y200804D01*
X40642Y200766D01*
X40398Y199472D01*
X39144D01*
Y199767D01*
X40152D01*
X40287Y200446D01*
X40285Y200444D01*
X40276Y200438D01*
X40265Y200431D01*
X40247Y200420D01*
X40227Y200409D01*
X40203Y200395D01*
X40174Y200382D01*
X40143Y200366D01*
X40109Y200351D01*
X40072Y200337D01*
X40032Y200324D01*
X39992Y200313D01*
X39948Y200302D01*
X39905Y200295D01*
X39857Y200289D01*
X39812Y200287D01*
X39797D01*
X39779Y200289D01*
X39757Y200291D01*
X39728Y200295D01*
X39695Y200300D01*
X39657Y200307D01*
X39617Y200317D01*
X39575Y200327D01*
X39530Y200344D01*
X39484Y200362D01*
X39437Y200384D01*
X39390Y200411D01*
X39342Y200440D01*
X39297Y200477D01*
X39253Y200517D01*
X39251Y200519D01*
X39244Y200528D01*
X39231Y200540D01*
X39217Y200559D01*
X39200Y200580D01*
X39180Y200608D01*
X39160Y200641D01*
X39138Y200677D01*
X39118Y200717D01*
X39099Y200761D01*
X39078Y200810D01*
X39060Y200861D01*
X39048Y200917D01*
X39035Y200977D01*
X39028Y201039D01*
X39026Y201105D01*
Y201106D01*
Y201108D01*
Y201114D01*
Y201119D01*
X39028Y201137D01*
X39029Y201161D01*
X39031Y201192D01*
X39037Y201226D01*
X39042Y201265D01*
X39051Y201307D01*
X39062Y201352D01*
X39075Y201399D01*
X39091Y201449D01*
X39109Y201498D01*
X39133Y201549D01*
X39160Y201598D01*
X39191Y201647D01*
X39226Y201694D01*
X39230Y201698D01*
X39237Y201707D01*
X39251Y201722D01*
X39270Y201742D01*
X39295Y201765D01*
X39324Y201791D01*
X39359Y201818D01*
X39399Y201847D01*
X39444Y201876D01*
X39493Y201904D01*
X39548Y201929D01*
X39608Y201953D01*
X39672Y201971D01*
X39739Y201987D01*
X39812Y201996D01*
X39888Y202000D01*
X39903D01*
X39921Y201998D01*
D02*
G37*
G36*
X41854D02*
X41878Y201996D01*
X41905Y201995D01*
X41938Y201989D01*
X41974Y201984D01*
X42012Y201976D01*
X42052Y201965D01*
X42094Y201955D01*
X42136Y201938D01*
X42178Y201920D01*
X42220Y201898D01*
X42260Y201873D01*
X42298Y201844D01*
X42333Y201811D01*
X42334Y201809D01*
X42340Y201802D01*
X42349Y201791D01*
X42360Y201774D01*
X42373Y201754D01*
X42387Y201731D01*
X42404Y201701D01*
X42418Y201669D01*
X42434Y201631D01*
X42451Y201589D01*
X42464Y201541D01*
X42476Y201490D01*
X42487Y201436D01*
X42495Y201376D01*
X42500Y201312D01*
Y201245D01*
X42200Y201203D01*
Y201206D01*
Y201216D01*
X42198Y201230D01*
X42196Y201250D01*
X42194Y201274D01*
X42191Y201299D01*
X42187Y201328D01*
X42182Y201361D01*
X42169Y201427D01*
X42151Y201492D01*
X42138Y201521D01*
X42125Y201551D01*
X42109Y201576D01*
X42092Y201598D01*
X42090Y201600D01*
X42089Y201601D01*
X42081Y201607D01*
X42074Y201614D01*
X42065Y201622D01*
X42052Y201631D01*
X42040Y201642D01*
X42023Y201651D01*
X42005Y201660D01*
X41985Y201671D01*
X41963Y201680D01*
X41939Y201687D01*
X41912Y201694D01*
X41885Y201698D01*
X41856Y201701D01*
X41825Y201703D01*
X41812D01*
X41803Y201701D01*
X41792D01*
X41779Y201700D01*
X41750Y201696D01*
X41717Y201689D01*
X41681Y201680D01*
X41643Y201665D01*
X41608Y201647D01*
X41606D01*
X41605Y201643D01*
X41594Y201636D01*
X41577Y201623D01*
X41559Y201605D01*
X41537Y201583D01*
X41517Y201556D01*
X41497Y201525D01*
X41483Y201490D01*
Y201489D01*
X41481Y201485D01*
X41479Y201480D01*
X41477Y201472D01*
X41475Y201461D01*
X41472Y201449D01*
X41468Y201432D01*
X41464Y201414D01*
X41463Y201394D01*
X41459Y201370D01*
X41455Y201345D01*
X41453Y201316D01*
X41452Y201285D01*
X41450Y201252D01*
X41448Y201216D01*
Y201176D01*
Y199439D01*
X41115D01*
Y201155D01*
Y201159D01*
Y201170D01*
Y201186D01*
X41117Y201208D01*
Y201234D01*
X41119Y201265D01*
X41122Y201299D01*
X41124Y201336D01*
X41130Y201374D01*
X41133Y201414D01*
X41148Y201496D01*
X41157Y201536D01*
X41168Y201574D01*
X41179Y201610D01*
X41193Y201645D01*
Y201647D01*
X41197Y201652D01*
X41201Y201661D01*
X41208Y201674D01*
X41215Y201689D01*
X41226Y201705D01*
X41239Y201723D01*
X41252Y201743D01*
X41268Y201763D01*
X41286Y201785D01*
X41306Y201807D01*
X41328Y201829D01*
X41352Y201851D01*
X41377Y201871D01*
X41404Y201891D01*
X41435Y201909D01*
X41437Y201911D01*
X41443Y201913D01*
X41452Y201918D01*
X41464Y201924D01*
X41481Y201931D01*
X41499Y201938D01*
X41521Y201945D01*
X41546Y201955D01*
X41574Y201964D01*
X41603Y201971D01*
X41636Y201978D01*
X41668Y201986D01*
X41705Y201991D01*
X41743Y201996D01*
X41781Y201998D01*
X41823Y202000D01*
X41837D01*
X41854Y201998D01*
D02*
G37*
G36*
X152354Y201498D02*
X152378Y201496D01*
X152405Y201495D01*
X152438Y201489D01*
X152474Y201484D01*
X152512Y201476D01*
X152552Y201466D01*
X152594Y201454D01*
X152636Y201438D01*
X152678Y201420D01*
X152720Y201398D01*
X152760Y201373D01*
X152798Y201343D01*
X152833Y201311D01*
X152834Y201309D01*
X152840Y201302D01*
X152849Y201291D01*
X152860Y201274D01*
X152873Y201254D01*
X152887Y201231D01*
X152904Y201202D01*
X152918Y201169D01*
X152935Y201131D01*
X152951Y201089D01*
X152964Y201041D01*
X152976Y200990D01*
X152987Y200936D01*
X152995Y200876D01*
X153000Y200812D01*
Y200745D01*
X152700Y200703D01*
Y200707D01*
Y200716D01*
X152698Y200730D01*
X152696Y200750D01*
X152694Y200774D01*
X152691Y200799D01*
X152687Y200828D01*
X152682Y200861D01*
X152669Y200927D01*
X152651Y200992D01*
X152638Y201021D01*
X152625Y201050D01*
X152609Y201076D01*
X152592Y201098D01*
X152591Y201100D01*
X152589Y201101D01*
X152581Y201107D01*
X152574Y201114D01*
X152565Y201121D01*
X152552Y201131D01*
X152540Y201142D01*
X152523Y201151D01*
X152505Y201160D01*
X152485Y201171D01*
X152463Y201180D01*
X152439Y201187D01*
X152412Y201194D01*
X152385Y201198D01*
X152356Y201202D01*
X152325Y201203D01*
X152312D01*
X152303Y201202D01*
X152292D01*
X152279Y201200D01*
X152250Y201196D01*
X152217Y201189D01*
X152181Y201180D01*
X152143Y201165D01*
X152108Y201147D01*
X152106D01*
X152105Y201143D01*
X152094Y201136D01*
X152077Y201123D01*
X152059Y201105D01*
X152037Y201083D01*
X152017Y201056D01*
X151997Y201025D01*
X151983Y200990D01*
Y200989D01*
X151981Y200985D01*
X151979Y200979D01*
X151977Y200972D01*
X151975Y200961D01*
X151972Y200949D01*
X151968Y200932D01*
X151964Y200914D01*
X151963Y200894D01*
X151959Y200870D01*
X151955Y200845D01*
X151953Y200816D01*
X151952Y200785D01*
X151950Y200752D01*
X151948Y200716D01*
Y200676D01*
Y198939D01*
X151615D01*
Y200656D01*
Y200659D01*
Y200670D01*
Y200687D01*
X151617Y200708D01*
Y200734D01*
X151619Y200765D01*
X151622Y200799D01*
X151624Y200836D01*
X151630Y200874D01*
X151633Y200914D01*
X151648Y200996D01*
X151657Y201036D01*
X151668Y201074D01*
X151679Y201111D01*
X151693Y201145D01*
Y201147D01*
X151697Y201152D01*
X151700Y201162D01*
X151708Y201174D01*
X151715Y201189D01*
X151726Y201205D01*
X151739Y201223D01*
X151751Y201243D01*
X151768Y201263D01*
X151786Y201285D01*
X151806Y201307D01*
X151828Y201329D01*
X151852Y201351D01*
X151877Y201371D01*
X151904Y201391D01*
X151935Y201409D01*
X151937Y201411D01*
X151943Y201413D01*
X151952Y201418D01*
X151964Y201424D01*
X151981Y201431D01*
X151999Y201438D01*
X152021Y201445D01*
X152046Y201454D01*
X152074Y201464D01*
X152103Y201471D01*
X152136Y201478D01*
X152168Y201485D01*
X152205Y201491D01*
X152243Y201496D01*
X152281Y201498D01*
X152323Y201500D01*
X152338D01*
X152354Y201498D01*
D02*
G37*
G36*
X150407D02*
X150432Y201496D01*
X150463Y201493D01*
X150499Y201489D01*
X150541Y201482D01*
X150585Y201473D01*
X150632Y201460D01*
X150681Y201445D01*
X150731Y201429D01*
X150781Y201407D01*
X150832Y201382D01*
X150882Y201353D01*
X150927Y201318D01*
X150973Y201280D01*
X150974Y201278D01*
X150982Y201269D01*
X150994Y201258D01*
X151007Y201240D01*
X151025Y201218D01*
X151045Y201192D01*
X151065Y201163D01*
X151085Y201129D01*
X151107Y201091D01*
X151127Y201049D01*
X151147Y201003D01*
X151164Y200956D01*
X151178Y200903D01*
X151191Y200849D01*
X151198Y200790D01*
X151200Y200730D01*
Y200727D01*
Y200719D01*
Y200707D01*
X151198Y200688D01*
X151196Y200668D01*
X151193Y200643D01*
X151189Y200616D01*
X151184Y200586D01*
X151178Y200555D01*
X151169Y200521D01*
X151160Y200488D01*
X151147Y200453D01*
X151133Y200419D01*
X151116Y200384D01*
X151098Y200352D01*
X151076Y200319D01*
X151075Y200317D01*
X151071Y200312D01*
X151064Y200303D01*
X151053Y200292D01*
X151040Y200279D01*
X151023Y200262D01*
X151005Y200246D01*
X150985Y200228D01*
X150960Y200210D01*
X150934Y200191D01*
X150905Y200171D01*
X150873Y200153D01*
X150838Y200137D01*
X150802Y200120D01*
X150761Y200106D01*
X150720Y200093D01*
X150721D01*
X150729Y200090D01*
X150738Y200086D01*
X150751Y200080D01*
X150767Y200073D01*
X150785Y200064D01*
X150805Y200053D01*
X150827Y200042D01*
X150874Y200013D01*
X150922Y199978D01*
X150967Y199938D01*
X150987Y199917D01*
X151005Y199893D01*
X151007Y199891D01*
X151009Y199888D01*
X151014Y199880D01*
X151020Y199869D01*
X151027Y199857D01*
X151034Y199842D01*
X151043Y199824D01*
X151051Y199804D01*
X151060Y199782D01*
X151069Y199758D01*
X151076Y199733D01*
X151084Y199706D01*
X151094Y199645D01*
X151096Y199613D01*
X151098Y199580D01*
Y199576D01*
Y199567D01*
X151096Y199553D01*
X151094Y199534D01*
X151093Y199511D01*
X151087Y199484D01*
X151082Y199452D01*
X151073Y199420D01*
X151064Y199383D01*
X151051Y199347D01*
X151034Y199309D01*
X151014Y199269D01*
X150993Y199231D01*
X150967Y199190D01*
X150936Y199154D01*
X150902Y199118D01*
X150900Y199116D01*
X150892Y199110D01*
X150882Y199100D01*
X150865Y199089D01*
X150845Y199074D01*
X150821Y199058D01*
X150794Y199041D01*
X150761Y199023D01*
X150727Y199007D01*
X150687Y198990D01*
X150643Y198974D01*
X150596Y198959D01*
X150547Y198947D01*
X150492Y198937D01*
X150436Y198932D01*
X150376Y198930D01*
X150361D01*
X150345Y198932D01*
X150321Y198934D01*
X150294Y198936D01*
X150261Y198941D01*
X150224Y198947D01*
X150186Y198954D01*
X150145Y198965D01*
X150101Y198977D01*
X150057Y198992D01*
X150013Y199012D01*
X149970Y199034D01*
X149926Y199059D01*
X149884Y199089D01*
X149846Y199123D01*
X149844Y199125D01*
X149837Y199132D01*
X149828Y199143D01*
X149815Y199158D01*
X149799Y199176D01*
X149782Y199198D01*
X149764Y199223D01*
X149744Y199252D01*
X149726Y199285D01*
X149708Y199321D01*
X149691Y199360D01*
X149675Y199400D01*
X149662Y199443D01*
X149653Y199491D01*
X149646Y199538D01*
X149644Y199589D01*
Y199591D01*
Y199596D01*
Y199605D01*
X149646Y199618D01*
X149648Y199633D01*
X149649Y199651D01*
X149651Y199671D01*
X149655Y199693D01*
X149666Y199740D01*
X149682Y199791D01*
X149693Y199817D01*
X149706Y199842D01*
X149720Y199867D01*
X149737Y199893D01*
X149739Y199895D01*
X149740Y199898D01*
X149746Y199906D01*
X149755Y199915D01*
X149764Y199926D01*
X149777Y199937D01*
X149790Y199951D01*
X149806Y199966D01*
X149826Y199982D01*
X149846Y199998D01*
X149870Y200015D01*
X149893Y200031D01*
X149922Y200048D01*
X149952Y200064D01*
X149983Y200079D01*
X150017Y200093D01*
X150015D01*
X150006Y200097D01*
X149995Y200100D01*
X149979Y200108D01*
X149959Y200115D01*
X149937Y200126D01*
X149911Y200137D01*
X149886Y200151D01*
X149857Y200168D01*
X149828Y200186D01*
X149799Y200206D01*
X149769Y200228D01*
X149740Y200252D01*
X149713Y200279D01*
X149686Y200306D01*
X149662Y200337D01*
X149660Y200339D01*
X149657Y200344D01*
X149651Y200353D01*
X149642Y200366D01*
X149633Y200382D01*
X149624Y200403D01*
X149613Y200424D01*
X149600Y200450D01*
X149589Y200479D01*
X149578Y200508D01*
X149569Y200543D01*
X149558Y200577D01*
X149551Y200616D01*
X149546Y200654D01*
X149542Y200696D01*
X149540Y200739D01*
Y200743D01*
Y200754D01*
X149542Y200770D01*
X149544Y200794D01*
X149548Y200821D01*
X149553Y200852D01*
X149560Y200888D01*
X149569Y200928D01*
X149580Y200970D01*
X149597Y201014D01*
X149615Y201058D01*
X149637Y201103D01*
X149664Y201151D01*
X149693Y201194D01*
X149730Y201240D01*
X149769Y201282D01*
X149771Y201283D01*
X149780Y201291D01*
X149793Y201302D01*
X149811Y201316D01*
X149833Y201333D01*
X149862Y201351D01*
X149893Y201371D01*
X149930Y201391D01*
X149972Y201411D01*
X150017Y201431D01*
X150066Y201449D01*
X150119Y201466D01*
X150177Y201480D01*
X150237Y201491D01*
X150303Y201498D01*
X150370Y201500D01*
X150387D01*
X150407Y201498D01*
D02*
G37*
G36*
X226385Y202344D02*
Y202341D01*
Y202330D01*
Y202313D01*
X226383Y202292D01*
Y202266D01*
X226381Y202235D01*
X226378Y202201D01*
X226376Y202164D01*
X226370Y202126D01*
X226367Y202086D01*
X226352Y202004D01*
X226343Y201964D01*
X226332Y201926D01*
X226321Y201889D01*
X226307Y201855D01*
Y201853D01*
X226303Y201848D01*
X226299Y201838D01*
X226292Y201826D01*
X226285Y201811D01*
X226274Y201795D01*
X226261Y201777D01*
X226249Y201757D01*
X226232Y201737D01*
X226214Y201715D01*
X226194Y201693D01*
X226172Y201671D01*
X226148Y201649D01*
X226123Y201629D01*
X226096Y201609D01*
X226065Y201591D01*
X226063Y201589D01*
X226057Y201587D01*
X226048Y201582D01*
X226035Y201576D01*
X226019Y201569D01*
X226001Y201562D01*
X225979Y201554D01*
X225954Y201546D01*
X225926Y201536D01*
X225897Y201529D01*
X225864Y201522D01*
X225832Y201515D01*
X225795Y201509D01*
X225757Y201504D01*
X225719Y201502D01*
X225677Y201500D01*
X225662D01*
X225646Y201502D01*
X225622Y201504D01*
X225595Y201505D01*
X225562Y201511D01*
X225526Y201516D01*
X225488Y201524D01*
X225448Y201535D01*
X225406Y201546D01*
X225364Y201562D01*
X225322Y201580D01*
X225280Y201602D01*
X225240Y201627D01*
X225202Y201657D01*
X225167Y201689D01*
X225166Y201691D01*
X225160Y201698D01*
X225151Y201709D01*
X225140Y201726D01*
X225127Y201746D01*
X225113Y201769D01*
X225096Y201798D01*
X225082Y201831D01*
X225065Y201869D01*
X225049Y201911D01*
X225036Y201959D01*
X225024Y202010D01*
X225013Y202064D01*
X225005Y202124D01*
X225000Y202188D01*
Y202255D01*
X225300Y202297D01*
Y202293D01*
Y202284D01*
X225302Y202270D01*
X225304Y202250D01*
X225306Y202226D01*
X225309Y202201D01*
X225313Y202171D01*
X225318Y202139D01*
X225331Y202073D01*
X225349Y202008D01*
X225362Y201979D01*
X225375Y201950D01*
X225391Y201924D01*
X225408Y201902D01*
X225410Y201900D01*
X225411Y201899D01*
X225419Y201893D01*
X225426Y201886D01*
X225435Y201878D01*
X225448Y201869D01*
X225460Y201858D01*
X225477Y201849D01*
X225495Y201840D01*
X225515Y201829D01*
X225537Y201820D01*
X225560Y201813D01*
X225588Y201806D01*
X225615Y201802D01*
X225644Y201798D01*
X225675Y201797D01*
X225688D01*
X225697Y201798D01*
X225708D01*
X225721Y201800D01*
X225750Y201804D01*
X225782Y201811D01*
X225819Y201820D01*
X225857Y201835D01*
X225892Y201853D01*
X225894D01*
X225895Y201857D01*
X225906Y201864D01*
X225923Y201877D01*
X225941Y201895D01*
X225963Y201917D01*
X225983Y201944D01*
X226003Y201975D01*
X226017Y202010D01*
Y202011D01*
X226019Y202015D01*
X226021Y202021D01*
X226023Y202028D01*
X226025Y202039D01*
X226028Y202051D01*
X226032Y202068D01*
X226035Y202086D01*
X226037Y202106D01*
X226041Y202130D01*
X226045Y202155D01*
X226046Y202184D01*
X226048Y202215D01*
X226050Y202248D01*
X226052Y202284D01*
Y202324D01*
Y204061D01*
X226385D01*
Y202344D01*
D02*
G37*
G36*
X227968Y201542D02*
X227659D01*
Y203511D01*
X227657Y203509D01*
X227654Y203506D01*
X227648Y203500D01*
X227639Y203493D01*
X227628Y203484D01*
X227613Y203471D01*
X227597Y203458D01*
X227581Y203444D01*
X227559Y203429D01*
X227537Y203411D01*
X227513Y203395D01*
X227488Y203375D01*
X227459Y203356D01*
X227430Y203336D01*
X227364Y203296D01*
X227362Y203294D01*
X227357Y203291D01*
X227346Y203285D01*
X227333Y203280D01*
X227319Y203271D01*
X227300Y203260D01*
X227279Y203249D01*
X227257Y203236D01*
X227206Y203211D01*
X227151Y203185D01*
X227095Y203160D01*
X227040Y203138D01*
Y203436D01*
X227044Y203438D01*
X227051Y203442D01*
X227066Y203449D01*
X227084Y203458D01*
X227106Y203469D01*
X227133Y203484D01*
X227162Y203500D01*
X227193Y203518D01*
X227228Y203540D01*
X227264Y203562D01*
X227341Y203613D01*
X227419Y203669D01*
X227493Y203731D01*
X227495Y203733D01*
X227502Y203739D01*
X227512Y203748D01*
X227524Y203760D01*
X227541Y203777D01*
X227559Y203795D01*
X227579Y203817D01*
X227601Y203839D01*
X227623Y203864D01*
X227646Y203891D01*
X227692Y203948D01*
X227734Y204008D01*
X227752Y204039D01*
X227768Y204070D01*
X227968D01*
Y201542D01*
D02*
G37*
G36*
X229615Y204068D02*
X229632D01*
X229654Y204066D01*
X229676Y204063D01*
X229701Y204059D01*
X229756Y204050D01*
X229816Y204035D01*
X229878Y204015D01*
X229907Y204002D01*
X229936Y203988D01*
X229938D01*
X229943Y203984D01*
X229950Y203979D01*
X229961Y203973D01*
X229974Y203964D01*
X229989Y203953D01*
X230007Y203942D01*
X230025Y203928D01*
X230065Y203895D01*
X230107Y203853D01*
X230149Y203806D01*
X230187Y203751D01*
X230189Y203749D01*
X230191Y203744D01*
X230196Y203735D01*
X230203Y203724D01*
X230212Y203709D01*
X230222Y203691D01*
X230233Y203671D01*
X230243Y203648D01*
X230256Y203622D01*
X230269Y203593D01*
X230282Y203562D01*
X230296Y203529D01*
X230309Y203495D01*
X230320Y203458D01*
X230332Y203418D01*
X230344Y203378D01*
Y203376D01*
X230345Y203367D01*
X230349Y203356D01*
X230353Y203338D01*
X230356Y203316D01*
X230362Y203289D01*
X230367Y203258D01*
X230373Y203222D01*
X230378Y203182D01*
X230383Y203136D01*
X230389Y203087D01*
X230393Y203034D01*
X230396Y202978D01*
X230400Y202916D01*
X230402Y202852D01*
Y202783D01*
Y202781D01*
Y202778D01*
Y202772D01*
Y202763D01*
Y202754D01*
Y202741D01*
X230400Y202727D01*
Y202710D01*
X230398Y202672D01*
X230396Y202628D01*
X230394Y202581D01*
X230391Y202528D01*
X230385Y202472D01*
X230380Y202414D01*
X230363Y202295D01*
X230353Y202235D01*
X230340Y202177D01*
X230325Y202121D01*
X230309Y202068D01*
X230307Y202064D01*
X230305Y202055D01*
X230300Y202042D01*
X230293Y202022D01*
X230282Y202000D01*
X230271Y201973D01*
X230256Y201944D01*
X230242Y201913D01*
X230223Y201880D01*
X230202Y201846D01*
X230180Y201811D01*
X230156Y201775D01*
X230129Y201740D01*
X230100Y201707D01*
X230069Y201677D01*
X230036Y201647D01*
X230034Y201646D01*
X230027Y201642D01*
X230018Y201635D01*
X230003Y201624D01*
X229985Y201613D01*
X229965Y201600D01*
X229939Y201587D01*
X229912Y201575D01*
X229879Y201560D01*
X229845Y201547D01*
X229808Y201535D01*
X229768Y201524D01*
X229725Y201515D01*
X229679Y201507D01*
X229632Y201502D01*
X229581Y201500D01*
X229564D01*
X229546Y201502D01*
X229521Y201504D01*
X229490Y201507D01*
X229453Y201515D01*
X229415Y201522D01*
X229372Y201533D01*
X229326Y201546D01*
X229281Y201564D01*
X229233Y201584D01*
X229184Y201609D01*
X229137Y201638D01*
X229091Y201673D01*
X229048Y201713D01*
X229008Y201758D01*
Y201760D01*
X229006Y201762D01*
X229002Y201767D01*
X228997Y201773D01*
X228991Y201782D01*
X228984Y201793D01*
X228977Y201804D01*
X228969Y201818D01*
X228960Y201835D01*
X228949Y201853D01*
X228940Y201873D01*
X228929Y201895D01*
X228918Y201920D01*
X228907Y201946D01*
X228895Y201975D01*
X228884Y202004D01*
X228873Y202037D01*
X228860Y202071D01*
X228849Y202108D01*
X228838Y202148D01*
X228827Y202188D01*
X228818Y202232D01*
X228807Y202275D01*
X228798Y202324D01*
X228791Y202374D01*
X228784Y202425D01*
X228777Y202479D01*
X228771Y202536D01*
X228766Y202594D01*
X228764Y202654D01*
X228760Y202717D01*
Y202783D01*
Y202785D01*
Y202788D01*
Y202794D01*
Y202803D01*
Y202814D01*
Y202827D01*
X228762Y202841D01*
Y202858D01*
X228764Y202894D01*
X228766Y202938D01*
X228767Y202987D01*
X228771Y203040D01*
X228777Y203096D01*
X228782Y203154D01*
X228798Y203274D01*
X228809Y203334D01*
X228822Y203393D01*
X228835Y203449D01*
X228851Y203502D01*
X228853Y203506D01*
X228855Y203515D01*
X228860Y203527D01*
X228868Y203548D01*
X228878Y203569D01*
X228889Y203597D01*
X228904Y203626D01*
X228920Y203657D01*
X228937Y203689D01*
X228958Y203724D01*
X228980Y203760D01*
X229004Y203795D01*
X229031Y203830D01*
X229060Y203862D01*
X229091Y203893D01*
X229124Y203922D01*
X229126Y203924D01*
X229133Y203930D01*
X229142Y203937D01*
X229157Y203946D01*
X229175Y203957D01*
X229197Y203970D01*
X229221Y203982D01*
X229250Y203997D01*
X229281Y204010D01*
X229315Y204023D01*
X229353Y204035D01*
X229393Y204046D01*
X229437Y204057D01*
X229483Y204064D01*
X229530Y204068D01*
X229581Y204070D01*
X229601D01*
X229615Y204068D01*
D02*
G37*
G36*
X193385Y202344D02*
Y202341D01*
Y202330D01*
Y202313D01*
X193383Y202292D01*
Y202266D01*
X193381Y202235D01*
X193378Y202201D01*
X193376Y202164D01*
X193370Y202126D01*
X193367Y202086D01*
X193352Y202004D01*
X193343Y201964D01*
X193332Y201926D01*
X193321Y201889D01*
X193307Y201855D01*
Y201853D01*
X193303Y201848D01*
X193299Y201838D01*
X193292Y201826D01*
X193285Y201811D01*
X193274Y201795D01*
X193261Y201777D01*
X193248Y201757D01*
X193232Y201737D01*
X193214Y201715D01*
X193194Y201693D01*
X193172Y201671D01*
X193148Y201649D01*
X193123Y201629D01*
X193096Y201609D01*
X193065Y201591D01*
X193063Y201589D01*
X193057Y201587D01*
X193048Y201582D01*
X193035Y201576D01*
X193019Y201569D01*
X193001Y201562D01*
X192979Y201554D01*
X192954Y201546D01*
X192926Y201536D01*
X192897Y201529D01*
X192865Y201522D01*
X192832Y201515D01*
X192795Y201509D01*
X192757Y201504D01*
X192719Y201502D01*
X192677Y201500D01*
X192662D01*
X192646Y201502D01*
X192622Y201504D01*
X192595Y201505D01*
X192562Y201511D01*
X192526Y201516D01*
X192488Y201524D01*
X192448Y201535D01*
X192406Y201546D01*
X192364Y201562D01*
X192322Y201580D01*
X192280Y201602D01*
X192240Y201627D01*
X192202Y201657D01*
X192167Y201689D01*
X192166Y201691D01*
X192160Y201698D01*
X192151Y201709D01*
X192140Y201726D01*
X192127Y201746D01*
X192113Y201769D01*
X192096Y201798D01*
X192082Y201831D01*
X192066Y201869D01*
X192049Y201911D01*
X192036Y201959D01*
X192024Y202010D01*
X192013Y202064D01*
X192005Y202124D01*
X192000Y202188D01*
Y202255D01*
X192300Y202297D01*
Y202293D01*
Y202284D01*
X192302Y202270D01*
X192304Y202250D01*
X192306Y202226D01*
X192309Y202201D01*
X192313Y202171D01*
X192318Y202139D01*
X192331Y202073D01*
X192349Y202008D01*
X192362Y201979D01*
X192375Y201950D01*
X192391Y201924D01*
X192408Y201902D01*
X192409Y201900D01*
X192411Y201899D01*
X192419Y201893D01*
X192426Y201886D01*
X192435Y201878D01*
X192448Y201869D01*
X192460Y201858D01*
X192477Y201849D01*
X192495Y201840D01*
X192515Y201829D01*
X192537Y201820D01*
X192561Y201813D01*
X192588Y201806D01*
X192615Y201802D01*
X192644Y201798D01*
X192675Y201797D01*
X192688D01*
X192697Y201798D01*
X192708D01*
X192721Y201800D01*
X192750Y201804D01*
X192782Y201811D01*
X192819Y201820D01*
X192857Y201835D01*
X192892Y201853D01*
X192894D01*
X192895Y201857D01*
X192906Y201864D01*
X192923Y201877D01*
X192941Y201895D01*
X192963Y201917D01*
X192983Y201944D01*
X193003Y201975D01*
X193017Y202010D01*
Y202011D01*
X193019Y202015D01*
X193021Y202021D01*
X193023Y202028D01*
X193025Y202039D01*
X193028Y202051D01*
X193032Y202068D01*
X193035Y202086D01*
X193037Y202106D01*
X193041Y202130D01*
X193045Y202155D01*
X193046Y202184D01*
X193048Y202215D01*
X193050Y202248D01*
X193052Y202284D01*
Y202324D01*
Y204061D01*
X193385D01*
Y202344D01*
D02*
G37*
G36*
X194637Y204068D02*
X194659Y204066D01*
X194684Y204063D01*
X194712Y204059D01*
X194743Y204053D01*
X194777Y204046D01*
X194812Y204037D01*
X194850Y204026D01*
X194888Y204013D01*
X194927Y203999D01*
X194967Y203981D01*
X195005Y203961D01*
X195043Y203937D01*
X195045Y203935D01*
X195052Y203931D01*
X195063Y203922D01*
X195076Y203913D01*
X195094Y203899D01*
X195114Y203882D01*
X195134Y203862D01*
X195158Y203840D01*
X195183Y203815D01*
X195209Y203786D01*
X195234Y203755D01*
X195260Y203720D01*
X195285Y203684D01*
X195309Y203646D01*
X195332Y203604D01*
X195352Y203558D01*
X195354Y203555D01*
X195358Y203548D01*
X195361Y203533D01*
X195369Y203513D01*
X195378Y203487D01*
X195387Y203456D01*
X195396Y203420D01*
X195407Y203378D01*
X195416Y203331D01*
X195425Y203278D01*
X195434Y203222D01*
X195443Y203158D01*
X195451Y203089D01*
X195454Y203016D01*
X195458Y202936D01*
X195460Y202852D01*
Y202850D01*
Y202847D01*
Y202839D01*
Y202830D01*
Y202819D01*
Y202807D01*
X195458Y202790D01*
Y202772D01*
Y202752D01*
X195456Y202732D01*
X195454Y202685D01*
X195451Y202632D01*
X195447Y202576D01*
X195442Y202516D01*
X195434Y202454D01*
X195425Y202388D01*
X195416Y202324D01*
X195403Y202261D01*
X195389Y202199D01*
X195372Y202141D01*
X195354Y202084D01*
X195352Y202080D01*
X195349Y202071D01*
X195343Y202057D01*
X195334Y202037D01*
X195323Y202013D01*
X195310Y201986D01*
X195294Y201955D01*
X195276Y201922D01*
X195254Y201888D01*
X195232Y201853D01*
X195205Y201817D01*
X195178Y201780D01*
X195147Y201746D01*
X195114Y201711D01*
X195079Y201678D01*
X195041Y201649D01*
X195039Y201647D01*
X195032Y201644D01*
X195021Y201635D01*
X195005Y201625D01*
X194985Y201615D01*
X194961Y201602D01*
X194934Y201589D01*
X194903Y201575D01*
X194870Y201560D01*
X194832Y201547D01*
X194794Y201535D01*
X194750Y201524D01*
X194704Y201515D01*
X194657Y201507D01*
X194608Y201502D01*
X194557Y201500D01*
X194544D01*
X194528Y201502D01*
X194508D01*
X194482Y201505D01*
X194453Y201509D01*
X194421Y201515D01*
X194386Y201520D01*
X194348Y201529D01*
X194308Y201540D01*
X194268Y201553D01*
X194228Y201569D01*
X194188Y201587D01*
X194148Y201609D01*
X194109Y201635D01*
X194073Y201664D01*
X194071Y201666D01*
X194066Y201671D01*
X194055Y201680D01*
X194044Y201695D01*
X194029Y201711D01*
X194011Y201731D01*
X193993Y201755D01*
X193975Y201784D01*
X193955Y201815D01*
X193936Y201849D01*
X193916Y201886D01*
X193900Y201928D01*
X193884Y201973D01*
X193869Y202021D01*
X193858Y202071D01*
X193849Y202126D01*
X194146Y202153D01*
Y202151D01*
X194148Y202144D01*
X194149Y202133D01*
X194153Y202119D01*
X194157Y202102D01*
X194162Y202082D01*
X194169Y202059D01*
X194177Y202037D01*
X194197Y201986D01*
X194222Y201935D01*
X194253Y201888D01*
X194270Y201866D01*
X194290Y201848D01*
X194291Y201846D01*
X194295Y201844D01*
X194300Y201838D01*
X194309Y201833D01*
X194319Y201826D01*
X194331Y201818D01*
X194348Y201809D01*
X194364Y201802D01*
X194382Y201793D01*
X194404Y201784D01*
X194450Y201769D01*
X194502Y201758D01*
X194532Y201757D01*
X194562Y201755D01*
X194577D01*
X194586Y201757D01*
X194599D01*
X194614Y201758D01*
X194648Y201762D01*
X194686Y201771D01*
X194730Y201782D01*
X194772Y201797D01*
X194814Y201818D01*
X194816D01*
X194819Y201822D01*
X194825Y201826D01*
X194832Y201831D01*
X194852Y201846D01*
X194876Y201866D01*
X194903Y201889D01*
X194932Y201920D01*
X194961Y201955D01*
X194988Y201993D01*
Y201995D01*
X194992Y201999D01*
X194996Y202004D01*
X194999Y202013D01*
X195007Y202024D01*
X195012Y202037D01*
X195021Y202053D01*
X195028Y202071D01*
X195037Y202092D01*
X195047Y202113D01*
X195056Y202137D01*
X195067Y202162D01*
X195076Y202192D01*
X195085Y202221D01*
X195094Y202253D01*
X195103Y202286D01*
Y202288D01*
X195105Y202295D01*
X195107Y202304D01*
X195110Y202319D01*
X195114Y202335D01*
X195118Y202355D01*
X195123Y202377D01*
X195127Y202403D01*
X195130Y202430D01*
X195136Y202461D01*
X195143Y202525D01*
X195149Y202594D01*
X195150Y202665D01*
Y202667D01*
Y202668D01*
Y202674D01*
Y202679D01*
Y202688D01*
Y202699D01*
Y202712D01*
Y202727D01*
X195149Y202725D01*
X195147Y202719D01*
X195141Y202712D01*
X195134Y202701D01*
X195123Y202688D01*
X195112Y202674D01*
X195099Y202658D01*
X195083Y202641D01*
X195067Y202621D01*
X195047Y202603D01*
X195027Y202583D01*
X195003Y202563D01*
X194954Y202523D01*
X194896Y202486D01*
X194894Y202485D01*
X194888Y202483D01*
X194879Y202477D01*
X194868Y202472D01*
X194852Y202465D01*
X194835Y202457D01*
X194816Y202450D01*
X194792Y202441D01*
X194766Y202432D01*
X194741Y202425D01*
X194681Y202410D01*
X194617Y202399D01*
X194582Y202397D01*
X194548Y202395D01*
X194533D01*
X194517Y202397D01*
X194495Y202399D01*
X194470Y202403D01*
X194437Y202408D01*
X194402Y202414D01*
X194364Y202425D01*
X194324Y202435D01*
X194280Y202450D01*
X194237Y202468D01*
X194193Y202490D01*
X194148Y202517D01*
X194104Y202547D01*
X194060Y202581D01*
X194018Y202621D01*
X194017Y202623D01*
X194009Y202632D01*
X193998Y202645D01*
X193986Y202663D01*
X193969Y202685D01*
X193951Y202712D01*
X193931Y202745D01*
X193911Y202781D01*
X193891Y202821D01*
X193871Y202867D01*
X193853Y202916D01*
X193836Y202969D01*
X193824Y203025D01*
X193813Y203087D01*
X193805Y203151D01*
X193804Y203218D01*
Y203220D01*
Y203222D01*
Y203227D01*
Y203234D01*
X193805Y203243D01*
Y203254D01*
X193807Y203282D01*
X193811Y203314D01*
X193816Y203353D01*
X193822Y203395D01*
X193833Y203440D01*
X193844Y203487D01*
X193858Y203538D01*
X193876Y203589D01*
X193898Y203640D01*
X193925Y203691D01*
X193955Y203742D01*
X193989Y203789D01*
X194029Y203835D01*
X194031Y203837D01*
X194040Y203846D01*
X194053Y203857D01*
X194069Y203871D01*
X194091Y203890D01*
X194118Y203910D01*
X194149Y203931D01*
X194184Y203953D01*
X194224Y203975D01*
X194266Y203995D01*
X194313Y204015D01*
X194364Y204033D01*
X194417Y204048D01*
X194473Y204059D01*
X194533Y204068D01*
X194595Y204070D01*
X194619D01*
X194637Y204068D01*
D02*
G37*
G36*
X98857Y22498D02*
X98884D01*
X98919Y22495D01*
X98959Y22491D01*
X99005Y22486D01*
X99052Y22480D01*
X99105Y22471D01*
X99157Y22460D01*
X99214Y22445D01*
X99268Y22431D01*
X99323Y22411D01*
X99378Y22389D01*
X99430Y22364D01*
X99480Y22334D01*
X99483Y22333D01*
X99490Y22327D01*
X99503Y22316D01*
X99521Y22303D01*
X99543Y22287D01*
X99567Y22265D01*
X99594Y22242D01*
X99623Y22212D01*
X99654Y22180D01*
X99685Y22145D01*
X99718Y22105D01*
X99751Y22063D01*
X99782Y22016D01*
X99813Y21967D01*
X99842Y21912D01*
X99867Y21856D01*
Y21854D01*
X99869Y21852D01*
X99873Y21841D01*
X99880Y21825D01*
X99887Y21801D01*
X99898Y21772D01*
X99909Y21737D01*
X99922Y21697D01*
X99933Y21654D01*
X99945Y21605D01*
X99958Y21552D01*
X99969Y21497D01*
X99980Y21437D01*
X99987Y21377D01*
X99995Y21313D01*
X99998Y21248D01*
X100000Y21181D01*
Y21179D01*
Y21175D01*
Y21170D01*
Y21162D01*
Y21153D01*
X99998Y21142D01*
Y21115D01*
X99995Y21080D01*
X99993Y21040D01*
X99987Y20995D01*
X99982Y20946D01*
X99973Y20895D01*
X99964Y20840D01*
X99951Y20782D01*
X99936Y20724D01*
X99920Y20665D01*
X99900Y20607D01*
X99876Y20551D01*
X99851Y20494D01*
X99849Y20491D01*
X99844Y20482D01*
X99834Y20467D01*
X99823Y20445D01*
X99807Y20422D01*
X99789Y20394D01*
X99765Y20361D01*
X99740Y20329D01*
X99713Y20294D01*
X99680Y20256D01*
X99645Y20220D01*
X99607Y20183D01*
X99565Y20147D01*
X99521Y20112D01*
X99474Y20079D01*
X99423Y20049D01*
X99419Y20047D01*
X99410Y20041D01*
X99396Y20034D01*
X99374Y20025D01*
X99348Y20012D01*
X99318Y19999D01*
X99281Y19987D01*
X99243Y19972D01*
X99199Y19958D01*
X99152Y19945D01*
X99101Y19930D01*
X99048Y19919D01*
X98992Y19910D01*
X98934Y19903D01*
X98874Y19897D01*
X98812Y19896D01*
X98786D01*
X98775Y19897D01*
X98748Y19899D01*
X98715Y19901D01*
X98679Y19906D01*
X98637Y19912D01*
X98589Y19919D01*
X98540Y19930D01*
X98489Y19943D01*
X98437Y19958D01*
X98384Y19977D01*
X98331Y19999D01*
X98277Y20025D01*
X98225Y20054D01*
X98176Y20088D01*
X98173Y20090D01*
X98166Y20098D01*
X98151Y20109D01*
X98134Y20125D01*
X98113Y20143D01*
X98089Y20169D01*
X98063Y20196D01*
X98034Y20229D01*
X98005Y20265D01*
X97974Y20305D01*
X97945Y20351D01*
X97916Y20398D01*
X97887Y20451D01*
X97861Y20507D01*
X97836Y20567D01*
X97816Y20631D01*
X98144Y20707D01*
X98146Y20704D01*
X98147Y20695D01*
X98153Y20682D01*
X98160Y20662D01*
X98169Y20640D01*
X98180Y20615D01*
X98195Y20585D01*
X98209Y20554D01*
X98225Y20522D01*
X98246Y20489D01*
X98266Y20456D01*
X98289Y20422D01*
X98315Y20391D01*
X98340Y20360D01*
X98369Y20332D01*
X98400Y20307D01*
X98402Y20305D01*
X98408Y20301D01*
X98417Y20296D01*
X98429Y20287D01*
X98446Y20278D01*
X98466Y20267D01*
X98489Y20256D01*
X98515Y20243D01*
X98544Y20232D01*
X98575Y20221D01*
X98610Y20211D01*
X98646Y20201D01*
X98686Y20192D01*
X98728Y20187D01*
X98772Y20183D01*
X98819Y20181D01*
X98846D01*
X98866Y20183D01*
X98892Y20185D01*
X98921Y20189D01*
X98953Y20192D01*
X98988Y20200D01*
X99026Y20207D01*
X99064Y20216D01*
X99105Y20227D01*
X99146Y20240D01*
X99186Y20256D01*
X99226Y20276D01*
X99267Y20296D01*
X99305Y20322D01*
X99307Y20323D01*
X99314Y20327D01*
X99323Y20336D01*
X99336Y20347D01*
X99352Y20361D01*
X99370Y20378D01*
X99390Y20398D01*
X99412Y20420D01*
X99434Y20445D01*
X99458Y20473D01*
X99480Y20504D01*
X99501Y20538D01*
X99523Y20573D01*
X99543Y20611D01*
X99561Y20651D01*
X99578Y20695D01*
Y20696D01*
X99581Y20706D01*
X99585Y20718D01*
X99590Y20735D01*
X99596Y20756D01*
X99603Y20782D01*
X99609Y20811D01*
X99616Y20844D01*
X99623Y20878D01*
X99631Y20917D01*
X99638Y20957D01*
X99643Y20999D01*
X99652Y21086D01*
X99654Y21131D01*
X99656Y21179D01*
Y21182D01*
Y21193D01*
Y21210D01*
X99654Y21233D01*
X99652Y21261D01*
X99651Y21293D01*
X99649Y21330D01*
X99645Y21368D01*
X99640Y21412D01*
X99634Y21457D01*
X99616Y21550D01*
X99607Y21599D01*
X99594Y21646D01*
X99580Y21694D01*
X99563Y21739D01*
X99561Y21741D01*
X99560Y21750D01*
X99554Y21761D01*
X99545Y21778D01*
X99536Y21798D01*
X99523Y21821D01*
X99509Y21847D01*
X99492Y21874D01*
X99472Y21901D01*
X99450Y21930D01*
X99427Y21961D01*
X99401Y21990D01*
X99372Y22020D01*
X99341Y22047D01*
X99308Y22072D01*
X99272Y22096D01*
X99270Y22098D01*
X99263Y22101D01*
X99252Y22107D01*
X99238Y22114D01*
X99219Y22123D01*
X99197Y22134D01*
X99172Y22143D01*
X99145Y22154D01*
X99114Y22167D01*
X99081Y22176D01*
X99045Y22187D01*
X99008Y22196D01*
X98968Y22203D01*
X98928Y22209D01*
X98886Y22212D01*
X98844Y22214D01*
X98832D01*
X98817Y22212D01*
X98797D01*
X98773Y22209D01*
X98746Y22205D01*
X98713Y22202D01*
X98681Y22194D01*
X98644Y22185D01*
X98606Y22174D01*
X98566Y22162D01*
X98526Y22147D01*
X98486Y22129D01*
X98446Y22107D01*
X98408Y22081D01*
X98369Y22054D01*
X98368Y22052D01*
X98360Y22047D01*
X98351Y22038D01*
X98338Y22023D01*
X98322Y22007D01*
X98304Y21987D01*
X98284Y21961D01*
X98264Y21934D01*
X98242Y21901D01*
X98220Y21867D01*
X98196Y21827D01*
X98176Y21783D01*
X98154Y21737D01*
X98136Y21687D01*
X98120Y21634D01*
X98105Y21576D01*
X97772Y21659D01*
Y21661D01*
X97774Y21665D01*
X97776Y21670D01*
X97778Y21677D01*
X97780Y21687D01*
X97783Y21699D01*
X97792Y21726D01*
X97805Y21761D01*
X97820Y21799D01*
X97838Y21843D01*
X97860Y21890D01*
X97883Y21941D01*
X97911Y21992D01*
X97942Y22043D01*
X97976Y22096D01*
X98014Y22147D01*
X98056Y22196D01*
X98102Y22242D01*
X98151Y22285D01*
X98154Y22287D01*
X98164Y22294D01*
X98178Y22305D01*
X98200Y22318D01*
X98225Y22334D01*
X98258Y22353D01*
X98295Y22373D01*
X98336Y22393D01*
X98382Y22413D01*
X98433Y22433D01*
X98488Y22451D01*
X98546Y22467D01*
X98610Y22480D01*
X98675Y22491D01*
X98744Y22498D01*
X98817Y22500D01*
X98844D01*
X98857Y22498D01*
D02*
G37*
G36*
X96496Y21856D02*
X97588D01*
Y21572D01*
X96440Y19939D01*
X96187D01*
Y21572D01*
X95847D01*
Y21856D01*
X96187D01*
Y22458D01*
X96496D01*
Y21856D01*
D02*
G37*
G36*
X114854Y201998D02*
X114878Y201996D01*
X114905Y201995D01*
X114938Y201989D01*
X114974Y201984D01*
X115012Y201976D01*
X115052Y201965D01*
X115094Y201955D01*
X115136Y201938D01*
X115178Y201920D01*
X115220Y201898D01*
X115260Y201873D01*
X115298Y201844D01*
X115333Y201811D01*
X115334Y201809D01*
X115340Y201802D01*
X115349Y201791D01*
X115360Y201774D01*
X115373Y201754D01*
X115387Y201731D01*
X115404Y201701D01*
X115418Y201669D01*
X115435Y201631D01*
X115451Y201589D01*
X115464Y201541D01*
X115476Y201490D01*
X115487Y201436D01*
X115495Y201376D01*
X115500Y201312D01*
Y201245D01*
X115200Y201203D01*
Y201206D01*
Y201216D01*
X115198Y201230D01*
X115196Y201250D01*
X115194Y201274D01*
X115191Y201299D01*
X115187Y201328D01*
X115182Y201361D01*
X115169Y201427D01*
X115151Y201492D01*
X115138Y201521D01*
X115125Y201551D01*
X115109Y201576D01*
X115092Y201598D01*
X115091Y201600D01*
X115089Y201601D01*
X115081Y201607D01*
X115074Y201614D01*
X115065Y201622D01*
X115052Y201631D01*
X115040Y201642D01*
X115023Y201651D01*
X115005Y201660D01*
X114985Y201671D01*
X114963Y201680D01*
X114939Y201687D01*
X114912Y201694D01*
X114885Y201698D01*
X114856Y201701D01*
X114825Y201703D01*
X114812D01*
X114803Y201701D01*
X114792D01*
X114779Y201700D01*
X114750Y201696D01*
X114717Y201689D01*
X114681Y201680D01*
X114643Y201665D01*
X114608Y201647D01*
X114606D01*
X114605Y201643D01*
X114594Y201636D01*
X114577Y201623D01*
X114559Y201605D01*
X114537Y201583D01*
X114517Y201556D01*
X114497Y201525D01*
X114483Y201490D01*
Y201489D01*
X114481Y201485D01*
X114479Y201480D01*
X114477Y201472D01*
X114475Y201461D01*
X114472Y201449D01*
X114468Y201432D01*
X114464Y201414D01*
X114463Y201394D01*
X114459Y201370D01*
X114455Y201345D01*
X114453Y201316D01*
X114452Y201285D01*
X114450Y201252D01*
X114448Y201216D01*
Y201176D01*
Y199439D01*
X114115D01*
Y201155D01*
Y201159D01*
Y201170D01*
Y201186D01*
X114117Y201208D01*
Y201234D01*
X114119Y201265D01*
X114122Y201299D01*
X114124Y201336D01*
X114130Y201374D01*
X114133Y201414D01*
X114148Y201496D01*
X114157Y201536D01*
X114168Y201574D01*
X114179Y201610D01*
X114193Y201645D01*
Y201647D01*
X114197Y201652D01*
X114200Y201661D01*
X114208Y201674D01*
X114215Y201689D01*
X114226Y201705D01*
X114239Y201723D01*
X114251Y201743D01*
X114268Y201763D01*
X114286Y201785D01*
X114306Y201807D01*
X114328Y201829D01*
X114352Y201851D01*
X114377Y201871D01*
X114404Y201891D01*
X114435Y201909D01*
X114437Y201911D01*
X114443Y201913D01*
X114452Y201918D01*
X114464Y201924D01*
X114481Y201931D01*
X114499Y201938D01*
X114521Y201945D01*
X114546Y201955D01*
X114574Y201964D01*
X114603Y201971D01*
X114636Y201978D01*
X114668Y201986D01*
X114705Y201991D01*
X114743Y201996D01*
X114781Y201998D01*
X114823Y202000D01*
X114838D01*
X114854Y201998D01*
D02*
G37*
G36*
X113323Y201955D02*
Y201945D01*
X113321Y201927D01*
Y201905D01*
X113320Y201876D01*
X113316Y201842D01*
X113312Y201802D01*
X113307Y201758D01*
X113302Y201707D01*
X113294Y201652D01*
X113285Y201594D01*
X113274Y201531D01*
X113260Y201463D01*
X113245Y201392D01*
X113229Y201318D01*
X113209Y201241D01*
Y201239D01*
X113207Y201236D01*
X113205Y201230D01*
X113203Y201223D01*
X113199Y201212D01*
X113196Y201199D01*
X113192Y201185D01*
X113187Y201168D01*
X113176Y201132D01*
X113161Y201086D01*
X113145Y201037D01*
X113127Y200981D01*
X113105Y200921D01*
X113081Y200857D01*
X113054Y200790D01*
X113027Y200721D01*
X112996Y200650D01*
X112961Y200577D01*
X112926Y200502D01*
X112888Y200429D01*
Y200428D01*
X112887Y200426D01*
X112883Y200420D01*
X112879Y200411D01*
X112874Y200402D01*
X112866Y200391D01*
X112852Y200364D01*
X112832Y200331D01*
X112810Y200291D01*
X112783Y200247D01*
X112754Y200200D01*
X112723Y200149D01*
X112688Y200096D01*
X112650Y200042D01*
X112612Y199985D01*
X112530Y199874D01*
X112486Y199820D01*
X112442Y199769D01*
X113676D01*
Y199472D01*
X112046D01*
Y199712D01*
X112048Y199716D01*
X112057Y199723D01*
X112069Y199740D01*
X112088Y199760D01*
X112109Y199785D01*
X112135Y199816D01*
X112164Y199852D01*
X112195Y199894D01*
X112230Y199940D01*
X112268Y199991D01*
X112308Y200047D01*
X112348Y200107D01*
X112391Y200173D01*
X112433Y200242D01*
X112479Y200315D01*
X112522Y200393D01*
Y200395D01*
X112524Y200398D01*
X112528Y200404D01*
X112533Y200411D01*
X112539Y200422D01*
X112544Y200435D01*
X112553Y200449D01*
X112561Y200466D01*
X112572Y200484D01*
X112581Y200506D01*
X112604Y200551D01*
X112630Y200602D01*
X112657Y200660D01*
X112686Y200724D01*
X112715Y200793D01*
X112746Y200864D01*
X112776Y200941D01*
X112806Y201019D01*
X112834Y201099D01*
X112861Y201183D01*
X112887Y201267D01*
X112888Y201270D01*
X112890Y201281D01*
X112896Y201297D01*
X112901Y201321D01*
X112908Y201352D01*
X112917Y201387D01*
X112926Y201427D01*
X112936Y201472D01*
X112947Y201521D01*
X112956Y201574D01*
X112967Y201632D01*
X112976Y201693D01*
X112985Y201754D01*
X112992Y201820D01*
X112999Y201889D01*
X113005Y201958D01*
X113323D01*
Y201955D01*
D02*
G37*
%LPC*%
G36*
X36667Y86203D02*
X36088D01*
X36068Y86202D01*
X36044D01*
X36017Y86200D01*
X35988Y86198D01*
X35926Y86192D01*
X35861Y86183D01*
X35797Y86172D01*
X35768Y86165D01*
X35741Y86158D01*
X35739D01*
X35735Y86156D01*
X35726Y86152D01*
X35717Y86149D01*
X35704Y86145D01*
X35691Y86138D01*
X35659Y86123D01*
X35622Y86105D01*
X35584Y86083D01*
X35548Y86056D01*
X35513Y86027D01*
X35511Y86025D01*
X35508Y86021D01*
X35502Y86014D01*
X35493Y86005D01*
X35484Y85994D01*
X35473Y85979D01*
X35460Y85961D01*
X35446Y85943D01*
X35431Y85921D01*
X35417Y85898D01*
X35400Y85870D01*
X35386Y85843D01*
X35371Y85812D01*
X35357Y85779D01*
X35342Y85745D01*
X35329Y85708D01*
Y85707D01*
X35326Y85699D01*
X35324Y85688D01*
X35318Y85672D01*
X35313Y85654D01*
X35307Y85630D01*
X35302Y85603D01*
X35295Y85572D01*
X35289Y85539D01*
X35284Y85501D01*
X35278Y85461D01*
X35273Y85419D01*
X35267Y85374D01*
X35266Y85326D01*
X35262Y85275D01*
Y85222D01*
Y85221D01*
Y85219D01*
Y85213D01*
Y85204D01*
Y85195D01*
Y85184D01*
X35264Y85157D01*
X35266Y85124D01*
X35269Y85086D01*
X35273Y85044D01*
X35278Y84999D01*
X35286Y84951D01*
X35295Y84900D01*
X35304Y84851D01*
X35317Y84800D01*
X35333Y84751D01*
X35349Y84704D01*
X35369Y84658D01*
X35393Y84616D01*
X35395Y84614D01*
X35398Y84607D01*
X35406Y84596D01*
X35417Y84582D01*
X35429Y84565D01*
X35444Y84545D01*
X35460Y84523D01*
X35480Y84500D01*
X35502Y84476D01*
X35526Y84452D01*
X35553Y84429D01*
X35580Y84405D01*
X35610Y84383D01*
X35640Y84363D01*
X35673Y84345D01*
X35708Y84331D01*
X35710D01*
X35713Y84329D01*
X35722Y84325D01*
X35733Y84321D01*
X35748Y84318D01*
X35766Y84314D01*
X35788Y84309D01*
X35812Y84303D01*
X35841Y84300D01*
X35872Y84294D01*
X35908Y84290D01*
X35946Y84285D01*
X35990Y84283D01*
X36035Y84280D01*
X36085Y84278D01*
X36667D01*
Y86203D01*
D02*
G37*
G36*
X12072Y60795D02*
X10936D01*
X12072Y60006D01*
Y60795D01*
D02*
G37*
G36*
X76843Y201745D02*
X76834D01*
X76823Y201743D01*
X76810D01*
X76794Y201740D01*
X76774Y201736D01*
X76752Y201732D01*
X76726Y201725D01*
X76701Y201718D01*
X76674Y201707D01*
X76646Y201694D01*
X76617Y201680D01*
X76590Y201661D01*
X76561Y201640D01*
X76533Y201616D01*
X76506Y201589D01*
X76504Y201587D01*
X76501Y201581D01*
X76493Y201572D01*
X76484Y201560D01*
X76473Y201543D01*
X76461Y201525D01*
X76448Y201501D01*
X76435Y201476D01*
X76422Y201447D01*
X76410Y201414D01*
X76397Y201379D01*
X76386Y201341D01*
X76377Y201299D01*
X76370Y201256D01*
X76366Y201208D01*
X76364Y201159D01*
Y201155D01*
Y201148D01*
Y201134D01*
X76366Y201115D01*
X76368Y201094D01*
X76372Y201068D01*
X76375Y201041D01*
X76382Y201010D01*
X76390Y200977D01*
X76399Y200944D01*
X76410Y200910D01*
X76422Y200875D01*
X76439Y200842D01*
X76459Y200810D01*
X76479Y200777D01*
X76504Y200748D01*
X76506Y200746D01*
X76510Y200741D01*
X76519Y200733D01*
X76530Y200724D01*
X76543Y200713D01*
X76559Y200700D01*
X76579Y200686D01*
X76599Y200671D01*
X76624Y200659D01*
X76650Y200644D01*
X76679Y200631D01*
X76710Y200621D01*
X76743Y200611D01*
X76777Y200604D01*
X76815Y200599D01*
X76854Y200597D01*
X76863D01*
X76874Y200599D01*
X76888D01*
X76907Y200602D01*
X76928Y200604D01*
X76950Y200609D01*
X76976Y200615D01*
X77003Y200624D01*
X77032Y200633D01*
X77061Y200646D01*
X77092Y200660D01*
X77121Y200677D01*
X77152Y200699D01*
X77181Y200721D01*
X77209Y200748D01*
X77210Y200750D01*
X77214Y200755D01*
X77221Y200764D01*
X77231Y200775D01*
X77243Y200790D01*
X77254Y200808D01*
X77269Y200830D01*
X77281Y200853D01*
X77294Y200881D01*
X77309Y200910D01*
X77320Y200943D01*
X77331Y200977D01*
X77342Y201015D01*
X77349Y201055D01*
X77352Y201097D01*
X77354Y201141D01*
Y201143D01*
Y201148D01*
Y201157D01*
X77352Y201168D01*
Y201183D01*
X77351Y201199D01*
X77349Y201219D01*
X77345Y201239D01*
X77338Y201287D01*
X77325Y201338D01*
X77309Y201392D01*
X77287Y201449D01*
Y201450D01*
X77283Y201454D01*
X77280Y201463D01*
X77274Y201472D01*
X77267Y201485D01*
X77260Y201498D01*
X77238Y201531D01*
X77212Y201567D01*
X77179Y201603D01*
X77141Y201640D01*
X77100Y201671D01*
X77098D01*
X77094Y201674D01*
X77087Y201678D01*
X77078Y201681D01*
X77067Y201687D01*
X77054Y201694D01*
X77039Y201701D01*
X77021Y201707D01*
X76983Y201722D01*
X76939Y201734D01*
X76892Y201742D01*
X76843Y201745D01*
D02*
G37*
G36*
X150368Y201245D02*
X150359D01*
X150347Y201243D01*
X150332D01*
X150312Y201242D01*
X150290Y201238D01*
X150266Y201233D01*
X150239Y201227D01*
X150212Y201220D01*
X150181Y201211D01*
X150152Y201200D01*
X150121Y201185D01*
X150090Y201169D01*
X150059Y201151D01*
X150030Y201129D01*
X150003Y201103D01*
X150001Y201101D01*
X149997Y201096D01*
X149990Y201089D01*
X149981Y201078D01*
X149970Y201063D01*
X149957Y201047D01*
X149944Y201027D01*
X149930Y201005D01*
X149917Y200979D01*
X149904Y200952D01*
X149891Y200923D01*
X149881Y200890D01*
X149872Y200856D01*
X149864Y200819D01*
X149861Y200781D01*
X149859Y200741D01*
Y200739D01*
Y200732D01*
X149861Y200719D01*
Y200705D01*
X149862Y200685D01*
X149866Y200663D01*
X149872Y200639D01*
X149877Y200612D01*
X149886Y200583D01*
X149895Y200554D01*
X149908Y200523D01*
X149922Y200492D01*
X149939Y200461D01*
X149959Y200432D01*
X149983Y200401D01*
X150008Y200374D01*
X150010Y200372D01*
X150015Y200366D01*
X150022Y200359D01*
X150035Y200350D01*
X150050Y200339D01*
X150066Y200326D01*
X150086Y200313D01*
X150110Y200299D01*
X150135Y200286D01*
X150163Y200273D01*
X150194Y200261D01*
X150226Y200250D01*
X150261Y200239D01*
X150299Y200232D01*
X150337Y200228D01*
X150379Y200226D01*
X150401D01*
X150416Y200228D01*
X150434Y200230D01*
X150456Y200233D01*
X150479Y200239D01*
X150507Y200244D01*
X150534Y200252D01*
X150563Y200261D01*
X150592Y200273D01*
X150623Y200288D01*
X150654Y200304D01*
X150683Y200324D01*
X150712Y200346D01*
X150740Y200372D01*
X150741Y200374D01*
X150745Y200379D01*
X150752Y200386D01*
X150761Y200397D01*
X150772Y200412D01*
X150785Y200428D01*
X150798Y200448D01*
X150811Y200470D01*
X150823Y200495D01*
X150836Y200523D01*
X150849Y200552D01*
X150860Y200585D01*
X150869Y200619D01*
X150876Y200654D01*
X150880Y200692D01*
X150882Y200732D01*
Y200734D01*
Y200737D01*
Y200745D01*
X150880Y200754D01*
Y200767D01*
X150878Y200779D01*
X150876Y200796D01*
X150874Y200812D01*
X150867Y200852D01*
X150856Y200894D01*
X150840Y200939D01*
X150820Y200987D01*
Y200989D01*
X150816Y200992D01*
X150812Y200998D01*
X150809Y201007D01*
X150802Y201018D01*
X150794Y201029D01*
X150772Y201058D01*
X150747Y201087D01*
X150716Y201120D01*
X150678Y201151D01*
X150634Y201178D01*
X150632D01*
X150629Y201182D01*
X150621Y201183D01*
X150612Y201189D01*
X150601Y201194D01*
X150587Y201200D01*
X150572Y201205D01*
X150554Y201211D01*
X150514Y201223D01*
X150470Y201234D01*
X150421Y201242D01*
X150368Y201245D01*
D02*
G37*
G36*
Y199973D02*
X150352D01*
X150339Y199971D01*
X150323Y199969D01*
X150306Y199968D01*
X150286Y199964D01*
X150265Y199959D01*
X150219Y199946D01*
X150195Y199937D01*
X150170Y199926D01*
X150146Y199913D01*
X150123Y199898D01*
X150099Y199882D01*
X150077Y199862D01*
X150075Y199860D01*
X150072Y199857D01*
X150066Y199851D01*
X150059Y199842D01*
X150050Y199831D01*
X150041Y199818D01*
X150030Y199802D01*
X150019Y199786D01*
X150010Y199766D01*
X149999Y199746D01*
X149981Y199698D01*
X149973Y199673D01*
X149968Y199645D01*
X149964Y199616D01*
X149962Y199587D01*
Y199585D01*
Y199580D01*
Y199571D01*
X149964Y199558D01*
X149966Y199543D01*
X149968Y199527D01*
X149972Y199509D01*
X149977Y199487D01*
X149992Y199443D01*
X150001Y199420D01*
X150012Y199394D01*
X150026Y199371D01*
X150042Y199347D01*
X150061Y199323D01*
X150081Y199302D01*
X150083Y199300D01*
X150086Y199296D01*
X150093Y199291D01*
X150101Y199283D01*
X150113Y199274D01*
X150126Y199265D01*
X150143Y199254D01*
X150161Y199243D01*
X150181Y199232D01*
X150203Y199221D01*
X150226Y199212D01*
X150252Y199203D01*
X150281Y199196D01*
X150310Y199190D01*
X150339Y199187D01*
X150372Y199185D01*
X150388D01*
X150401Y199187D01*
X150416Y199189D01*
X150434Y199190D01*
X150454Y199194D01*
X150474Y199199D01*
X150521Y199212D01*
X150545Y199221D01*
X150570Y199234D01*
X150594Y199247D01*
X150619Y199261D01*
X150643Y199280D01*
X150665Y199300D01*
X150667Y199302D01*
X150670Y199305D01*
X150676Y199311D01*
X150683Y199320D01*
X150692Y199331D01*
X150701Y199343D01*
X150712Y199358D01*
X150721Y199376D01*
X150732Y199394D01*
X150743Y199414D01*
X150761Y199462D01*
X150769Y199485D01*
X150774Y199513D01*
X150778Y199540D01*
X150780Y199569D01*
Y199571D01*
Y199576D01*
Y199585D01*
X150778Y199598D01*
X150776Y199615D01*
X150774Y199631D01*
X150770Y199651D01*
X150765Y199673D01*
X150752Y199718D01*
X150743Y199742D01*
X150732Y199767D01*
X150720Y199791D01*
X150703Y199815D01*
X150687Y199838D01*
X150667Y199860D01*
X150665Y199862D01*
X150661Y199866D01*
X150654Y199871D01*
X150647Y199878D01*
X150634Y199886D01*
X150621Y199897D01*
X150605Y199906D01*
X150587Y199917D01*
X150567Y199927D01*
X150543Y199937D01*
X150519Y199948D01*
X150492Y199955D01*
X150465Y199962D01*
X150434Y199968D01*
X150401Y199971D01*
X150368Y199973D01*
D02*
G37*
G36*
X229577Y203813D02*
X229568D01*
X229557Y203811D01*
X229543Y203809D01*
X229524Y203808D01*
X229503Y203804D01*
X229481Y203799D01*
X229455Y203791D01*
X229428Y203780D01*
X229401Y203769D01*
X229372Y203755D01*
X229344Y203737D01*
X229315Y203717D01*
X229288Y203693D01*
X229262Y203664D01*
X229237Y203633D01*
X229235Y203631D01*
X229230Y203622D01*
X229222Y203608D01*
X229211Y203588D01*
X229201Y203560D01*
X229188Y203527D01*
X229173Y203487D01*
X229159Y203440D01*
X229150Y203415D01*
X229142Y203385D01*
X229135Y203356D01*
X229130Y203324D01*
X229122Y203291D01*
X229115Y203254D01*
X229110Y203216D01*
X229104Y203176D01*
X229099Y203134D01*
X229093Y203091D01*
X229089Y203045D01*
X229086Y202998D01*
X229082Y202947D01*
X229080Y202894D01*
X229079Y202839D01*
Y202783D01*
Y202781D01*
Y202776D01*
Y202768D01*
Y202756D01*
Y202741D01*
X229080Y202725D01*
Y202705D01*
Y202683D01*
X229082Y202659D01*
Y202634D01*
X229086Y202576D01*
X229091Y202514D01*
X229097Y202448D01*
X229104Y202379D01*
X229113Y202310D01*
X229126Y202241D01*
X229139Y202173D01*
X229155Y202110D01*
X229175Y202053D01*
X229186Y202026D01*
X229197Y202002D01*
X229210Y201979D01*
X229222Y201959D01*
X229224Y201957D01*
X229230Y201950D01*
X229237Y201940D01*
X229248Y201928D01*
X229262Y201911D01*
X229281Y201895D01*
X229299Y201875D01*
X229322Y201857D01*
X229346Y201838D01*
X229373Y201818D01*
X229402Y201802D01*
X229435Y201787D01*
X229468Y201773D01*
X229504Y201764D01*
X229543Y201757D01*
X229581Y201755D01*
X229590D01*
X229601Y201757D01*
X229615Y201758D01*
X229634Y201760D01*
X229656Y201766D01*
X229679Y201771D01*
X229705Y201780D01*
X229732Y201791D01*
X229761Y201804D01*
X229790Y201820D01*
X229821Y201840D01*
X229850Y201864D01*
X229881Y201891D01*
X229910Y201922D01*
X229938Y201959D01*
X229939Y201960D01*
X229943Y201970D01*
X229950Y201982D01*
X229961Y202000D01*
X229972Y202026D01*
X229983Y202057D01*
X229998Y202093D01*
X230010Y202139D01*
X230018Y202164D01*
X230023Y202192D01*
X230030Y202219D01*
X230038Y202250D01*
X230043Y202283D01*
X230049Y202317D01*
X230056Y202354D01*
X230061Y202394D01*
X230065Y202434D01*
X230070Y202477D01*
X230074Y202523D01*
X230078Y202570D01*
X230080Y202619D01*
X230081Y202672D01*
X230083Y202727D01*
Y202783D01*
Y202785D01*
Y202790D01*
Y202799D01*
Y202810D01*
Y202825D01*
Y202841D01*
X230081Y202861D01*
Y202883D01*
X230080Y202907D01*
Y202934D01*
X230076Y202991D01*
X230070Y203052D01*
X230065Y203120D01*
X230058Y203187D01*
X230049Y203256D01*
X230036Y203325D01*
X230021Y203393D01*
X230005Y203456D01*
X229985Y203513D01*
X229974Y203540D01*
X229963Y203564D01*
X229950Y203588D01*
X229938Y203608D01*
X229936Y203609D01*
X229930Y203617D01*
X229923Y203626D01*
X229912Y203640D01*
X229898Y203655D01*
X229881Y203673D01*
X229861Y203691D01*
X229839Y203711D01*
X229814Y203729D01*
X229786Y203748D01*
X229757Y203766D01*
X229725Y203780D01*
X229690Y203795D01*
X229656Y203804D01*
X229617Y203811D01*
X229577Y203813D01*
D02*
G37*
G36*
X194633D02*
X194624D01*
X194614Y203811D01*
X194599D01*
X194581Y203808D01*
X194561Y203804D01*
X194537Y203799D01*
X194512Y203791D01*
X194482Y203782D01*
X194455Y203771D01*
X194424Y203759D01*
X194393Y203742D01*
X194362Y203722D01*
X194333Y203700D01*
X194302Y203673D01*
X194273Y203644D01*
X194271Y203642D01*
X194266Y203637D01*
X194259Y203627D01*
X194249Y203613D01*
X194239Y203597D01*
X194226Y203577D01*
X194211Y203553D01*
X194199Y203527D01*
X194184Y203497D01*
X194169Y203464D01*
X194157Y203429D01*
X194146Y203389D01*
X194137Y203349D01*
X194129Y203305D01*
X194124Y203258D01*
X194122Y203209D01*
Y203207D01*
Y203198D01*
X194124Y203185D01*
Y203169D01*
X194126Y203149D01*
X194129Y203125D01*
X194135Y203098D01*
X194140Y203071D01*
X194148Y203040D01*
X194157Y203009D01*
X194169Y202976D01*
X194182Y202943D01*
X194199Y202910D01*
X194219Y202878D01*
X194240Y202847D01*
X194266Y202818D01*
X194268Y202816D01*
X194273Y202812D01*
X194280Y202803D01*
X194291Y202794D01*
X194306Y202783D01*
X194322Y202770D01*
X194342Y202758D01*
X194364Y202743D01*
X194390Y202728D01*
X194417Y202716D01*
X194446Y202703D01*
X194477Y202692D01*
X194512Y202683D01*
X194548Y202676D01*
X194584Y202670D01*
X194624Y202668D01*
X194633D01*
X194644Y202670D01*
X194661D01*
X194679Y202674D01*
X194699Y202676D01*
X194723Y202681D01*
X194750Y202687D01*
X194777Y202696D01*
X194805Y202705D01*
X194834Y202717D01*
X194865Y202732D01*
X194894Y202748D01*
X194923Y202768D01*
X194950Y202792D01*
X194977Y202818D01*
X194979Y202819D01*
X194983Y202825D01*
X194990Y202834D01*
X194999Y202845D01*
X195010Y202861D01*
X195021Y202880D01*
X195034Y202901D01*
X195047Y202927D01*
X195059Y202954D01*
X195072Y202985D01*
X195083Y203020D01*
X195094Y203058D01*
X195103Y203098D01*
X195110Y203140D01*
X195114Y203185D01*
X195116Y203234D01*
Y203238D01*
Y203245D01*
Y203260D01*
X195114Y203278D01*
X195112Y203302D01*
X195108Y203327D01*
X195103Y203356D01*
X195098Y203387D01*
X195090Y203420D01*
X195081Y203455D01*
X195070Y203489D01*
X195056Y203526D01*
X195039Y203560D01*
X195021Y203593D01*
X194999Y203626D01*
X194974Y203657D01*
X194972Y203659D01*
X194967Y203664D01*
X194959Y203671D01*
X194948Y203680D01*
X194936Y203693D01*
X194919Y203706D01*
X194899Y203720D01*
X194877Y203735D01*
X194854Y203749D01*
X194828Y203764D01*
X194801Y203777D01*
X194770Y203789D01*
X194739Y203799D01*
X194704Y203806D01*
X194670Y203811D01*
X194633Y203813D01*
D02*
G37*
G36*
X97286Y21572D02*
X96496D01*
Y20436D01*
X97286Y21572D01*
D02*
G37*
%LPD*%
D10*
X71185Y96098D02*
X81815D01*
X71185Y70902D02*
Y96098D01*
Y70902D02*
X81815D01*
Y96098D01*
X54185Y96598D02*
X64815D01*
X54185Y71402D02*
Y96598D01*
Y71402D02*
X64815D01*
Y96598D01*
X87744Y42685D02*
Y53315D01*
Y42685D02*
X112941D01*
Y53315D01*
X87744D02*
X112941D01*
X8409Y167122D02*
X19591D01*
Y189878D01*
X8409D02*
X19591D01*
X8409Y167122D02*
Y189878D01*
X275213Y178402D02*
Y203598D01*
Y178402D02*
X301787D01*
Y203598D01*
X275213D02*
X301787D01*
X7909Y128622D02*
X19091D01*
Y151378D01*
X7909D02*
X19091D01*
X7909Y128622D02*
Y151378D01*
Y86622D02*
X19091D01*
Y109378D01*
X7909D02*
X19091D01*
X7909Y86622D02*
Y109378D01*
X7409Y46622D02*
X18591D01*
Y69378D01*
X7409D02*
X18591D01*
X7409Y46622D02*
Y69378D01*
X90878Y196409D02*
Y207591D01*
X68122D02*
X90878D01*
X68122Y196409D02*
Y207591D01*
Y196409D02*
X90878D01*
X53878D02*
Y207591D01*
X31122D02*
X53878D01*
X31122Y196409D02*
Y207591D01*
Y196409D02*
X53878D01*
X164378Y195909D02*
Y207091D01*
X141622D02*
X164378D01*
X141622Y195909D02*
Y207091D01*
Y195909D02*
X164378D01*
X213622D02*
Y207091D01*
Y195909D02*
X236378D01*
Y207091D01*
X213622D02*
X236378D01*
X180622Y195909D02*
Y207091D01*
Y195909D02*
X203378D01*
Y207091D01*
X180622D02*
X203378D01*
X112598Y17185D02*
Y27815D01*
X87402D02*
X112598D01*
X87402Y17185D02*
Y27815D01*
Y17185D02*
X112598D01*
X126878Y196409D02*
Y207591D01*
X104122D02*
X126878D01*
X104122Y196409D02*
Y207591D01*
Y196409D02*
X126878D01*
M02*
