G04*
G04 #@! TF.GenerationSoftware,Altium Limited,Altium Designer,24.10.1 (45)*
G04*
G04 Layer_Physical_Order=2*
G04 Layer_Color=16711680*
%FSLAX25Y25*%
%MOIN*%
G70*
G04*
G04 #@! TF.SameCoordinates,82B40839-DE60-4B9F-80D9-4B01C0AB2508*
G04*
G04*
G04 #@! TF.FilePolarity,Positive*
G04*
G01*
G75*
%ADD16C,0.01000*%
%ADD23C,0.04724*%
%ADD24R,0.04724X0.04724*%
%ADD25C,0.07874*%
%ADD26R,0.04724X0.04724*%
%ADD30C,0.06181*%
%ADD31R,0.06181X0.06181*%
%ADD32C,0.06102*%
%ADD33R,0.06102X0.06102*%
%ADD34R,0.06181X0.06181*%
%ADD44R,0.05315X0.05315*%
%ADD45C,0.05315*%
%ADD46R,0.05512X0.05512*%
%ADD47C,0.05512*%
%ADD48C,0.06693*%
%ADD49R,0.06693X0.06693*%
%ADD50R,0.05315X0.05315*%
%ADD51C,0.05150*%
%ADD52R,0.05150X0.05150*%
%ADD53C,0.06299*%
G04:AMPARAMS|DCode=54|XSize=62.99mil|YSize=62.99mil|CornerRadius=15.75mil|HoleSize=0mil|Usage=FLASHONLY|Rotation=270.000|XOffset=0mil|YOffset=0mil|HoleType=Round|Shape=RoundedRectangle|*
%AMROUNDEDRECTD54*
21,1,0.06299,0.03150,0,0,270.0*
21,1,0.03150,0.06299,0,0,270.0*
1,1,0.03150,-0.01575,-0.01575*
1,1,0.03150,-0.01575,0.01575*
1,1,0.03150,0.01575,0.01575*
1,1,0.03150,0.01575,-0.01575*
%
%ADD54ROUNDEDRECTD54*%
G04:AMPARAMS|DCode=55|XSize=64.96mil|YSize=64.96mil|CornerRadius=16.24mil|HoleSize=0mil|Usage=FLASHONLY|Rotation=90.000|XOffset=0mil|YOffset=0mil|HoleType=Round|Shape=RoundedRectangle|*
%AMROUNDEDRECTD55*
21,1,0.06496,0.03248,0,0,90.0*
21,1,0.03248,0.06496,0,0,90.0*
1,1,0.03248,0.01624,0.01624*
1,1,0.03248,0.01624,-0.01624*
1,1,0.03248,-0.01624,-0.01624*
1,1,0.03248,-0.01624,0.01624*
%
%ADD55ROUNDEDRECTD55*%
%ADD56C,0.06496*%
%ADD57C,0.05906*%
%ADD58R,0.05906X0.05906*%
%ADD59C,0.05000*%
D16*
X187000Y62500D02*
X210600D01*
X27300D02*
X187000D01*
X252000Y196717D02*
X292626D01*
X298343Y191000D01*
X206800Y88000D02*
X226000D01*
X185500Y87000D02*
X206800Y88000D01*
X130190Y77000D02*
X155500D01*
X103000Y76110D02*
X130190Y77000D01*
X78953Y76110D02*
X103000D01*
X76500Y73657D02*
X78953Y76110D01*
X82717Y22500D02*
X90157D01*
X71217Y34000D02*
X82717Y22500D01*
X140213Y57000D02*
X155500D01*
X132500Y49287D02*
X140213Y57000D01*
X222902Y34402D02*
X244500D01*
X216500Y28000D02*
X222902Y34402D01*
X211600Y43100D02*
X216500Y48000D01*
X211600Y15500D02*
Y43100D01*
X207500Y11400D02*
X211600Y15500D01*
X40800Y11400D02*
X207500D01*
X6409Y45791D02*
X40800Y11400D01*
X6409Y45791D02*
Y165909D01*
X14000Y173500D01*
X13500Y93000D02*
X20900Y85600D01*
Y62700D02*
Y85600D01*
X15800Y57600D02*
X20900Y62700D01*
X8409Y57600D02*
X15800D01*
X8409Y48400D02*
Y57600D01*
Y48400D02*
X38309Y18500D01*
X128900D01*
X152400Y42000D01*
X198700D01*
X210417Y53717D01*
X265000D01*
X150300Y122200D02*
X155500Y117000D01*
X23500Y122200D02*
X150300D01*
X8900Y107600D02*
X23500Y122200D01*
X8900Y97600D02*
Y107600D01*
Y97600D02*
X13500Y93000D01*
X153200Y122500D02*
X170500D01*
X151100Y124600D02*
X153200Y122500D01*
X72400Y124600D02*
X151100D01*
X45500Y151500D02*
X72400Y124600D01*
X271300Y191000D02*
X278657D01*
X230100Y149800D02*
X271300Y191000D01*
X230100Y135500D02*
Y149800D01*
X227600Y133000D02*
X230100Y135500D01*
X221000Y133000D02*
X227600D01*
X216200Y137800D02*
X221000Y133000D01*
X216200Y137800D02*
Y146100D01*
X209600Y152700D02*
X216200Y146100D01*
X161200Y152700D02*
X209600D01*
X155500Y147000D02*
X161200Y152700D01*
X105890Y87000D02*
X155500D01*
X103000Y89890D02*
X105890Y87000D01*
X79953Y89890D02*
X103000D01*
X76500Y93343D02*
X79953Y89890D01*
X13500Y103000D02*
X50343D01*
X59500Y93843D01*
X226000Y98000D02*
X302900Y174900D01*
Y200800D01*
X297000Y206700D02*
X302900Y200800D01*
X125200Y206700D02*
X297000D01*
X120500Y202000D02*
X125200Y206700D01*
X110500Y202000D02*
X118800Y210300D01*
X298100D01*
X304900Y203500D01*
Y87500D02*
Y203500D01*
X299900Y82500D02*
X304900Y87500D01*
X230500Y82500D02*
X299900D01*
X226000Y78000D02*
X230500Y82500D01*
X68600Y58200D02*
X93000D01*
X112300Y38900D01*
X137900D01*
X151000Y52000D01*
X180500D01*
X185500Y57000D01*
X201500Y121500D02*
X205000Y118000D01*
X181000Y121500D02*
X201500D01*
X170500Y111000D02*
X181000Y121500D01*
X170500Y102000D02*
Y111000D01*
X155500Y87000D02*
X170500Y102000D01*
X273017Y64700D02*
X285000Y52717D01*
X212800Y64700D02*
X273017D01*
X210600Y62500D02*
X212800Y64700D01*
X17800Y53000D02*
X27300Y62500D01*
X13000Y53000D02*
X17800D01*
X187000Y62500D02*
X190000Y59500D01*
Y52000D02*
Y59500D01*
X81500Y127000D02*
X155500D01*
X67000Y141500D02*
X81500Y127000D01*
X205000Y128000D02*
X216100Y116900D01*
Y97900D02*
Y116900D01*
Y97900D02*
X226000Y88000D01*
X142217Y110283D02*
Y116500D01*
Y110283D02*
X155500Y97000D01*
Y87000D02*
X160269Y82231D01*
X180269D01*
X185500Y77000D01*
Y87000D02*
X190000Y82500D01*
Y73500D02*
Y82500D01*
X189000Y72500D02*
X190000Y73500D01*
X160000Y72500D02*
X189000D01*
X155500Y77000D02*
X160000Y72500D01*
X67000Y161500D02*
X86500D01*
X92500Y155500D01*
Y140283D02*
Y155500D01*
X13500Y135000D02*
X19000D01*
X35500Y151500D01*
X54343Y74157D02*
X59500D01*
X42000Y86500D02*
X54343Y74157D01*
X14000Y183500D02*
X23500D01*
X35500Y171500D01*
X133000Y175717D02*
X161217D01*
X187000Y201500D01*
X265000Y18283D02*
Y36300D01*
X261000Y40300D02*
X265000Y36300D01*
X228500Y40300D02*
X261000D01*
X226200Y38000D02*
X228500Y40300D01*
X216500Y38000D02*
X226200D01*
X92500Y175717D02*
X101483Y184700D01*
X141200D01*
X158000Y201500D01*
X112000Y173717D02*
X115517Y170200D01*
X196996D01*
X219487Y147709D01*
Y144513D02*
Y147709D01*
Y144513D02*
X226000Y138000D01*
X136000Y166500D02*
X155500Y147000D01*
X61400Y166500D02*
X136000D01*
X56400Y171500D02*
X61400Y166500D01*
X45500Y171500D02*
X56400D01*
X54000Y161500D02*
X67000D01*
X49000Y166500D02*
X54000Y161500D01*
X40500Y166500D02*
X49000D01*
X35500Y171500D02*
X40500Y166500D01*
X108383Y138283D02*
X112000D01*
X106200Y136100D02*
X108383Y138283D01*
X88400Y136100D02*
X106200D01*
X88100Y136400D02*
X88400Y136100D01*
X88100Y136400D02*
Y151500D01*
X82900Y156700D02*
X88100Y151500D01*
X40300Y156700D02*
X82900D01*
X35500Y161500D02*
X40300Y156700D01*
X67000Y151500D02*
X84900Y133600D01*
X152100D01*
X155500Y137000D01*
X37500Y202000D02*
X42100Y197400D01*
X69900D01*
X74500Y202000D01*
X275500Y17283D02*
X285000D01*
X274500Y18283D02*
X275500Y17283D01*
X265000Y18283D02*
X274500D01*
X226000Y88000D02*
X297000D01*
X123717Y140283D02*
X133000D01*
X121100Y142900D02*
X123717Y140283D01*
X103517Y142900D02*
X121100D01*
X100900Y140283D02*
X103517Y142900D01*
X92500Y140283D02*
X100900D01*
X68200Y73657D02*
X76500D01*
X67700Y74157D02*
X68200Y73657D01*
X59500Y74157D02*
X67700D01*
X121887Y49287D02*
X132500D01*
X120600Y48000D02*
X121887Y49287D01*
X110185Y48000D02*
X120600D01*
X144700Y67000D02*
X155500D01*
X143200Y68500D02*
X144700Y67000D01*
X132500Y68500D02*
X143200D01*
X195700Y138000D02*
X205000D01*
X194700Y137000D02*
X195700Y138000D01*
X185500Y137000D02*
X194700D01*
X195700Y148000D02*
X205000D01*
X194700Y147000D02*
X195700Y148000D01*
X185500Y147000D02*
X194700D01*
X68200Y93343D02*
X76500D01*
X67700Y93843D02*
X68200Y93343D01*
X59500Y93843D02*
X67700D01*
D23*
X132500Y68500D02*
D03*
X76500Y73657D02*
D03*
X59500Y74157D02*
D03*
X110185Y48000D02*
D03*
X90157Y22500D02*
D03*
D24*
X132500Y49287D02*
D03*
X76500Y93343D02*
D03*
X59500Y93843D02*
D03*
D25*
X32000Y86500D02*
D03*
X42000D02*
D03*
D26*
X90500Y48000D02*
D03*
X109843Y22500D02*
D03*
D30*
X14000Y183500D02*
D03*
X13500Y145000D02*
D03*
Y103000D02*
D03*
X13000Y63000D02*
D03*
X74500Y202000D02*
D03*
X37500D02*
D03*
X148000Y201500D02*
D03*
X230000D02*
D03*
X197000D02*
D03*
X110500Y202000D02*
D03*
D31*
X14000Y173500D02*
D03*
X13500Y135000D02*
D03*
Y93000D02*
D03*
X13000Y53000D02*
D03*
D32*
X298343Y191000D02*
D03*
D33*
X278657D02*
D03*
D34*
X84500Y202000D02*
D03*
X47500D02*
D03*
X158000Y201500D02*
D03*
X220000D02*
D03*
X187000D02*
D03*
X120500Y202000D02*
D03*
D44*
X71217Y34000D02*
D03*
X78717Y118000D02*
D03*
X142217Y116500D02*
D03*
X73217Y52000D02*
D03*
D45*
X35783Y34000D02*
D03*
X43283Y118000D02*
D03*
X244500Y59598D02*
D03*
X265000Y53717D02*
D03*
X285000Y52717D02*
D03*
X252000Y196717D02*
D03*
X106783Y116500D02*
D03*
X112000Y173717D02*
D03*
X37783Y52000D02*
D03*
X133000Y175717D02*
D03*
X92500D02*
D03*
D46*
X103000Y89890D02*
D03*
D47*
Y76110D02*
D03*
D48*
X216500Y28000D02*
D03*
Y38000D02*
D03*
D49*
Y48000D02*
D03*
D50*
X244500Y34402D02*
D03*
X265000Y18283D02*
D03*
X285000Y17283D02*
D03*
X252000Y161283D02*
D03*
X112000Y138283D02*
D03*
X133000Y140283D02*
D03*
X92500D02*
D03*
D51*
X226000Y118000D02*
D03*
Y108000D02*
D03*
X297000Y118000D02*
D03*
Y108000D02*
D03*
X226000Y98000D02*
D03*
Y128000D02*
D03*
X297000D02*
D03*
Y98000D02*
D03*
X226000Y138000D02*
D03*
X297000D02*
D03*
X226000Y88000D02*
D03*
X297000D02*
D03*
Y148000D02*
D03*
X226000Y78000D02*
D03*
X297000D02*
D03*
D52*
X226000Y148000D02*
D03*
D53*
X67000Y161500D02*
D03*
Y151500D02*
D03*
Y141500D02*
D03*
X205000Y128000D02*
D03*
Y138000D02*
D03*
Y148000D02*
D03*
D54*
X67000Y171500D02*
D03*
X205000Y118000D02*
D03*
D55*
X45500Y151500D02*
D03*
D56*
X35500D02*
D03*
X45500Y161500D02*
D03*
Y171500D02*
D03*
X35500Y161500D02*
D03*
Y171500D02*
D03*
D57*
X185500Y17000D02*
D03*
Y27000D02*
D03*
Y37000D02*
D03*
Y47000D02*
D03*
Y57000D02*
D03*
Y67000D02*
D03*
Y77000D02*
D03*
Y87000D02*
D03*
Y97000D02*
D03*
Y107000D02*
D03*
Y117000D02*
D03*
Y127000D02*
D03*
Y137000D02*
D03*
Y147000D02*
D03*
X155500Y17000D02*
D03*
Y27000D02*
D03*
Y37000D02*
D03*
Y47000D02*
D03*
Y57000D02*
D03*
Y67000D02*
D03*
Y77000D02*
D03*
Y87000D02*
D03*
Y97000D02*
D03*
Y107000D02*
D03*
Y117000D02*
D03*
Y127000D02*
D03*
Y137000D02*
D03*
D58*
Y147000D02*
D03*
D59*
X170500Y122500D02*
D03*
X68600Y58200D02*
D03*
X190000Y52000D02*
D03*
M02*
