G04*
G04 #@! TF.GenerationSoftware,Altium Limited,Altium Designer,24.10.1 (45)*
G04*
G04 Layer_Color=32768*
%FSLAX25Y25*%
%MOIN*%
G70*
G04*
G04 #@! TF.SameCoordinates,82B40839-DE60-4B9F-80D9-4B01C0AB2508*
G04*
G04*
G04 #@! TF.FilePolarity,Positive*
G04*
G01*
G75*
%ADD60C,0.00197*%
%ADD61C,0.00394*%
D60*
X138796Y36231D02*
G03*
X142047Y39799I-197J3445D01*
G01*
X122953Y39873D02*
G03*
X126201Y36231I3445J-197D01*
G01*
Y81630D02*
G03*
X122953Y77988I197J-3445D01*
G01*
X142047Y78062D02*
G03*
X138796Y81630I-3448J123D01*
G01*
X119142Y83000D02*
G03*
X119142Y83000I-16142J0D01*
G01*
X32732Y28882D02*
Y39118D01*
Y28882D02*
X74268D01*
X32732Y39118D02*
X74268D01*
Y28882D02*
Y39118D01*
X126201Y36231D02*
X138796D01*
X126201Y81630D02*
X138796D01*
X142047Y39799D02*
Y77988D01*
X122953Y39799D02*
Y77988D01*
X40232Y112882D02*
Y123118D01*
Y112882D02*
X81768D01*
X40232Y123118D02*
X81768D01*
Y112882D02*
Y123118D01*
X240632Y31350D02*
Y62650D01*
X248368Y31350D02*
Y62650D01*
X240632D02*
X248368D01*
X240632Y31350D02*
X248368D01*
X259882Y56768D02*
X270118D01*
X259882Y15232D02*
Y56768D01*
X270118Y15232D02*
Y56768D01*
X259882Y15232D02*
X270118D01*
X279882Y55768D02*
X290118D01*
X279882Y14232D02*
Y55768D01*
X290118Y14232D02*
Y55768D01*
X279882Y14232D02*
X290118D01*
X246882Y199768D02*
X257118D01*
X246882Y158232D02*
Y199768D01*
X257118Y158232D02*
Y199768D01*
X246882Y158232D02*
X257118D01*
X103732Y111382D02*
Y121618D01*
Y111382D02*
X145268D01*
X103732Y121618D02*
X145268D01*
Y111382D02*
Y121618D01*
X220516Y153984D02*
X302484D01*
Y72016D02*
Y153984D01*
X220516Y72016D02*
X302484D01*
X220516D02*
Y153984D01*
X106882Y176768D02*
X117118D01*
X106882Y135232D02*
Y176768D01*
X117118Y135232D02*
Y176768D01*
X106882Y135232D02*
X117118D01*
X34732Y46882D02*
Y57118D01*
Y46882D02*
X76268D01*
X34732Y57118D02*
X76268D01*
Y46882D02*
Y57118D01*
X127882Y178768D02*
X138118D01*
X127882Y137232D02*
Y178768D01*
X138118Y137232D02*
Y178768D01*
X127882Y137232D02*
X138118D01*
X87382Y178768D02*
X97618D01*
X87382Y137232D02*
Y178768D01*
X97618Y137232D02*
Y178768D01*
X87382Y137232D02*
X97618D01*
D61*
X53500Y32032D02*
Y35969D01*
X51532Y34000D02*
X55469D01*
X132500Y56925D02*
Y60862D01*
X130532Y58894D02*
X134469D01*
X101032Y83000D02*
X104969D01*
X103000Y81032D02*
Y84969D01*
X61000Y116032D02*
Y119969D01*
X59032Y118000D02*
X62969D01*
X216500Y36031D02*
Y39969D01*
X214531Y38000D02*
X218469D01*
X242532Y47000D02*
X246469D01*
X244500Y45032D02*
Y48969D01*
X263032Y36000D02*
X266969D01*
X265000Y34032D02*
Y37969D01*
X283032Y35000D02*
X286969D01*
X285000Y33032D02*
Y36969D01*
X250032Y179000D02*
X253969D01*
X252000Y177032D02*
Y180969D01*
X124500Y114532D02*
Y118469D01*
X122532Y116500D02*
X126469D01*
X110032Y156000D02*
X113969D01*
X112000Y154032D02*
Y157969D01*
X55500Y50032D02*
Y53969D01*
X53532Y52000D02*
X57469D01*
X131032Y158000D02*
X134969D01*
X133000Y156032D02*
Y159969D01*
X90532Y158000D02*
X94469D01*
X92500Y156032D02*
Y159969D01*
X170500Y80032D02*
Y83969D01*
X168532Y82000D02*
X172469D01*
M02*
