M48
;Layer_Color=9474304
;FILE_FORMAT=2:4
INCH,TZ
;TYPE=PLATED
T01F00S00C0.0276
T02F00S00C0.0280
T03F00S00C0.0315
T04F00S00C0.0335
T05F00S00C0.0354
T06F00S00C0.0394
T07F00S00C0.0402
T08F00S00C0.0433
%
T01
X13250Y4929
X11019Y4800
X9050
X9016Y2250
X10984
X7650Y7366
X5950Y7416
Y9384
X7650Y9334
X13250Y6850
T02
X19000Y5200
X6860Y5820
X17050Y12250
T03
X22600Y7800
Y8800
Y9800
Y10800
Y11800
Y12800
Y13800
Y14800
X29700
Y13800
Y12800
Y11800
Y10800
Y9800
Y8800
Y7800
T04
X28500Y1728
Y5272
X26500Y5372
X24450Y5960
Y3440
X26500Y1828
X7122Y3400
X7322Y5200
X3778
X3578Y3400
X4328Y11800
X7872
X10678Y11650
X11200Y13828
X9250Y14028
Y17572
X11200Y17372
X13300Y17572
Y14028
X14222Y11650
X25200Y16128
Y19672
T05
X15550Y1700
Y2700
Y3700
Y4700
Y5700
Y6700
X18550
Y5700
Y4700
Y3700
Y2700
Y1700
X10300Y7611
Y8989
X15550Y8700
Y7700
Y9700
Y10700
Y11700
Y12700
Y13700
Y14700
X18550
Y13700
Y12700
Y11700
Y10700
Y9700
Y8700
Y7700
T06
X3200Y8650
X4200
X27866Y19100
X29834
T07
X1300Y5300
Y6300
X1350Y9300
Y10300
Y13500
Y14500
X1400Y17350
Y18350
X3750Y20200
X4750
X7450
X8450
X11050
X12050
X14800Y20150
X15800
X18700
X19700
X22000
X23000
T08
X21650Y2800
Y3800
Y4800
X6700Y14150
Y15150
Y16150
Y17150
X4550
Y16150
Y15150
X3550
Y16150
Y17150
X20500Y14800
Y13800
Y12800
Y11800
M30
