G04*
G04 #@! TF.GenerationSoftware,Altium Limited,Altium Designer,24.10.1 (45)*
G04*
G04 Layer_Physical_Order=1*
G04 Layer_Color=255*
%FSLAX25Y25*%
%MOIN*%
G70*
G04*
G04 #@! TF.SameCoordinates,82B40839-DE60-4B9F-80D9-4B01C0AB2508*
G04*
G04*
G04 #@! TF.FilePolarity,Positive*
G04*
G01*
G75*
%ADD16C,0.01000*%
%ADD23C,0.04724*%
%ADD24R,0.04724X0.04724*%
%ADD25C,0.07874*%
%ADD26R,0.04724X0.04724*%
%ADD30C,0.06181*%
%ADD31R,0.06181X0.06181*%
%ADD32C,0.06102*%
%ADD33R,0.06102X0.06102*%
%ADD34R,0.06181X0.06181*%
%ADD44R,0.05315X0.05315*%
%ADD45C,0.05315*%
%ADD46R,0.05512X0.05512*%
%ADD47C,0.05512*%
%ADD48C,0.06693*%
%ADD49R,0.06693X0.06693*%
%ADD50R,0.05315X0.05315*%
%ADD51C,0.05150*%
%ADD52R,0.05150X0.05150*%
%ADD53C,0.06299*%
G04:AMPARAMS|DCode=54|XSize=62.99mil|YSize=62.99mil|CornerRadius=15.75mil|HoleSize=0mil|Usage=FLASHONLY|Rotation=270.000|XOffset=0mil|YOffset=0mil|HoleType=Round|Shape=RoundedRectangle|*
%AMROUNDEDRECTD54*
21,1,0.06299,0.03150,0,0,270.0*
21,1,0.03150,0.06299,0,0,270.0*
1,1,0.03150,-0.01575,-0.01575*
1,1,0.03150,-0.01575,0.01575*
1,1,0.03150,0.01575,0.01575*
1,1,0.03150,0.01575,-0.01575*
%
%ADD54ROUNDEDRECTD54*%
G04:AMPARAMS|DCode=55|XSize=64.96mil|YSize=64.96mil|CornerRadius=16.24mil|HoleSize=0mil|Usage=FLASHONLY|Rotation=90.000|XOffset=0mil|YOffset=0mil|HoleType=Round|Shape=RoundedRectangle|*
%AMROUNDEDRECTD55*
21,1,0.06496,0.03248,0,0,90.0*
21,1,0.03248,0.06496,0,0,90.0*
1,1,0.03248,0.01624,0.01624*
1,1,0.03248,0.01624,-0.01624*
1,1,0.03248,-0.01624,-0.01624*
1,1,0.03248,-0.01624,0.01624*
%
%ADD55ROUNDEDRECTD55*%
%ADD56C,0.06496*%
%ADD57C,0.05906*%
%ADD58R,0.05906X0.05906*%
%ADD59C,0.05000*%
D16*
X152600Y214000D02*
Y218414D01*
X152014Y219000D02*
X152600Y218414D01*
X64500Y219000D02*
X152014D01*
X59500Y214000D02*
X64500Y219000D01*
X152600Y152700D02*
Y214000D01*
X226300D01*
X59500D02*
X152600D01*
X47500Y202000D02*
X59500Y214000D01*
X72600Y52000D02*
Y134317D01*
X92500Y130783D02*
Y140283D01*
Y130783D02*
X106783Y116500D01*
X42000Y56217D02*
Y86500D01*
X37783Y52000D02*
X42000Y56217D01*
X106783Y103617D02*
Y116500D01*
Y103617D02*
X107700Y102700D01*
Y80810D02*
Y102700D01*
X103000Y76110D02*
X107700Y80810D01*
X76500Y62000D02*
Y73657D01*
Y62000D02*
X90500Y48000D01*
X13500Y145000D02*
X25900Y132600D01*
Y53100D02*
Y132600D01*
Y53100D02*
X67600Y11400D01*
X235000D01*
X257000Y33400D01*
Y47098D01*
X244500Y59598D02*
X257000Y47098D01*
X142217Y116500D02*
Y159983D01*
X100200Y202000D02*
X142217Y159983D01*
X84500Y202000D02*
X100200D01*
X163406Y167906D02*
X197000Y201500D01*
X163406Y44906D02*
Y167906D01*
X155500Y37000D02*
X163406Y44906D01*
X155500Y27000D02*
X170000Y41500D01*
X189000D01*
X194500Y47000D01*
Y185200D01*
X215400Y206100D01*
X225400D01*
X230000Y201500D01*
X170500Y62000D02*
X185500Y47000D01*
X170500Y62000D02*
Y122500D01*
X112000Y138283D02*
X136400Y113883D01*
Y32300D02*
Y113883D01*
Y32300D02*
X146200Y22500D01*
X171000D01*
X185500Y37000D01*
X74500Y179000D02*
Y202000D01*
X67000Y171500D02*
X74500Y179000D01*
X226300Y214000D02*
X252000Y188300D01*
Y161283D02*
Y188300D01*
X219900Y121900D02*
X226000Y128000D01*
X219900Y61400D02*
Y121900D01*
X185500Y27000D02*
X219900Y61400D01*
X220000Y171600D02*
Y201500D01*
Y171600D02*
X271200Y120400D01*
Y38600D02*
Y120400D01*
X240600Y8000D02*
X271200Y38600D01*
X61783Y8000D02*
X240600D01*
X35783Y34000D02*
X61783Y8000D01*
X40700Y156700D02*
X45500Y161500D01*
X40700Y145100D02*
Y156700D01*
Y145100D02*
X68600Y117200D01*
Y58200D02*
Y117200D01*
X30700Y195200D02*
X37500Y202000D01*
X30700Y156300D02*
Y195200D01*
Y156300D02*
X35500Y151500D01*
X151000Y111500D02*
X155500Y107000D01*
X151000Y111500D02*
Y151100D01*
X152600Y152700D01*
X190000Y52000D02*
Y92500D01*
X185500Y97000D02*
X190000Y92500D01*
X148000Y54500D02*
Y201500D01*
Y54500D02*
X155500Y47000D01*
X205000Y118000D02*
X209700Y122700D01*
Y131700D01*
X226000Y148000D01*
X128600Y64600D02*
X132500Y68500D01*
X128600Y41257D02*
Y64600D01*
X109843Y22500D02*
X128600Y41257D01*
X216500Y38000D02*
X221900Y43400D01*
Y83900D01*
X226000Y88000D01*
X32000Y86500D02*
Y106717D01*
X43283Y118000D01*
X72600Y52000D02*
X73217D01*
X72600Y134317D02*
X112000Y173717D01*
X297000Y88000D02*
X301100Y92100D01*
Y188243D01*
X298343Y191000D02*
X301100Y188243D01*
X8900Y98400D02*
X13500Y103000D01*
X8900Y67100D02*
Y98400D01*
Y67100D02*
X13000Y63000D01*
X90500Y35343D02*
Y48000D01*
X90157Y35000D02*
X90500Y35343D01*
X90157Y22500D02*
Y35000D01*
X185500Y67000D02*
Y77000D01*
X78717Y106717D02*
Y118000D01*
X76500Y104500D02*
X78717Y106717D01*
X76500Y93343D02*
Y104500D01*
X13500Y103000D02*
Y135000D01*
D23*
X132500Y68500D02*
D03*
X76500Y73657D02*
D03*
X59500Y74157D02*
D03*
X110185Y48000D02*
D03*
X90157Y22500D02*
D03*
D24*
X132500Y49287D02*
D03*
X76500Y93343D02*
D03*
X59500Y93843D02*
D03*
D25*
X32000Y86500D02*
D03*
X42000D02*
D03*
D26*
X90500Y48000D02*
D03*
X109843Y22500D02*
D03*
D30*
X14000Y183500D02*
D03*
X13500Y145000D02*
D03*
Y103000D02*
D03*
X13000Y63000D02*
D03*
X74500Y202000D02*
D03*
X37500D02*
D03*
X148000Y201500D02*
D03*
X230000D02*
D03*
X197000D02*
D03*
X110500Y202000D02*
D03*
D31*
X14000Y173500D02*
D03*
X13500Y135000D02*
D03*
Y93000D02*
D03*
X13000Y53000D02*
D03*
D32*
X298343Y191000D02*
D03*
D33*
X278657D02*
D03*
D34*
X84500Y202000D02*
D03*
X47500D02*
D03*
X158000Y201500D02*
D03*
X220000D02*
D03*
X187000D02*
D03*
X120500Y202000D02*
D03*
D44*
X71217Y34000D02*
D03*
X78717Y118000D02*
D03*
X142217Y116500D02*
D03*
X73217Y52000D02*
D03*
D45*
X35783Y34000D02*
D03*
X43283Y118000D02*
D03*
X244500Y59598D02*
D03*
X265000Y53717D02*
D03*
X285000Y52717D02*
D03*
X252000Y196717D02*
D03*
X106783Y116500D02*
D03*
X112000Y173717D02*
D03*
X37783Y52000D02*
D03*
X133000Y175717D02*
D03*
X92500D02*
D03*
D46*
X103000Y89890D02*
D03*
D47*
Y76110D02*
D03*
D48*
X216500Y28000D02*
D03*
Y38000D02*
D03*
D49*
Y48000D02*
D03*
D50*
X244500Y34402D02*
D03*
X265000Y18283D02*
D03*
X285000Y17283D02*
D03*
X252000Y161283D02*
D03*
X112000Y138283D02*
D03*
X133000Y140283D02*
D03*
X92500D02*
D03*
D51*
X226000Y118000D02*
D03*
Y108000D02*
D03*
X297000Y118000D02*
D03*
Y108000D02*
D03*
X226000Y98000D02*
D03*
Y128000D02*
D03*
X297000D02*
D03*
Y98000D02*
D03*
X226000Y138000D02*
D03*
X297000D02*
D03*
X226000Y88000D02*
D03*
X297000D02*
D03*
Y148000D02*
D03*
X226000Y78000D02*
D03*
X297000D02*
D03*
D52*
X226000Y148000D02*
D03*
D53*
X67000Y161500D02*
D03*
Y151500D02*
D03*
Y141500D02*
D03*
X205000Y128000D02*
D03*
Y138000D02*
D03*
Y148000D02*
D03*
D54*
X67000Y171500D02*
D03*
X205000Y118000D02*
D03*
D55*
X45500Y151500D02*
D03*
D56*
X35500D02*
D03*
X45500Y161500D02*
D03*
Y171500D02*
D03*
X35500Y161500D02*
D03*
Y171500D02*
D03*
D57*
X185500Y17000D02*
D03*
Y27000D02*
D03*
Y37000D02*
D03*
Y47000D02*
D03*
Y57000D02*
D03*
Y67000D02*
D03*
Y77000D02*
D03*
Y87000D02*
D03*
Y97000D02*
D03*
Y107000D02*
D03*
Y117000D02*
D03*
Y127000D02*
D03*
Y137000D02*
D03*
Y147000D02*
D03*
X155500Y17000D02*
D03*
Y27000D02*
D03*
Y37000D02*
D03*
Y47000D02*
D03*
Y57000D02*
D03*
Y67000D02*
D03*
Y77000D02*
D03*
Y87000D02*
D03*
Y97000D02*
D03*
Y107000D02*
D03*
Y117000D02*
D03*
Y127000D02*
D03*
Y137000D02*
D03*
D58*
Y147000D02*
D03*
D59*
X170500Y122500D02*
D03*
X68600Y58200D02*
D03*
X190000Y52000D02*
D03*
M02*
