G04*
G04 #@! TF.GenerationSoftware,Altium Limited,Altium Designer,24.10.1 (45)*
G04*
G04 Layer_Color=255*
%FSLAX25Y25*%
%MOIN*%
G70*
G04*
G04 #@! TF.SameCoordinates,82B40839-DE60-4B9F-80D9-4B01C0AB2508*
G04*
G04*
G04 #@! TF.FilePolarity,Positive*
G04*
G01*
G75*
%ADD23C,0.04724*%
%ADD24R,0.04724X0.04724*%
%ADD25C,0.07874*%
%ADD26R,0.04724X0.04724*%
%ADD30C,0.06181*%
%ADD31R,0.06181X0.06181*%
%ADD32C,0.06102*%
%ADD33R,0.06102X0.06102*%
%ADD34R,0.06181X0.06181*%
%ADD44R,0.05315X0.05315*%
%ADD45C,0.05315*%
%ADD46R,0.05512X0.05512*%
%ADD47C,0.05512*%
%ADD48C,0.06693*%
%ADD49R,0.06693X0.06693*%
%ADD50R,0.05315X0.05315*%
%ADD51C,0.05150*%
%ADD52R,0.05150X0.05150*%
%ADD53C,0.06299*%
G04:AMPARAMS|DCode=54|XSize=62.99mil|YSize=62.99mil|CornerRadius=15.75mil|HoleSize=0mil|Usage=FLASHONLY|Rotation=270.000|XOffset=0mil|YOffset=0mil|HoleType=Round|Shape=RoundedRectangle|*
%AMROUNDEDRECTD54*
21,1,0.06299,0.03150,0,0,270.0*
21,1,0.03150,0.06299,0,0,270.0*
1,1,0.03150,-0.01575,-0.01575*
1,1,0.03150,-0.01575,0.01575*
1,1,0.03150,0.01575,0.01575*
1,1,0.03150,0.01575,-0.01575*
%
%ADD54ROUNDEDRECTD54*%
G04:AMPARAMS|DCode=55|XSize=64.96mil|YSize=64.96mil|CornerRadius=16.24mil|HoleSize=0mil|Usage=FLASHONLY|Rotation=90.000|XOffset=0mil|YOffset=0mil|HoleType=Round|Shape=RoundedRectangle|*
%AMROUNDEDRECTD55*
21,1,0.06496,0.03248,0,0,90.0*
21,1,0.03248,0.06496,0,0,90.0*
1,1,0.03248,0.01624,0.01624*
1,1,0.03248,0.01624,-0.01624*
1,1,0.03248,-0.01624,-0.01624*
1,1,0.03248,-0.01624,0.01624*
%
%ADD55ROUNDEDRECTD55*%
%ADD56C,0.06496*%
%ADD57C,0.05906*%
%ADD58R,0.05906X0.05906*%
D23*
X132500Y68500D02*
D03*
X76500Y73657D02*
D03*
X59500Y74157D02*
D03*
X110185Y48000D02*
D03*
X90157Y22500D02*
D03*
D24*
X132500Y49287D02*
D03*
X76500Y93343D02*
D03*
X59500Y93843D02*
D03*
D25*
X32000Y86500D02*
D03*
X42000D02*
D03*
D26*
X90500Y48000D02*
D03*
X109843Y22500D02*
D03*
D30*
X14000Y183500D02*
D03*
X13500Y145000D02*
D03*
Y103000D02*
D03*
X13000Y63000D02*
D03*
X74500Y202000D02*
D03*
X37500D02*
D03*
X148000Y201500D02*
D03*
X230000D02*
D03*
X197000D02*
D03*
X110500Y202000D02*
D03*
D31*
X14000Y173500D02*
D03*
X13500Y135000D02*
D03*
Y93000D02*
D03*
X13000Y53000D02*
D03*
D32*
X298343Y191000D02*
D03*
D33*
X278657D02*
D03*
D34*
X84500Y202000D02*
D03*
X47500D02*
D03*
X158000Y201500D02*
D03*
X220000D02*
D03*
X187000D02*
D03*
X120500Y202000D02*
D03*
D44*
X71217Y34000D02*
D03*
X78717Y118000D02*
D03*
X142217Y116500D02*
D03*
X73217Y52000D02*
D03*
D45*
X35783Y34000D02*
D03*
X43283Y118000D02*
D03*
X244500Y59598D02*
D03*
X265000Y53717D02*
D03*
X285000Y52717D02*
D03*
X252000Y196717D02*
D03*
X106783Y116500D02*
D03*
X112000Y173717D02*
D03*
X37783Y52000D02*
D03*
X133000Y175717D02*
D03*
X92500D02*
D03*
D46*
X103000Y89890D02*
D03*
D47*
Y76110D02*
D03*
D48*
X216500Y28000D02*
D03*
Y38000D02*
D03*
D49*
Y48000D02*
D03*
D50*
X244500Y34402D02*
D03*
X265000Y18283D02*
D03*
X285000Y17283D02*
D03*
X252000Y161283D02*
D03*
X112000Y138283D02*
D03*
X133000Y140283D02*
D03*
X92500D02*
D03*
D51*
X226000Y118000D02*
D03*
Y108000D02*
D03*
X297000Y118000D02*
D03*
Y108000D02*
D03*
X226000Y98000D02*
D03*
Y128000D02*
D03*
X297000D02*
D03*
Y98000D02*
D03*
X226000Y138000D02*
D03*
X297000D02*
D03*
X226000Y88000D02*
D03*
X297000D02*
D03*
Y148000D02*
D03*
X226000Y78000D02*
D03*
X297000D02*
D03*
D52*
X226000Y148000D02*
D03*
D53*
X67000Y161500D02*
D03*
Y151500D02*
D03*
Y141500D02*
D03*
X205000Y128000D02*
D03*
Y138000D02*
D03*
Y148000D02*
D03*
D54*
X67000Y171500D02*
D03*
X205000Y118000D02*
D03*
D55*
X45500Y151500D02*
D03*
D56*
X35500D02*
D03*
X45500Y161500D02*
D03*
Y171500D02*
D03*
X35500Y161500D02*
D03*
Y171500D02*
D03*
D57*
X185500Y17000D02*
D03*
Y27000D02*
D03*
Y37000D02*
D03*
Y47000D02*
D03*
Y57000D02*
D03*
Y67000D02*
D03*
Y77000D02*
D03*
Y87000D02*
D03*
Y97000D02*
D03*
Y107000D02*
D03*
Y117000D02*
D03*
Y127000D02*
D03*
Y137000D02*
D03*
Y147000D02*
D03*
X155500Y17000D02*
D03*
Y27000D02*
D03*
Y37000D02*
D03*
Y47000D02*
D03*
Y57000D02*
D03*
Y67000D02*
D03*
Y77000D02*
D03*
Y87000D02*
D03*
Y97000D02*
D03*
Y107000D02*
D03*
Y117000D02*
D03*
Y127000D02*
D03*
Y137000D02*
D03*
D58*
Y147000D02*
D03*
M02*
